<?xml version="1.0" encoding="utf-8"?>
<!-- Generator: Adobe Illustrator 18.1.1, SVG Export Plug-In . SVG Version: 6.00 Build 0)  -->
<svg version="1.1" id="Layer_1" xmlns="http://www.w3.org/2000/svg" xmlns:xlink="http://www.w3.org/1999/xlink" x="0px" y="0px"
	 viewBox="0 0 342 280.5" enable-background="new 0 0 342 280.5" xml:space="preserve">
<circle fill="#212535" cx="201.8" cy="140.2" r="140.2"/>
<g opacity="0.23">
	<path d="M108,73.7h11.3v-46h-8.9c-0.6,3.1-2,5.4-4.2,6.9c-2.2,1.5-4.9,2.3-7.9,2.4v7.6h9.8V73.7z"/>
	<path d="M141.5,43.8c-1.8,2.4-3.4,5.1-5,8.2c-1.5,3-2.8,6.4-3.9,10.1c-1,3.7-1.6,7.6-1.8,11.7h11.7c0.1-3.9,0.6-7.7,1.5-11.3
		c0.9-3.6,2.1-7,3.5-10.1c1.4-3.1,3.1-6,4.9-8.7c1.8-2.6,3.8-5,5.8-7v-8.7h-33.8v9.5h22v0.1C145,39.4,143.3,41.4,141.5,43.8z"/>
	<path d="M162.5,60.4c0.6,0.7,1.3,1.2,2.2,1.5c0.8,0.4,1.7,0.5,2.7,0.5c1,0,1.9-0.2,2.8-0.5c0.8-0.4,1.6-0.9,2.2-1.5
		c0.6-0.7,1.1-1.5,1.4-2.4c0.3-0.9,0.5-2,0.5-3.1c0-1.2-0.2-2.2-0.5-3.1c-0.3-0.9-0.8-1.7-1.4-2.4c-0.6-0.7-1.3-1.2-2.2-1.5
		c-0.9-0.4-1.8-0.5-2.8-0.5c-1,0-1.9,0.2-2.8,0.5c-0.8,0.4-1.6,0.9-2.2,1.5c-0.6,0.7-1.1,1.4-1.4,2.4c-0.3,0.9-0.5,2-0.5,3.1
		c0,1.1,0.2,2.2,0.5,3.1S161.9,59.8,162.5,60.4z M165.7,51.8c0.4-0.8,0.9-1.2,1.7-1.2c0.8,0,1.4,0.4,1.7,1.2
		c0.4,0.8,0.5,1.9,0.5,3.1c0,1.3-0.2,2.3-0.5,3.1s-0.9,1.2-1.7,1.2c-0.8,0-1.4-0.4-1.7-1.2c-0.4-0.8-0.5-1.8-0.5-3.1
		C165.2,53.7,165.3,52.7,165.7,51.8z"/>
	<polygon points="170.9,73.7 184.8,47.9 181.3,47.9 167.4,73.7 	"/>
	<path d="M182.1,59.8c-0.8,0.4-1.6,0.9-2.2,1.5c-0.6,0.7-1.1,1.5-1.4,2.4c-0.4,0.9-0.5,2-0.5,3.1c0,1.2,0.2,2.2,0.5,3.1
		c0.4,0.9,0.8,1.7,1.4,2.4c0.6,0.7,1.3,1.2,2.2,1.5c0.8,0.4,1.7,0.5,2.7,0.5c1,0,1.9-0.2,2.8-0.5c0.9-0.4,1.6-0.9,2.2-1.5
		c0.6-0.7,1.1-1.5,1.4-2.4c0.3-0.9,0.5-2,0.5-3.1c0-1.2-0.2-2.2-0.5-3.1c-0.3-0.9-0.8-1.7-1.4-2.4c-0.6-0.7-1.3-1.2-2.2-1.5
		c-0.9-0.4-1.8-0.5-2.8-0.5C183.8,59.3,182.9,59.5,182.1,59.8z M186.5,63.7c0.4,0.8,0.5,1.8,0.5,3.1c0,1.3-0.2,2.3-0.5,3.1
		c-0.4,0.8-0.9,1.2-1.7,1.2c-0.8,0-1.4-0.4-1.7-1.2c-0.4-0.8-0.5-1.8-0.5-3.1c0-1.3,0.2-2.3,0.5-3.1c0.4-0.8,0.9-1.2,1.7-1.2
		C185.6,62.5,186.2,62.9,186.5,63.7z"/>
	<polygon points="86.2,59.3 70.5,59.3 70.5,25.4 51.5,25.4 51.5,59.3 35.8,59.3 61,92.3 	"/>
	<path d="M250,100.2l-11.8-19.5V47c1.1-0.1,2-0.4,2-0.7V26.2c0-0.3-0.8-0.6-2-0.7v-1.2c0-1.5-1.1-2.8-2.4-2.8h-8.3h-7.2
		c-1.3,0-2.4,1.2-2.4,2.8v1.2c-1.1,0.1-2,0.4-2,0.7v20.1c0,0.3,0.8,0.6,2,0.7v33.7l-11.8,19.5c-2.8,5.4-2.8,12.4-2.8,13.9v103.1
		c0,1.5,1.3,2.8,2.8,2.8h21.4H250c1.5,0,2.8-1.2,2.8-2.8V114.2C252.8,112.6,252.8,105.6,250,100.2z"/>
	<path d="M168.5,216.5c-2.2-4.6-3.7-15.9-3.7-32c0-15.1,1.4-18.2,3.4-21.4c13-3,22.9-18.6,22.9-37.4c0-2.5-0.2-5-0.5-7.4h-26.8
		h-26.8c-0.4,2.4-0.5,4.9-0.5,7.4c0,18.9,9.9,34.5,22.9,37.4c2,3.2,3.4,6.3,3.4,21.4c0,16-1.6,27.4-3.7,32
		c-13.2,0.3-23.3,1.8-23.3,3.5h28.1h28.2C191.8,218.3,181.7,216.8,168.5,216.5z"/>
	<path d="M110.2,145.5h-9.4c0-0.1-0.1-0.2-0.1-0.2v-10.4c0.7-1.6,1.1-3.5,1.1-5.4c0-6.7-4.8-12.2-10.7-12.2c-1.8,0-3.5,0.5-4.9,1.4
		c-2-2.7-4.9-4.5-8.3-4.5c-1.2,0-2.3,0.2-3.4,0.6c-1-5.5-5.3-9.7-10.5-9.7c-3.9,0-7.4,2.4-9.2,6.1c-0.5-0.1-0.9-0.1-1.4-0.1
		c-5.9,0-10.7,5.5-10.7,12.2c0,0.5,0,0.9,0.1,1.3c-0.2,0.1-0.3,0.2-0.5,0.3c-1.6-1-3.4-1.6-5.3-1.6c-5.9,0-10.7,5.5-10.7,12.2
		c0,1.1,0.1,2.2,0.4,3.2c-5.2,0.9-9.1,5.9-9.1,12.1c0,2.9,0.9,5.6,2.4,7.7c-1.5,2.1-2.4,4.8-2.4,7.7c0,6.7,4.8,12.2,10.7,12.2
		c0.1,0,0.3,0,0.4,0v34.2c0,4.3,3.5,7.8,7.8,7.8h13.7h1.6h26h1.6h13.7c4.3,0,7.8-3.5,7.8-7.8v-9.3h9.5c8.8,0,16-7.2,16-16v-19.5
		v-6.1C126.2,152.7,119,145.5,110.2,145.5z M117.1,167.6v19.5c0,3.8-3.1,6.8-6.8,6.8h-9.5v-37.8c0-0.1,0-0.1,0.1-0.2
		c0.1-0.2,0.2-0.5,0.3-0.7c0.1-0.1,0.1-0.3,0.1-0.4c0-0.1,0-0.1,0.1-0.2h9c3.8,0,6.8,3.1,6.8,6.8V167.6z"/>
</g>
<g>
	<path fill="#FFFFFF" d="M90.5,26.7h-9.8v-7.6c3.1-0.1,5.7-0.9,7.9-2.4c2.2-1.5,3.6-3.8,4.2-6.9h8.9v46H90.5V26.7z"/>
	<path fill="#FFFFFF" d="M115.2,44.2c1-3.7,2.3-7,3.9-10.1c1.5-3,3.2-5.8,5-8.2c1.8-2.4,3.5-4.4,5.1-6.1v-0.1h-22v-9.5h33.8v8.7
		c-2,2-3.9,4.3-5.8,7c-1.8,2.6-3.5,5.5-4.9,8.7c-1.4,3.1-2.6,6.5-3.5,10.1c-0.9,3.6-1.4,7.3-1.5,11.3h-11.7
		C113.6,51.8,114.2,47.9,115.2,44.2z"/>
	<path fill="#FFFFFF" d="M149.9,44.7c-1,0-1.9-0.2-2.7-0.5c-0.8-0.4-1.6-0.9-2.2-1.5c-0.6-0.7-1.1-1.5-1.4-2.4
		c-0.4-0.9-0.5-2-0.5-3.1c0-1.2,0.2-2.2,0.5-3.1c0.3-0.9,0.8-1.7,1.4-2.4c0.6-0.7,1.3-1.2,2.2-1.5c0.8-0.4,1.8-0.5,2.8-0.5
		c1,0,1.9,0.2,2.8,0.5c0.9,0.4,1.6,0.9,2.2,1.5c0.6,0.7,1.1,1.4,1.4,2.4c0.3,0.9,0.5,2,0.5,3.1c0,1.1-0.2,2.2-0.5,3.1
		c-0.3,0.9-0.8,1.7-1.4,2.4c-0.6,0.7-1.3,1.2-2.2,1.5C151.8,44.5,150.9,44.7,149.9,44.7z M149.9,41.4c0.8,0,1.4-0.4,1.7-1.2
		c0.4-0.8,0.5-1.8,0.5-3.1c0-1.3-0.2-2.3-0.5-3.1c-0.4-0.8-0.9-1.2-1.7-1.2c-0.8,0-1.4,0.4-1.7,1.2c-0.4,0.8-0.5,1.9-0.5,3.1
		c0,1.3,0.2,2.3,0.5,3.1C148.5,41,149.1,41.4,149.9,41.4z M163.8,30.1h3.5l-13.9,25.8h-3.5L163.8,30.1z M167.3,56.5
		c-1,0-1.9-0.2-2.7-0.5c-0.8-0.4-1.6-0.9-2.2-1.5c-0.6-0.7-1.1-1.5-1.4-2.4c-0.4-0.9-0.5-2-0.5-3.1c0-1.1,0.2-2.2,0.5-3.1
		c0.4-0.9,0.8-1.7,1.4-2.4c0.6-0.7,1.3-1.2,2.2-1.5c0.8-0.4,1.7-0.5,2.7-0.5c1,0,2,0.2,2.8,0.5c0.9,0.4,1.6,0.9,2.2,1.5
		c0.6,0.7,1.1,1.4,1.4,2.4c0.3,0.9,0.5,2,0.5,3.1c0,1.2-0.2,2.2-0.5,3.1c-0.3,0.9-0.8,1.7-1.4,2.4c-0.6,0.7-1.3,1.2-2.2,1.5
		C169.2,56.4,168.3,56.5,167.3,56.5z M167.3,53.3c0.8,0,1.4-0.4,1.7-1.2c0.4-0.8,0.5-1.8,0.5-3.1c0-1.3-0.2-2.3-0.5-3.1
		c-0.4-0.8-0.9-1.2-1.7-1.2c-0.8,0-1.4,0.4-1.7,1.2c-0.4,0.8-0.5,1.8-0.5,3.1s0.2,2.3,0.5,3.1S166.5,53.3,167.3,53.3z"/>
</g>
<polygon fill="#FFFFFF" points="53,41.4 53,7.6 33.9,7.6 33.9,41.4 18.3,41.4 43.5,74.5 68.7,41.4 "/>
<g>
	<g>
		<g>
			<g>
				<path fill="#7C7189" d="M232.4,82.4l-11.8-19.5V6.4c0-1.5-1.1-2.8-2.4-2.8h-15.5c-1.3,0-2.4,1.2-2.4,2.8v56.4l-11.8,19.5
					c-2.8,5.4-2.8,12.4-2.8,13.9v103.1c0,1.5,1.3,2.8,2.8,2.8h43.9c1.5,0,2.8-1.2,2.8-2.8V96.3C235.2,94.8,235.2,87.7,232.4,82.4z"
					/>
				<path fill="#665E73" d="M220.6,62.9V6.4c0-1.5-1.1-2.8-2.4-2.8H210v198.6h22.5c1.5,0,2.8-1.2,2.8-2.8V96.3c0-1.5,0-8.6-2.8-13.9
					L220.6,62.9z"/>
				<path fill="#483E46" d="M222.6,28.5c0,0.4-1.3,0.7-2.8,0.7h-18.5c-1.6,0-2.8-0.3-2.8-0.7V8.3c0-0.4,1.3-0.7,2.8-0.7h18.5
					c1.6,0,2.8,0.3,2.8,0.7V28.5z"/>
				<path fill="#342B32" d="M219.8,7.6H210v21.6h9.8c1.6,0,2.8-0.3,2.8-0.7V8.3C222.6,7.9,221.3,7.6,219.8,7.6z"/>
				<path fill="#FFFFFF" d="M220.6,9h-18.5c-1.6,0-2.8,0.3-2.8,0.7v0.4c0-0.4,1.3-0.7,2.8-0.7C202.1,9.5,222.2,9,220.6,9z"/>
				<rect x="188.9" y="108.2" fill="#FCF8E7" width="43.2" height="61.3"/>
			</g>
		</g>
		<g>
			<path fill="#91C0CB" d="M151,198.7c-2.2-4.6-3.7-15.9-3.7-32c0-15.1,1.4-18.2,3.4-21.4c13-3,22.9-18.6,22.9-37.4
				c0-2.5-0.2-5-0.5-7.4h-53.6c-0.4,2.4-0.5,4.9-0.5,7.4c0,18.9,9.9,34.5,22.9,37.4c2,3.2,3.4,6.3,3.4,21.4c0,16-1.6,27.4-3.7,32
				c-13.2,0.3-23.3,1.8-23.3,3.5h56.3C174.3,200.5,164.2,199,151,198.7z"/>
			<path fill="#79AFB7" d="M151,198.7c-2.2-4.6-3.7-15.9-3.7-32c0-15.1,1.4-18.2,3.4-21.4c13-3,22.9-18.6,22.9-37.4
				c0-2.5-0.2-5-0.5-7.4h-26.8v101.7h28.2C174.3,200.5,164.2,199,151,198.7z"/>
			<path fill="#FF5844" d="M123.4,110.5c0.2,17.1,10.5,31.5,22.8,31.5c12.2,0,22.6-14.4,22.8-31.5H123.4z"/>
			<path fill="#FF5844" d="M123.4,110.5c0.2,17.1,10.5,31.5,22.8,31.5c12.2,0,22.6-14.4,22.8-31.5H123.4z"/>
		</g>
	</g>
	<path fill="#D75D4A" d="M146.2,142c12.2,0,22.6-14.4,22.8-31.5h-22.8V142z"/>
	<rect x="210" y="108.2" fill="#E7E2CF" width="22.1" height="61.3"/>
</g>
<g>
	<g>
		<path fill="#FBF8E7" d="M92.7,127.7H71.4v9.1h21.3c3.8,0,6.8,3.1,6.8,6.8v25.6c0,3.8-3.1,6.8-6.8,6.8H71.4v9.1h21.3
			c8.8,0,16-7.2,16-16v-25.6C108.6,134.9,101.5,127.7,92.7,127.7z"/>
	</g>
	<path fill="#E5E1CF" d="M92.7,133.8H71.4v3h21.3c3.8,0,6.8,3.1,6.8,6.8v6.1v19.5v6.1c0,3.8-3.1,6.8-6.8,6.8H71.4v3h21.3
		c8.8,0,16-7.2,16-16v-19.5C108.6,141,101.5,133.8,92.7,133.8z"/>
	<path fill="#E0AA2D" d="M80,194.6c0,2.5-2.1,4.6-4.6,4.6H18.9c-2.5,0-4.6-2.1-4.6-4.6v-78.1c0-2.5,2.1-4.6,4.6-4.6h56.5
		c2.5,0,4.6,2,4.6,4.6V194.6z"/>
	<path fill="#FBF8E7" d="M64.1,197.6c0,2.6-1.1,4.7-2.4,4.7H32.6c-1.3,0-2.4-2.1-2.4-4.7v-81c0-2.6,1.1-4.7,2.4-4.7h29.2
		c1.3,0,2.4,2.1,2.4,4.7V197.6z"/>
	<path fill="#FAC845" d="M62.2,197.6c0,2.6-0.9,4.7-2.1,4.7h-26c-1.2,0-2.1-2.1-2.1-4.7v-81c0-2.6,0.9-4.7,2.1-4.7h26
		c1.2,0,2.1,2.1,2.1,4.7V197.6z"/>
	<path fill="#FBF8E7" d="M75.4,108.7H18.9c-4.3,0-7.8,3.5-7.8,7.8v78.1c0,4.3,3.5,7.8,7.8,7.8h56.5c4.3,0,7.8-3.5,7.8-7.8v-78.1
		C83.2,112.2,79.7,108.7,75.4,108.7z M80,194.6c0,2.5-2.1,4.6-4.6,4.6h-8c-5.5-1.9-12.5-3.1-20.2-3.1c-7.7,0-14.8,1.1-20.2,3.1h-8
		c-2.5,0-4.6-2.1-4.6-4.6v-78.1c0-2.5,2.1-4.6,4.6-4.6h56.5c2.5,0,4.6,2,4.6,4.6V194.6z"/>
	<g>
		<path fill="#E5E1CF" d="M78.8,122.3c3.3-2.1,5.5-6.1,5.5-10.6c0-6.7-4.8-12.2-10.7-12.2c-1.8,0-3.5,0.5-4.9,1.4
			c-2-2.7-4.9-4.5-8.3-4.5c-1.2,0-2.3,0.2-3.4,0.6c-1-5.5-5.3-9.7-10.5-9.7c-3.9,0-7.4,2.4-9.2,6.1c-0.5-0.1-0.9-0.1-1.4-0.1
			c-5.9,0-10.7,5.5-10.7,12.2c0,0.5,0,0.9,0.1,1.3c-0.2,0.1-0.3,0.2-0.5,0.3c-1.6-1-3.4-1.6-5.3-1.6c-5.9,0-10.7,5.5-10.7,12.2
			c0,1.1,0.1,2.2,0.4,3.2C4,121.7,0,126.8,0,132.9c0,2.9,0.9,5.6,2.4,7.7c-1.5,2.1-2.4,4.8-2.4,7.7c0,6.7,4.8,12.2,10.7,12.2
			c5.9,0,10.7-5.5,10.7-12.2c0-2.9-0.9-5.6-2.4-7.7c1.5-2.1,2.4-4.8,2.4-7.7c0-1.1-0.1-2.2-0.4-3.2c1.4-0.2,2.7-0.7,3.8-1.5
			c1.6,1,3.4,1.6,5.3,1.6c2.6,0,4.9-1,6.8-2.8c1.8,1.7,4.2,2.8,6.8,2.8c1.5,0,3-0.4,4.3-1c1.3,0.7,2.8,1,4.3,1c5,0,9.3-4,10.4-9.3
			c1-0.2,1.9-0.6,2.7-1.1c0.8,1.2,1.9,2.2,3.1,2.9c-3.3,2.1-5.5,6.1-5.5,10.6c0,6.7,4.8,12.2,10.7,12.2c5.9,0,10.7-5.5,10.7-12.2
			C84.3,128.3,82.1,124.3,78.8,122.3z"/>
		<path fill="#FBF8E7" d="M78.8,122.3c1.2-0.7,2.2-1.7,3-2.9c-1.6-1.1-3.5-1.8-5.5-1.8c-1.9,0-3.8,0.6-5.3,1.6
			c-0.2-0.1-0.3-0.2-0.5-0.3c0-0.4,0.1-0.9,0.1-1.3c0-6.7-4.8-12.2-10.7-12.2c-0.5,0-1,0-1.4,0.1c-1.8-3.6-5.3-6.1-9.2-6.1
			c-5.2,0-9.5,4.2-10.5,9.7c-1.1-0.4-2.2-0.6-3.4-0.6c-3.3,0-6.3,1.7-8.3,4.5c-1.5-0.9-3.2-1.4-4.9-1.4c-5.9,0-10.7,5.5-10.7,12.2
			c0,4.6,2.2,8.5,5.5,10.6c-3.3,2.1-5.5,6.1-5.5,10.6c0,5.3,2.9,9.7,7,11.4c1.8-2.2,2.8-5.1,2.8-8.2c0-2.9-0.9-5.6-2.4-7.7
			c1.5-2.1,2.4-4.8,2.4-7.7c0-1.1-0.1-2.2-0.4-3.2c1.4-0.2,2.7-0.7,3.8-1.5c1.6,1,3.4,1.6,5.3,1.6c2.6,0,4.9-1,6.8-2.8
			c1.8,1.7,4.2,2.8,6.8,2.8c1.5,0,3-0.4,4.3-1c1.3,0.7,2.8,1,4.3,1c5,0,9.3-4,10.4-9.3c1-0.2,1.9-0.6,2.7-1.1
			c0.8,1.2,1.9,2.2,3.1,2.9c-3.3,2.1-5.5,6.1-5.5,10.6c0,3.6,1.4,6.8,3.5,9c0,0,2.6,3.6,8,3.1c5.5-0.5,9.9-5.7,9.9-12.1
			C84.3,128.3,82.1,124.3,78.8,122.3z"/>
	</g>
	<path fill="#FAC845" d="M105.3,168.7c0,0.7-0.5,1.2-1.2,1.2l0,0c-0.7,0-1.2-0.6-1.2-1.2v-22.1c0-0.7,0.6-1.2,1.2-1.2l0,0
		c0.7,0,1.2,0.5,1.2,1.2V168.7z"/>
</g>
</svg>
