<?xml version="1.0" encoding="utf-8"?>
<!-- Generator: Adobe Illustrator 18.1.1, SVG Export Plug-In . SVG Version: 6.00 Build 0)  -->
<svg version="1.1" id="Layer_1" xmlns="http://www.w3.org/2000/svg" xmlns:xlink="http://www.w3.org/1999/xlink" x="0px" y="0px"
	 viewBox="0 0 342.2 294" enable-background="new 0 0 342.2 294" xml:space="preserve">
<circle fill="#212535" cx="162.6" cy="153.7" r="140.2"/>
<g opacity="0.23">
	<path d="M132.1,69.1c2.3,3.4,5.4,6.4,9.1,8.9c3.7,2.5,8,4.3,12.8,5.4c3.1,0.7,6.1,1.1,9.1,1.3c3,0.1,5.9-0.1,8.8-0.8l-1.1-7
		c-2.4,0.4-4.8,0.6-7.4,0.6c-2.6,0-5.1-0.3-7.7-1c-4.1-1-7.6-2.4-10.4-4.4c-2.8-2-5.1-4.3-6.7-7c-1.6-2.7-2.6-5.7-3-9
		c-0.4-3.3-0.2-6.8,0.7-10.4c1-4.4,2.7-8.2,5-11.3c2.3-3.1,4.9-5.6,7.9-7.4c3-1.8,6.3-2.9,9.9-3.4c3.6-0.5,7.2-0.3,11,0.6
		c3.7,0.9,6.9,2.1,9.8,3.8c2.9,1.7,5.2,3.8,6.9,6.2c1.8,2.5,2.9,5.3,3.5,8.6c0.5,3.3,0.4,6.9-0.6,10.8c-0.6,2.6-1.4,4.7-2.2,6.4
		c-0.9,1.7-1.8,3-2.8,3.9c-1,0.9-2,1.5-3,1.8c-1,0.3-1.9,0.3-2.8,0.1c-1.4-0.3-2.2-1-2.5-2.2c-0.3-1.1,0-2.6,0.7-4.4l7.7-21.4
		l-11.1-2.6l-1.7,4.8l-0.2,0c-0.3-2-1.1-3.7-2.3-5.1c-1.2-1.4-3-2.3-5.3-2.9c-2.4-0.6-4.7-0.6-6.9-0.1c-2.2,0.5-4.2,1.5-5.9,2.9
		c-1.8,1.4-3.3,3.2-4.6,5.5c-1.3,2.2-2.3,4.8-2.9,7.6c-1.1,4.9-0.9,9.1,0.9,12.5c1.7,3.4,4.6,5.6,8.7,6.5c2.4,0.6,4.7,0.5,6.7-0.2
		c2-0.7,3.9-1.9,5.5-3.6l0.2,0c0.4,2.5,1.5,4.5,3.3,6c1.8,1.5,4.2,2.6,7.1,3.3c2.4,0.6,4.8,0.6,7,0.1c2.2-0.5,4.3-1.4,6.1-2.9
		c1.9-1.4,3.5-3.4,4.9-5.8c1.4-2.4,2.5-5.3,3.3-8.8c1.1-4.9,1.3-9.5,0.4-13.7c-0.9-4.2-2.5-7.9-4.9-11.2c-2.4-3.3-5.4-6-9.1-8.3
		c-3.7-2.3-7.7-3.9-12.1-4.9c-4.5-1.1-9.1-1.3-13.7-0.8c-4.6,0.5-8.9,1.9-12.9,4.1c-4,2.2-7.5,5.2-10.5,9.1c-3,3.9-5.2,8.6-6.5,14.3
		c-1.1,4.8-1.3,9.4-0.5,13.7C128.2,61.8,129.8,65.6,132.1,69.1z M168.4,50.1c-0.7,3.1-2,5.5-3.7,7.2c-1.8,1.7-3.7,2.3-5.9,1.7
		c-1.7-0.4-2.8-1.4-3.3-3c-0.5-1.6-0.5-3.5,0-5.6c0.3-1.5,0.8-2.8,1.5-4c0.6-1.2,1.4-2.3,2.2-3.1c0.8-0.8,1.7-1.4,2.7-1.8
		c1-0.3,2-0.4,3.1-0.1c1.7,0.4,2.9,1.4,3.4,3.1C168.9,46.1,168.9,47.9,168.4,50.1z"/>
	<polygon points="221.3,43.1 224.5,29.4 210.9,26.2 207.7,39.9 205.2,66 212,67.6 	"/>
	<rect x="198.8" y="71.9" transform="matrix(-0.2274 0.9738 -0.9738 -0.2274 329.4703 -103.4973)" width="14" height="14.2"/>
	<path d="M269.9,69.5c-2,0.3-3.8,1.1-5.5,2.2c-1.7,1.1-3.1,2.6-4.3,4.4c-1.2,1.8-2.1,3.9-2.7,6.4c-0.6,2.5-0.7,4.8-0.4,7
		c0.3,2.2,0.9,4.1,1.9,5.9c1,1.7,2.3,3.2,3.9,4.4c1.6,1.2,3.5,2,5.6,2.5c2.2,0.5,4.2,0.6,6.3,0.3c2-0.3,3.8-1.1,5.5-2.2
		c1.7-1.1,3.1-2.6,4.3-4.4c1.2-1.8,2.1-4,2.7-6.5c0.6-2.5,0.7-4.8,0.5-7c-0.3-2.2-0.9-4.1-1.8-5.8c-1-1.7-2.3-3.2-3.9-4.3
		c-1.7-1.2-3.6-2-5.8-2.6C274,69.2,271.9,69.2,269.9,69.5z M277.6,80.1c0.4,1.9,0.2,4.3-0.4,7c-0.6,2.8-1.5,4.9-2.7,6.4
		c-1.2,1.5-2.6,2.1-4.3,1.7c-1.7-0.4-2.8-1.5-3.1-3.4c-0.4-1.9-0.2-4.2,0.4-7c0.6-2.8,1.5-4.9,2.7-6.5c1.2-1.6,2.6-2.1,4.3-1.7
		C276.2,77,277.2,78.2,277.6,80.1z"/>
	<polygon points="238.9,93.9 281.9,45.3 274.2,43.5 231.4,92.1 	"/>
	<path d="M227.5,61c1,1.7,2.3,3.2,3.9,4.4c1.6,1.2,3.5,2,5.6,2.5c2.2,0.5,4.2,0.6,6.2,0.3c2-0.3,3.8-1.1,5.5-2.2
		c1.7-1.1,3.1-2.6,4.3-4.4c1.2-1.8,2.1-4,2.6-6.4c0.6-2.5,0.7-4.8,0.5-7c-0.3-2.2-0.9-4.1-1.8-5.8c-1-1.7-2.3-3.2-3.9-4.4
		c-1.7-1.2-3.6-2.1-5.7-2.6c-2.2-0.5-4.2-0.6-6.2-0.2c-2,0.4-3.8,1.1-5.5,2.2c-1.7,1.1-3.1,2.6-4.3,4.4c-1.2,1.8-2.1,4-2.7,6.5
		c-0.6,2.4-0.7,4.7-0.4,6.9C225.8,57.3,226.5,59.2,227.5,61z M235.9,50.5c0.6-2.8,1.5-4.9,2.7-6.5c1.2-1.6,2.6-2.2,4.3-1.8
		c1.7,0.4,2.8,1.6,3.1,3.5c0.3,1.9,0.2,4.3-0.4,7c-0.6,2.8-1.5,4.9-2.7,6.4c-1.1,1.5-2.6,2-4.3,1.6c-1.7-0.4-2.8-1.5-3.1-3.4
		C235.2,55.5,235.3,53.2,235.9,50.5z"/>
	<path d="M292.5,106.4l8.4,2l5.5-13.5l8.3,1.9l-5.5,13.5l8.4,2l5.5-13.5l7.5,1.7l4.1-9.8l-7.5-1.7l3.2-7.8l7.5,1.8l4.2-9.8l-7.6-1.8
		l5.2-12.5l-8.4-2l-5.2,12.5l-8.3-2l5.2-12.5l-8.4-2l-5.2,12.5l-7.5-1.7l-4.2,9.8l7.5,1.8l-3.2,7.8l-7.5-1.7l-4.2,9.8l7.5,1.8
		L292.5,106.4z M313.7,77.2l8.3,1.9l-3.2,7.8l-8.3-2L313.7,77.2z"/>
	<path d="M338.6,183.3h-1.3v-6.5l-4.5-2.5c0,0-0.2-12.7-0.9-15.7c-0.7-3-5-3.6-5-3.6l-0.3-0.1l-0.2-3.5l0.5,0l-0.3-5l-2.1,0.1l0.3,5
		l0.5,0l0.2,3.1l-70.9-16.8c0,0-22.8-19.8-31.9-22.8c-9.1-3-83.8-2.7-90.1-1.4c-6.4,1.4-40.1,25.5-40.1,25.5s-8.3,1.2-16.5,2.5
		L64.2,95l-1.1,0.2l0.6,2.3l-42.5,10.1l2,8.5l2,8.5h0l2,8.4L70,122.8l4.8,19.1c-7,1.1-13.8,2.1-15.1,2.4c-2.6,0.6-2.6,2.8-2.3,7.2
		l1,13.1l-5.2,5.5v2.3l-0.7-0.2c-0.9-0.3-1.8,0.3-2.1,1.2l-2.8,9.8c-0.3,0.9,0.3,1.8,1.2,2.1l42.6,11.8c0.5,0,1.3,0.1,2,0h5
		c0.6,11.5,10.1,20.6,21.7,20.6c11.6,0,21.1-9.1,21.7-20.6h6.9c0,0,0-0.1,0-0.1l73.5-0.1h14.8h9.3c0.5,11.5,10.1,20.8,21.7,20.8
		c11.7,0,21.2-9.2,21.7-20.8h9.3h39.5c0.8,0,1.5-0.7,1.5-1.5v-10.6C340.1,184,339.4,183.3,338.6,183.3z"/>
</g>
<g>
	<g>
		<rect x="0.4" y="86.3" transform="matrix(0.9731 -0.2304 0.2304 0.9731 -20.2822 7.6099)" width="44.1" height="8.7"/>
		
			<rect x="2.4" y="94.8" transform="matrix(0.9731 -0.2304 0.2304 0.9731 -22.1812 8.3003)" fill="#DD0000" width="44.1" height="8.7"/>
		
			<rect x="4.4" y="103.2" transform="matrix(0.9731 -0.2304 0.2304 0.9731 -24.0651 8.9852)" fill="#FFCE00" width="44.1" height="8.7"/>
	</g>
	<polygon fill="#231F20" points="58.3,139.6 57.2,139.8 41.9,79.1 43,78.9 	"/>
	
		<rect x="304.2" y="135.2" transform="matrix(0.9977 -6.739769e-02 6.739769e-02 0.9977 -8.5813 20.8518)" fill="#919191" width="1" height="4.7"/>
	
		<rect x="303.4" y="130.4" transform="matrix(0.9977 -6.739769e-02 6.739769e-02 0.9977 -8.2636 20.8196)" fill="#D3D7E8" width="2.1" height="5"/>
	<g>
		<path fill="#FFA700" d="M132.8,67.3c-4.8-1.1-9.1-2.9-12.8-5.4c-3.7-2.5-6.8-5.4-9.1-8.9c-2.3-3.4-3.9-7.3-4.6-11.6
			c-0.8-4.3-0.6-8.9,0.5-13.7c1.3-5.6,3.5-10.4,6.5-14.3c3-3.9,6.5-6.9,10.5-9.1c4-2.2,8.3-3.5,12.9-4.1c4.6-0.5,9.2-0.3,13.7,0.8
			c4.4,1,8.5,2.7,12.1,4.9c3.7,2.3,6.7,5,9.1,8.3c2.4,3.3,4,7,4.9,11.2c0.9,4.2,0.8,8.8-0.4,13.7c-0.8,3.4-1.9,6.3-3.3,8.8
			c-1.4,2.4-3.1,4.4-4.9,5.8c-1.9,1.4-3.9,2.4-6.1,2.9c-2.2,0.5-4.5,0.4-7-0.1c-2.9-0.7-5.3-1.8-7.1-3.3c-1.8-1.5-2.9-3.5-3.3-6
			l-0.2,0c-1.7,1.7-3.5,2.9-5.5,3.6c-2,0.7-4.3,0.8-6.7,0.2c-4.1-1-7-3.1-8.7-6.5c-1.7-3.4-2-7.5-0.9-12.5c0.7-2.8,1.6-5.3,2.9-7.6
			c1.3-2.2,2.8-4.1,4.6-5.5c1.8-1.4,3.7-2.4,5.9-2.9c2.2-0.5,4.5-0.5,6.9,0.1c2.3,0.5,4.1,1.5,5.3,2.9c1.2,1.4,2,3.1,2.3,5.1l0.2,0
			l1.7-4.8l11.1,2.6l-7.7,21.4c-0.7,1.8-0.9,3.3-0.7,4.4c0.3,1.1,1.1,1.8,2.5,2.2c0.9,0.2,1.8,0.2,2.8-0.1c1-0.3,2-0.9,3-1.8
			c1-0.9,1.9-2.2,2.8-3.9c0.9-1.7,1.6-3.9,2.2-6.4c0.9-3.9,1.1-7.5,0.6-10.8c-0.5-3.3-1.7-6.1-3.5-8.6c-1.8-2.5-4.1-4.5-6.9-6.2
			c-2.9-1.7-6.1-3-9.8-3.8c-3.7-0.9-7.4-1.1-11-0.6c-3.6,0.5-6.9,1.6-9.9,3.4c-3,1.8-5.7,4.3-7.9,7.4c-2.3,3.1-3.9,6.9-5,11.3
			c-0.8,3.6-1.1,7.1-0.7,10.4c0.4,3.3,1.4,6.3,3,9c1.6,2.7,3.8,5.1,6.7,7c2.8,2,6.3,3.4,10.4,4.4c2.6,0.6,5.2,0.9,7.7,1
			c2.6,0,5-0.2,7.4-0.6l1.1,7c-2.9,0.6-5.8,0.9-8.8,0.8C138.9,68.4,135.9,68,132.8,67.3z M137.6,42.9c2.2,0.5,4.1-0.1,5.9-1.7
			c1.8-1.7,3-4.1,3.7-7.2c0.5-2.1,0.5-4-0.1-5.6c-0.6-1.6-1.7-2.7-3.4-3.1c-1.1-0.3-2.1-0.2-3.1,0.1c-1,0.3-1.9,0.9-2.7,1.8
			c-0.8,0.8-1.5,1.9-2.2,3.1c-0.6,1.2-1.1,2.6-1.5,4c-0.5,2.1-0.5,4,0,5.6C134.8,41.5,135.9,42.5,137.6,42.9z"/>
		<path fill="#67C8CF" d="M179.3,54.4l13.8,3.2l-3.2,13.6l-13.8-3.2L179.3,54.4z M186.5,23.8l3.2-13.7l13.6,3.2L200.1,27l-9.3,24.5
			l-6.8-1.6L186.5,23.8z"/>
		<path fill="#5163BF" d="M215.8,51.8c-2.1-0.5-4-1.3-5.6-2.5c-1.6-1.2-2.9-2.6-3.9-4.4c-1-1.7-1.6-3.7-1.9-5.9
			c-0.3-2.2-0.2-4.5,0.4-6.9c0.6-2.5,1.5-4.6,2.7-6.5c1.2-1.8,2.6-3.3,4.3-4.4s3.5-1.8,5.5-2.2c2-0.4,4.1-0.3,6.2,0.2
			c2.2,0.5,4.1,1.4,5.7,2.6c1.7,1.2,3,2.7,3.9,4.4c1,1.7,1.6,3.6,1.8,5.8c0.3,2.2,0.1,4.5-0.5,7c-0.6,2.4-1.4,4.6-2.6,6.4
			c-1.2,1.8-2.6,3.3-4.3,4.4c-1.7,1.1-3.5,1.9-5.5,2.2C220,52.4,218,52.3,215.8,51.8z M253,27.4l7.6,1.8l-43,48.6l-7.5-1.8L253,27.4
			z M217.4,44.7c1.7,0.4,3.2-0.1,4.3-1.6c1.1-1.5,2-3.6,2.7-6.4c0.6-2.8,0.8-5.1,0.4-7c-0.3-1.9-1.4-3.1-3.1-3.5
			c-1.7-0.4-3.2,0.2-4.3,1.8c-1.2,1.6-2.1,3.7-2.7,6.5c-0.6,2.7-0.8,5-0.4,6.9C214.7,43.2,215.7,44.3,217.4,44.7z M247.3,86.1
			c-2.1-0.5-4-1.3-5.6-2.5c-1.6-1.2-2.9-2.6-3.9-4.4c-1-1.7-1.6-3.7-1.9-5.9c-0.3-2.2-0.1-4.5,0.4-7c0.6-2.4,1.5-4.6,2.7-6.4
			c1.2-1.8,2.7-3.3,4.3-4.4c1.7-1.1,3.5-1.9,5.5-2.2c2-0.3,4-0.3,6.1,0.2c2.2,0.5,4.2,1.4,5.8,2.6c1.7,1.2,3,2.6,3.9,4.3
			c1,1.7,1.6,3.6,1.8,5.8c0.3,2.2,0.1,4.5-0.5,7c-0.6,2.5-1.5,4.6-2.7,6.5c-1.2,1.8-2.6,3.3-4.3,4.4c-1.7,1.1-3.5,1.8-5.5,2.2
			C251.5,86.7,249.4,86.6,247.3,86.1z M249,79.1c1.7,0.4,3.2-0.2,4.3-1.7c1.2-1.5,2.1-3.7,2.7-6.4c0.6-2.7,0.8-5,0.4-7
			c-0.4-1.9-1.4-3.1-3.1-3.5c-1.7-0.4-3.2,0.2-4.3,1.7c-1.2,1.6-2.1,3.7-2.7,6.5c-0.6,2.8-0.8,5.1-0.4,7
			C246.2,77.6,247.3,78.7,249,79.1z"/>
		<path fill="#32ABDF" d="M276.8,76.8l-7.5-1.8l4.2-9.8l7.5,1.7l3.2-7.8l-7.5-1.8l4.2-9.8l7.5,1.7l5.2-12.5l8.4,2l-5.2,12.5l8.3,2
			l5.2-12.5l8.4,2l-5.2,12.5L321,57l-4.2,9.8l-7.5-1.8l-3.2,7.8l7.5,1.7l-4.1,9.8l-7.5-1.7l-5.5,13.5l-8.4-2l5.5-13.5l-8.3-1.9
			l-5.5,13.5l-8.4-2L276.8,76.8z M297.7,70.9l3.2-7.8l-8.3-1.9l-3.2,7.8L297.7,70.9z"/>
	</g>
	<path fill="#D3D7E8" d="M36.2,135.5c-0.3-4.4-0.3-6.6,2.3-7.2c2.9-0.6,32.8-5.1,32.8-5.1S105,99,111.4,97.7
		c6.4-1.4,81-1.6,90.1,1.4c9.1,3,31.9,22.8,31.9,22.8l72.2,17.1c0,0,4.3,0.7,5,3.6c0.7,3,0.9,15.7,0.9,15.7l4.5,2.5v7.2
		c0,0,2.3,0,2.7,1.6s-3.6,11.1-7.2,11.1L70.2,181L32,167.6V154l5.2-5.5L36.2,135.5z"/>
	<path fill="#FFFFFF" d="M307.9,151.7l-0.8-7c-0.1-0.7-0.6-1.4-1.3-1.6l-12-3.4c-1.3-0.4-2.6,0.8-2.3,2.1l1.4,7.4
		c0.1,0.7,0.7,1.3,1.4,1.5l11.5,3C306.9,154,308.1,153,307.9,151.7z"/>
	<path fill="#B5B8C7" d="M78.6,180.8h238.8c0.8,0,1.5-0.7,1.5-1.5v-10.6c0-0.8-0.7-1.5-1.5-1.5H78.6c-0.8,0-1.5,0.7-1.5,1.5v10.6
		C77.1,180.1,77.8,180.8,78.6,180.8z"/>
	<path fill="#B5B8C7" d="M27.6,169.1L70.2,181c0.9,0,3,0.3,3.2-0.7l2.8-9.8c0.3-0.9-0.3-1.8-1.2-2.1l-43.7-12.4
		c-0.9-0.3-1.8,0.3-2.1,1.2l-2.8,9.8C26.2,167.9,26.7,168.9,27.6,169.1z"/>
	<path fill="#919191" d="M246.9,149.8c-17.1,0-31,13.9-31,31h62C277.9,163.7,264,149.8,246.9,149.8z"/>
	<path fill="#919191" d="M98.9,152.3c-15.8,0-28.7,12.8-28.7,28.7h57.3C127.5,165.2,114.7,152.3,98.9,152.3z"/>
	<path fill="#231F20" d="M98.9,201.6c12,0,21.8-9.8,21.8-21.8c0-12-9.8-21.7-21.8-21.7c-12,0-21.7,9.8-21.7,21.7
		C77.1,191.8,86.9,201.6,98.9,201.6z"/>
	<path fill="#FFFFFF" d="M98.9,195.8c8.8,0,16-7.2,16-16c0-8.8-7.2-16-16-16c-8.8,0-16,7.2-16,16C82.9,188.7,90,195.8,98.9,195.8z"
		/>
	<path fill="#231F20" d="M98.9,191.3c6.3,0,11.5-5.1,11.5-11.5c0-6.3-5.1-11.5-11.5-11.5c-6.3,0-11.5,5.1-11.5,11.5
		C87.4,186.1,92.6,191.3,98.9,191.3z"/>
	<path fill="#231F20" d="M246.9,201.6c12,0,21.8-9.8,21.8-21.8c0-12-9.8-21.7-21.8-21.7c-12,0-21.7,9.8-21.7,21.7
		C225.1,191.8,234.9,201.6,246.9,201.6z"/>
	<path fill="#FFFFFF" d="M246.9,195.8c8.8,0,16-7.2,16-16c0-8.8-7.2-16-16-16c-8.8,0-16,7.2-16,16
		C230.8,188.7,238,195.8,246.9,195.8z"/>
	<path fill="#231F20" d="M246.9,191.3c6.3,0,11.5-5.1,11.5-11.5c0-6.3-5.1-11.5-11.5-11.5c-6.3,0-11.5,5.1-11.5,11.5
		C235.4,186.1,240.5,191.3,246.9,191.3z"/>
	<path fill="#E53C6D" d="M38.8,144.4l-0.4-6.5c-0.1-1.4,0.8-2.7,2.3-3l8.1,0.1c1.8-0.4,3.5,1,3.5,2.8v3.9c0,1.3-0.8,2.4-2,2.8
		l-7.7,2.4C40.8,147.5,38.9,146.3,38.8,144.4z"/>
	<path fill="#231F20" d="M87.6,125.6l26.7-21.9c0.3-0.3,0.7-0.4,1.1-0.4h78.7c0.4,0,0.7,0.1,1,0.4l32.9,25.4c1.3,1,0.6,3.1-1.1,3.1
		l-138.3-3.5C87.1,128.6,86.4,126.6,87.6,125.6z"/>
	<rect x="154.2" y="101.7" fill="#D3D7E8" width="3.7" height="33.2"/>
	<path opacity="0.4" fill="#7A7A7A" d="M295.3,140.2l-1.5-0.4c-1.3-0.4-2.6,0.8-2.3,2.1l1.4,7.4c0.1,0.7,0.7,1.3,1.4,1.5l2.1,0.6
		L295.3,140.2z"/>
	<path fill="#F5773E" d="M292.1,145.4l0.7,3.9c0.1,0.7,0.7,1.3,1.4,1.5l2.1,0.6l-0.5-5.2L292.1,145.4z"/>
	<g opacity="0.5">
		<polygon fill="#FFFFFF" points="180.4,129.7 184.6,129.7 163.6,104.7 159.4,104.7 		"/>
		<polygon fill="#FFFFFF" points="168.7,104.7 191.5,129.9 199.1,130.1 176.3,104.7 		"/>
	</g>
	<path fill="#E9EEFF" d="M173.5,141h-9.2c-0.4,0-0.7-0.3-0.7-0.7v-1.9c0-0.4,0.3-0.7,0.7-0.7h9.2c0.4,0,0.7,0.3,0.7,0.7v1.9
		C174.2,140.6,173.9,141,173.5,141z"/>
	<path fill="#E9EEFF" d="M118,141h-9.2c-0.4,0-0.7-0.3-0.7-0.7v-1.9c0-0.4,0.3-0.7,0.7-0.7h9.2c0.4,0,0.7,0.3,0.7,0.7v1.9
		C118.8,140.6,118.4,141,118,141z"/>
</g>
</svg>
