<?xml version="1.0" encoding="utf-8"?>
<!-- Generator: Adobe Illustrator 18.1.1, SVG Export Plug-In . SVG Version: 6.00 Build 0)  -->
<svg version="1.1" id="Layer_1" xmlns="http://www.w3.org/2000/svg" xmlns:xlink="http://www.w3.org/1999/xlink" x="0px" y="0px"
	 viewBox="0 0 1804.8 110" enable-background="new 0 0 1804.8 110" xml:space="preserve">
<g opacity="0.15">
	<g>
		<rect x="10" y="20" width="1794.8" height="90"/>
	</g>
</g>
<g>
	<g>
		<rect fill="#4F5469" width="1794.8" height="90"/>
	</g>
</g>
<g>
	<g>
		<path fill="#4B4F63" d="M1794.8,90h-50V0h50V90z M1694.8,90h-50V0h50V90z M1594.8,90h-50V0h50V90z M1494.8,90h-50V0h50V90z
			 M1394.8,90h-50V0h50V90z M1294.8,90h-50V0h50V90z M1194.8,90h-50V0h50V90z M1094.8,90h-50V0h50V90z M994.8,90h-50V0h50V90z
			 M894.8,90h-50V0h50V90z M794.8,90h-50V0h50V90z M694.8,90h-50V0h50V90z M594.8,90h-50V0h50V90z M494.8,90h-50V0h50V90z M394.8,90
			h-50V0h50V90z M294.8,90h-50V0h50V90z M194.8,90h-50V0h50V90z M94.8,90h-50V0h50V90z"/>
	</g>
</g>
<g>
	<path fill="#FFFFFF" d="M1794.8,47h-20c-1.1,0-2-0.9-2-2s0.9-2,2-2h20c1.1,0,2,0.9,2,2S1795.9,47,1794.8,47z M1744.8,47h-20
		c-1.1,0-2-0.9-2-2s0.9-2,2-2h20c1.1,0,2,0.9,2,2S1745.9,47,1744.8,47z M1694.8,47h-20c-1.1,0-2-0.9-2-2s0.9-2,2-2h20
		c1.1,0,2,0.9,2,2S1695.9,47,1694.8,47z M1644.8,47h-20c-1.1,0-2-0.9-2-2s0.9-2,2-2h20c1.1,0,2,0.9,2,2S1645.9,47,1644.8,47z
		 M1594.8,47h-20c-1.1,0-2-0.9-2-2s0.9-2,2-2h20c1.1,0,2,0.9,2,2S1595.9,47,1594.8,47z M1544.8,47h-20c-1.1,0-2-0.9-2-2s0.9-2,2-2
		h20c1.1,0,2,0.9,2,2S1545.9,47,1544.8,47z M1494.8,47h-20c-1.1,0-2-0.9-2-2s0.9-2,2-2h20c1.1,0,2,0.9,2,2S1495.9,47,1494.8,47z
		 M1444.8,47h-20c-1.1,0-2-0.9-2-2s0.9-2,2-2h20c1.1,0,2,0.9,2,2S1445.9,47,1444.8,47z M1394.8,47h-20c-1.1,0-2-0.9-2-2s0.9-2,2-2
		h20c1.1,0,2,0.9,2,2S1395.9,47,1394.8,47z M1344.8,47h-20c-1.1,0-2-0.9-2-2s0.9-2,2-2h20c1.1,0,2,0.9,2,2S1345.9,47,1344.8,47z
		 M1294.8,47h-20c-1.1,0-2-0.9-2-2s0.9-2,2-2h20c1.1,0,2,0.9,2,2S1295.9,47,1294.8,47z M1244.8,47h-20c-1.1,0-2-0.9-2-2s0.9-2,2-2
		h20c1.1,0,2,0.9,2,2S1245.9,47,1244.8,47z M1194.8,47h-20c-1.1,0-2-0.9-2-2s0.9-2,2-2h20c1.1,0,2,0.9,2,2S1195.9,47,1194.8,47z
		 M1144.8,47h-20c-1.1,0-2-0.9-2-2s0.9-2,2-2h20c1.1,0,2,0.9,2,2S1145.9,47,1144.8,47z M1094.8,47h-20c-1.1,0-2-0.9-2-2s0.9-2,2-2
		h20c1.1,0,2,0.9,2,2S1095.9,47,1094.8,47z M1044.8,47h-20c-1.1,0-2-0.9-2-2s0.9-2,2-2h20c1.1,0,2,0.9,2,2S1045.9,47,1044.8,47z
		 M994.8,47h-20c-1.1,0-2-0.9-2-2s0.9-2,2-2h20c1.1,0,2,0.9,2,2S995.9,47,994.8,47z M944.8,47h-20c-1.1,0-2-0.9-2-2s0.9-2,2-2h20
		c1.1,0,2,0.9,2,2S945.9,47,944.8,47z M894.8,47h-20c-1.1,0-2-0.9-2-2s0.9-2,2-2h20c1.1,0,2,0.9,2,2S895.9,47,894.8,47z M844.8,47
		h-20c-1.1,0-2-0.9-2-2s0.9-2,2-2h20c1.1,0,2,0.9,2,2S845.9,47,844.8,47z M794.8,47h-20c-1.1,0-2-0.9-2-2s0.9-2,2-2h20
		c1.1,0,2,0.9,2,2S795.9,47,794.8,47z M744.8,47h-20c-1.1,0-2-0.9-2-2s0.9-2,2-2h20c1.1,0,2,0.9,2,2S745.9,47,744.8,47z M694.8,47
		h-20c-1.1,0-2-0.9-2-2s0.9-2,2-2h20c1.1,0,2,0.9,2,2S695.9,47,694.8,47z M644.8,47h-20c-1.1,0-2-0.9-2-2s0.9-2,2-2h20
		c1.1,0,2,0.9,2,2S645.9,47,644.8,47z M594.8,47h-20c-1.1,0-2-0.9-2-2s0.9-2,2-2h20c1.1,0,2,0.9,2,2S595.9,47,594.8,47z M544.8,47
		h-20c-1.1,0-2-0.9-2-2s0.9-2,2-2h20c1.1,0,2,0.9,2,2S545.9,47,544.8,47z M494.8,47h-20c-1.1,0-2-0.9-2-2s0.9-2,2-2h20
		c1.1,0,2,0.9,2,2S495.9,47,494.8,47z M444.8,47h-20c-1.1,0-2-0.9-2-2s0.9-2,2-2h20c1.1,0,2,0.9,2,2S445.9,47,444.8,47z M394.8,47
		h-20c-1.1,0-2-0.9-2-2s0.9-2,2-2h20c1.1,0,2,0.9,2,2S395.9,47,394.8,47z M344.8,47h-20c-1.1,0-2-0.9-2-2s0.9-2,2-2h20
		c1.1,0,2,0.9,2,2S345.9,47,344.8,47z M294.8,47h-20c-1.1,0-2-0.9-2-2s0.9-2,2-2h20c1.1,0,2,0.9,2,2S295.9,47,294.8,47z M244.8,47
		h-20c-1.1,0-2-0.9-2-2s0.9-2,2-2h20c1.1,0,2,0.9,2,2S245.9,47,244.8,47z M194.8,47h-20c-1.1,0-2-0.9-2-2s0.9-2,2-2h20
		c1.1,0,2,0.9,2,2S195.9,47,194.8,47z M144.8,47h-20c-1.1,0-2-0.9-2-2s0.9-2,2-2h20c1.1,0,2,0.9,2,2S145.9,47,144.8,47z M94.8,47
		h-20c-1.1,0-2-0.9-2-2s0.9-2,2-2h20c1.1,0,2,0.9,2,2S95.9,47,94.8,47z M44.8,47h-20c-1.1,0-2-0.9-2-2s0.9-2,2-2h20c1.1,0,2,0.9,2,2
		S45.9,47,44.8,47z"/>
</g>
</svg>
