<?xml version="1.0" encoding="utf-8"?>
<!-- Generator: Adobe Illustrator 18.1.1, SVG Export Plug-In . SVG Version: 6.00 Build 0)  -->
<svg version="1.1" id="Layer_1" xmlns="http://www.w3.org/2000/svg" xmlns:xlink="http://www.w3.org/1999/xlink" x="0px" y="0px"
	 viewBox="0 0 307.8 320.2" enable-background="new 0 0 307.8 320.2" xml:space="preserve">
<circle fill="#212535" cx="167.5" cy="180" r="140.2"/>
<g opacity="0.23">
	<rect x="61.3" y="30.1" transform="matrix(0.2267 0.974 -0.974 0.2267 104.1926 -50.9074)" width="45.8" height="20.1"/>
	<path d="M223.8,181l9.3-2.3l-10-0.4c-0.7-1.3-1.8-2.3-3.2-2.8v-2.2l0.5-9.1l-0.5,1.5v-7.4c0-4.3-1.3-11-2.8-15l-2.2-5.6
		c-0.6-1.4-1.5-2.8-2.7-3.9l-0.7-1.9l4.8-1.6c3-1,5.5-4.5,5.5-7.7v-3.9c0-3.2-2.6-5.8-5.8-5.8h-5.8c-1.9,0-3.6,0.9-4.6,2.3L196,88.6
		c-0.4-1.1-0.9-2.2-1.5-3.2l1.6,0.8l-2.8-2.6c-1.7-2.3-3.9-4.3-6.3-5.9l-3.9-3.6c0,0,0-0.1,0-0.1c0-0.5-0.1-0.9-0.2-1.3l12.1-13.2
		l-15.2,9.2c-0.4-0.2-0.9-0.4-1.3-0.4l-9.2-15.9l4.3,17.1c-0.6,0.5-1.2,1.2-1.5,1.9L158.1,74H81.8c-8.6,0-17.9,6.6-20.8,14.6
		l-9.5,26.6c-0.4-0.5-0.9-1-1.5-1.4l-9.5-40l19.4-4.5l19.6-4.6L69.1,20.1l-19.6,4.6L30,29.2l-0.4-1.9l-1.3,0.2l20.2,85.5
		c-0.5-0.2-1.1-0.3-1.7-0.3H41c-3.2,0-5.8,2.6-5.8,5.8v3.9c0,3.2,2.5,6.7,5.5,7.7l4.8,1.6l-0.7,1.9c-1.2,1.1-2.2,2.5-2.7,3.9
		l-1.2,3.1l-12-14.5l9.7,21.6c-0.4,1.7-0.8,3.5-1,5.3l-23.2,8.5l22.8-1.7V176c-1.2-0.1-1.9,0.9-1.9,3v11.7c0,3.2,0.8,8.3,1.7,11.4
		l4.1,13.4v18c0,5.3,4.4,9.7,9.7,9.7h11.7c5.3,0,9.7-4.4,9.7-9.7v-11.7h112.8v11.7c0,5.3,4.4,9.7,9.7,9.7h11.7
		c5.3,0,9.7-4.4,9.7-9.7v-18l4.1-13.4c0.8-2.5,1.4-6.3,1.6-9.4l1.4,2.5l-1.4-5.5v-4.4C223.1,184.2,223.8,182.7,223.8,181z"/>
</g>
<g>
	
		<rect x="20.6" y="10.8" transform="matrix(0.974 -0.2267 0.2267 0.974 -6.846 7.8213)" fill="#0132CD" width="20.1" height="45.8"/>
	
		<rect x="40.2" y="6.3" transform="matrix(0.974 -0.2267 0.2267 0.974 -5.3008 12.148)" fill="#FFFF01" width="20.1" height="45.8"/>
	
		<rect x="59.8" y="1.7" transform="matrix(0.974 -0.2267 0.2267 0.974 -3.7549 16.4767)" fill="#FD0002" width="20.1" height="45.8"/>
</g>
<polygon fill="#231F20" points="37,103.8 35.7,104 14,12 15.3,11.8 "/>
<path fill="#232B33" d="M57.8,217.9c0,5.3-4.4,9.7-9.7,9.7H36.4c-5.3,0-9.7-4.4-9.7-9.7v-27.2c0-5.3,4.4-9.7,9.7-9.7h11.7
	c5.3,0,9.7,4.4,9.7,9.7V217.9z"/>
<path fill="#232B33" d="M201.8,217.9c0,5.3-4.4,9.7-9.7,9.7h-11.7c-5.3,0-9.7-4.4-9.7-9.7v-25.3c0-5.3,4.4-9.7,9.7-9.7H192
	c5.3,0,9.7,4.4,9.7,9.7V217.9z"/>
<path fill="#3C81A1" d="M207.6,107c0,3.2-2.5,6.7-5.5,7.7l-6.4,2.1c-3,1-5.5-0.8-5.5-4v-9.7c0-3.2,2.6-5.8,5.8-5.8h5.8
	c3.2,0,5.8,2.6,5.8,5.8V107z"/>
<path fill="#51ABD6" d="M20.9,107c0,3.2,2.5,6.7,5.5,7.7l6.4,2.1c3,1,5.5-0.8,5.5-4v-9.7c0-3.2-2.6-5.8-5.8-5.8h-5.8
	c-3.2,0-5.8,2.6-5.8,5.8V107z"/>
<path fill="#4695BA" d="M202.9,127.6l-2.2-5.6c-0.6-1.4-1.5-2.8-2.7-3.9L181.7,73c-2.9-8.1-12.3-14.6-20.8-14.6H67.6
	C59,58.4,49.6,65,46.7,73l-16.2,45.1c-1.2,1.1-2.2,2.5-2.7,3.9l-2.2,5.6c-1.5,4-2.8,10.8-2.8,15v24.6c0,4.3,3.5,7.8,7.8,7.8h167.3
	c4.3,0,7.8-3.5,7.8-7.8v-24.6C205.7,138.4,204.4,131.6,202.9,127.6z"/>
<path fill="#232B33" d="M183.2,106c0.6,2.7-1.6,4.9-4.8,4.9s-12.8,0-21.4,0H71.4c-8.6,0-18.2,0-21.4,0c-3.2,0-5.4-2.2-4.8-4.9
	c0.6-2.7,2.5-11.7,4.4-20.1l1-4.6c1.8-8.4,10.3-15.2,18.9-15.2H159c8.6,0,17,6.8,18.9,15.2l1,4.6C180.7,94.3,182.6,103.4,183.2,106z
	"/>
<path fill="#5AB1DB" d="M201.5,200.6c-0.9,3.1-4.3,5.6-7.6,5.6H34.5c-3.2,0-6.6-2.5-7.6-5.6l-4.3-14.1c-0.9-3.1-1.7-8.2-1.7-11.4
	v-11.7c0-3.2,1.9-4,4.1-1.7l7.3,7.3c2.3,2.3,6.8,4.1,10,4.1h143.9c3.2,0,7.7-1.9,10-4.1l7.3-7.3c2.3-2.3,4.1-1.5,4.1,1.7v11.7
	c0,3.2-0.8,8.3-1.7,11.4L201.5,200.6z"/>
<circle fill="#FFFFFF" cx="42.3" cy="186.8" r="5.8"/>
<path fill="#57ABD4" d="M114.2,122.6c0-3.2-2.6-5.8-5.8-5.8H53.9c-3.2,0-4,1.9-1.7,4.1l17,17c2.3,2.3,6.8,4.1,10,4.1h29.2
	c3.2,0,5.8-2.6,5.8-5.8V122.6z"/>
<path fill="#57ABD4" d="M114.2,122.6c0-3.2,2.6-5.8,5.8-5.8h54.5c3.2,0,4,1.9,1.7,4.1l-17,17c-2.3,2.3-6.8,4.1-10,4.1h-29.2
	c-3.2,0-5.8-2.6-5.8-5.8V122.6z"/>
<circle fill="#FFFFFF" cx="186.2" cy="186.8" r="5.8"/>
<circle fill="#FFFFFF" cx="162.9" cy="58.4" r="5.8"/>
<linearGradient id="SVGID_1_" gradientUnits="userSpaceOnUse" x1="157.0309" y1="150.773" x2="195.9337" y2="150.773">
	<stop  offset="0" style="stop-color:#F2F2F2"/>
	<stop  offset="1" style="stop-color:#EBEBEB"/>
</linearGradient>
<path fill="url(#SVGID_1_)" d="M187.2,159.5c4.8,0,8.8-3.9,8.8-8.8c0-4.8-3.9-8.8-8.8-8.8h-10.7c-13.1,0-19.5,17.5-19.5,17.5H187.2z
	"/>
<linearGradient id="SVGID_2_" gradientUnits="userSpaceOnUse" x1="32.5419" y1="150.773" x2="71.4447" y2="150.773">
	<stop  offset="0" style="stop-color:#F2F2F2"/>
	<stop  offset="1" style="stop-color:#EBEBEB"/>
</linearGradient>
<path fill="url(#SVGID_2_)" d="M41.3,159.5c-4.8,0-8.8-3.9-8.8-8.8c0-4.8,3.9-8.8,8.8-8.8H52c13.1,0,19.5,17.5,19.5,17.5H41.3z"/>
<path fill="#275469" d="M148,160.1c-1.4,2.9-5.2,5.2-8.4,5.2H89c-3.2,0-7-2.3-8.4-5.2l-4.5-9c-1.4-2.9,0-5.2,3.2-5.2h70
	c3.2,0,4.7,2.3,3.2,5.2L148,160.1z"/>
<path fill="#244E61" d="M166.3,194.8c-0.8,2-3.2,3.6-5.3,3.6H67.6c-2.1,0-4.5-1.6-5.3-3.6l-1-2.5c-0.8-2,0.3-3.6,2.4-3.6h101.1
	c2.1,0,3.2,1.6,2.4,3.6L166.3,194.8z"/>
<linearGradient id="SVGID_3_" gradientUnits="userSpaceOnUse" x1="114.9107" y1="169.012" x2="115.4503" y2="188.7084">
	<stop  offset="0" style="stop-color:#E6E6E6"/>
	<stop  offset="1" style="stop-color:#DBDBDB"/>
</linearGradient>
<path fill="url(#SVGID_3_)" d="M139.5,184.8c0,2.1-1.8,3.9-3.9,3.9H94.8c-2.1,0-3.9-1.8-3.9-3.9v-9.7c0-2.1,1.8-3.9,3.9-3.9h40.8
	c2.1,0,3.9,1.8,3.9,3.9V184.8z"/>
<g>
	<path fill="#FFFFFF" d="M114.2,147.9c-4.3,0-7.8-3.5-7.8-7.8c0-4.3,3.5-7.8,7.8-7.8s7.8,3.5,7.8,7.8
		C122,144.4,118.5,147.9,114.2,147.9z"/>
	<g>
		<path fill="#499BC2" d="M114.2,134.2c3.2,0,5.8,2.6,5.8,5.8c0,3.2-2.6,5.8-5.8,5.8s-5.8-2.6-5.8-5.8
			C108.4,136.9,111,134.2,114.2,134.2L114.2,134.2z M114.2,130.3c-5.4,0-9.7,4.4-9.7,9.7c0,5.4,4.4,9.7,9.7,9.7
			c5.4,0,9.7-4.4,9.7-9.7C124,134.7,119.6,130.3,114.2,130.3L114.2,130.3z"/>
	</g>
</g>
<g>
	<path fill="#397B99" d="M116.2,159.5c0,1.1-0.9,1.9-1.9,1.9l0,0c-1.1,0-1.9-0.9-1.9-1.9v-3.9c0-1.1,0.9-1.9,1.9-1.9l0,0
		c1.1,0,1.9,0.9,1.9,1.9V159.5z"/>
	<path fill="#397B99" d="M125.9,159.5c0,1.1-0.9,1.9-1.9,1.9l0,0c-1.1,0-1.9-0.9-1.9-1.9v-5.8c0-1.1,0.8-2.3,1.7-2.8l0.4-0.2
		c1-0.5,1.7,0,1.7,1.1V159.5z"/>
	<path fill="#397B99" d="M102.6,159.5c0,1.1,0.9,1.9,1.9,1.9l0,0c1.1,0,1.9-0.9,1.9-1.9v-5.8c0-1.1-0.8-2.3-1.7-2.8l-0.4-0.2
		c-1-0.5-1.7,0-1.7,1.1V159.5z"/>
	<path fill="#397B99" d="M135.6,159.5c0,1.1-0.9,1.9-1.9,1.9l0,0c-1.1,0-1.9-0.9-1.9-1.9v-7.8c0-1.1,0.9-1.9,1.9-1.9l0,0
		c1.1,0,1.9,0.9,1.9,1.9V159.5z"/>
	<path fill="#397B99" d="M96.7,159.5c0,1.1-0.9,1.9-1.9,1.9l0,0c-1.1,0-1.9-0.9-1.9-1.9v-7.8c0-1.1,0.9-1.9,1.9-1.9l0,0
		c1.1,0,1.9,0.9,1.9,1.9V159.5z"/>
	<path fill="#397B99" d="M145.4,157.6c0,1.1-0.8,2.3-1.7,2.8l-0.4,0.2c-1,0.5-1.7,0-1.7-1.1v-7.8c0-1.1,0.9-1.9,1.9-1.9l0,0
		c1.1,0,1.9,0.9,1.9,1.9V157.6z"/>
	<path fill="#397B99" d="M83.1,157.6c0,1.1,0.8,2.3,1.7,2.8l0.4,0.2c1,0.5,1.7,0,1.7-1.1v-7.8c0-1.1-0.9-1.9-1.9-1.9l0,0
		c-1.1,0-1.9,0.9-1.9,1.9V157.6z"/>
</g>
<g opacity="0.5">
	<polygon fill="#FFFFFF" points="84.9,107 89.7,107 61.7,76.5 60.3,80.5 	"/>
	<polygon fill="#FFFFFF" points="66.1,72 98.3,107 106.9,107 74.7,72 	"/>
</g>
<path opacity="0.4" fill="#7A7A7A" d="M42.3,142h-1c-4.8,0-8.8,3.9-8.8,8.8c0,4.8,3.9,8.8,8.8,8.8h1V142z"/>
<path fill="#F5773E" d="M32.6,151.7c0.5,4.4,4.2,7.8,8.7,7.8h1v-7.8H32.6z"/>
<path opacity="0.4" fill="#7A7A7A" d="M186.2,142h1c4.8,0,8.8,3.9,8.8,8.8c0,4.8-3.9,8.8-8.8,8.8h-1V142z"/>
<path fill="#F5773E" d="M195.8,151.7c-0.5,4.4-4.2,7.8-8.7,7.8h-1v-7.8H195.8z"/>
<polygon fill="#FFFFFF" points="181.8,70.6 165,62.2 156.7,80 159.8,60.8 140.1,59.1 159.6,55.5 154.8,36.8 164.6,53.6 180.6,43.9 
	167.9,57.8 "/>
<circle fill="#FFFFFF" cx="34.5" cy="138.4" r="5.8"/>
<polygon fill="#FFFFFF" points="29.2,170.9 27.9,144 0,146.1 26.1,136.5 14.5,110.7 32.6,132.5 52.7,113.6 38.5,137.5 61.8,150.8 
	35.6,144.6 "/>
<circle fill="#FFFFFF" cx="203.7" cy="165.4" r="5.8"/>
<polygon fill="#FFFFFF" points="209,179.6 202.2,167.9 190.2,175.3 199.6,165 188.5,156.1 201.6,161.7 206.2,148.6 205.4,162.6 
	218.8,163.1 205.7,166.4 "/>
</svg>
