<?xml version="1.0" encoding="utf-8"?>
<!-- Generator: Adobe Illustrator 18.1.1, SVG Export Plug-In . SVG Version: 6.00 Build 0)  -->
<svg version="1.1" id="Layer_1" xmlns="http://www.w3.org/2000/svg" xmlns:xlink="http://www.w3.org/1999/xlink" x="0px" y="0px"
	 viewBox="0 0 309.8 301.4" enable-background="new 0 0 309.8 301.4" xml:space="preserve">
<g>
	<circle fill="#212535" cx="169.6" cy="161.1" r="140.2"/>
</g>
<g>
	<g opacity="0.18">
		<path d="M237.2,190L144.3,29c-5.5-9.5-19.1-9.5-24.6,0L26.7,190c-5.5,9.5,1.4,21.3,12.3,21.3h185.9
			C235.8,211.3,242.7,199.5,237.2,190z"/>
	</g>
	<g>
		<path fill="#E53C6D" d="M5.6,171.7l92.9-161c5.5-9.5,19.1-9.5,24.6,0l92.9,161c5.5,9.5-1.4,21.3-12.3,21.3H17.9
			C7,193.1,0.1,181.2,5.6,171.7z"/>
		<path fill="#AD1C4C" d="M203.8,195.6H17.9c-6,0-11.4-3.1-14.5-8.4c-3-5.2-3-11.5,0-16.7l92.9-161c3-5.2,8.4-8.4,14.5-8.4
			c6,0,11.4,3.1,14.5,8.4l92.9,161c3,5.2,3,11.5,0,16.7C215.2,192.4,209.8,195.6,203.8,195.6z M110.8,6.2c-4.2,0-8,2.2-10.1,5.9
			L7.8,173c-2.1,3.7-2.1,8,0,11.7c2.1,3.7,5.9,5.9,10.1,5.9h185.9c4.2,0,8-2.2,10.1-5.9c2.1-3.7,2.1-8,0-11.7L121,12
			C118.9,8.4,115.1,6.2,110.8,6.2z"/>
	</g>
	<g>
		<path fill="#FFFFFF" d="M38.6,166.6L108.2,46c1.1-2,4-2,5.2,0l69.7,120.7c1.1,2-0.3,4.5-2.6,4.5H41.2
			C38.9,171.1,37.4,168.6,38.6,166.6z"/>
	</g>
	<g>
		<g>
			<path fill="#E53C6D" d="M104.6,136.7h13.7v13.6h-13.7V136.7z M104.7,106.1V92.5h13.6v13.7l-3.4,25.2h-6.8L104.7,106.1z"/>
		</g>
	</g>
</g>
</svg>
