<?xml version="1.0" encoding="utf-8"?>
<!-- Generator: Adobe Illustrator 19.0.0, SVG Export Plug-In . SVG Version: 6.00 Build 0)  -->
<svg version="1.1" id="Layer_1" xmlns="http://www.w3.org/2000/svg" xmlns:xlink="http://www.w3.org/1999/xlink" x="0px" y="0px"
	 viewBox="-233 250 131.5 102" style="enable-background:new -233 250 131.5 102;" xml:space="preserve">
<style type="text/css">
	.st0{opacity:0.3;enable-background:new    ;}
	.st1{fill:#FCC659;}
	.st2{fill:#FFD77D;}
	.st3{fill:#FFA15A;}
	.st4{fill:#354247;}
	.st5{fill:#FCF0B6;}
</style>
<path class="st0" d="M-108,303.7L-108,303.7c0,4.6-2.6,8.7-3.3,8.7c0,0,0,0,0,0c-0.4,1.1-1,2-1.7,2.6c-0.8,0.7-1.8,1.4-3.1,1.9
	c-4,6.7-21.9,10.6-29.2,7.8c-2.8-1-4.5-3-5.4-4.4c-6.5-0.2-11.2-0.6-11.2-0.6l-11.3-4.1l-27,0.2c-0.2,0.1-0.3,0.2-0.5,0.2
	c-0.8,0.3-0.5,7.3-1.6,10.4c0,0.1,0,0.1-0.1,0.1c0,0.9,0,1.7,0,2.5v3.7c0,0.7,0.2,2-0.9,2c-1,0-1.3-0.5-1.3-1.3c0-0.9,0-1.8,0-2.7
	v-3.5c-0.3-0.1-0.5-0.1-0.6-0.1c-1.4,0-1.8-10.4-3.1-11c-0.2-0.1-0.4-0.2-0.6-0.3c-0.6-0.4-3.1-2.5-3.2-2.4c-0.9-1-1.6-2.2-2.2-3.5
	h-12.6c-3.4,0-6.2-2.8-6.2-6.2c0-1.7,0.7-3.2,1.8-4.3c1.1-1.1,2.7-1.8,4.4-1.8h11.9c0-0.1,0-0.2,0.1-0.3c0.1-0.2,0.2-0.4,0.2-0.7
	c0.2-0.4,0.4-0.9,0.6-1.3c0.1-0.2,0.2-0.4,0.3-0.6c0.1-0.1,0.2-0.3,0.2-0.4c0.1-0.1,0.2-0.3,0.3-0.4c0.4-0.6,0.9-1.3,1.4-1.8
	c1-1.1,2.2-1.8,3.5-2.4c1.2-0.6,1.7-10.8,3.1-10.8c0.1,0,0.3,0,0.6-0.1v-6.5c0-0.6-0.1-1.4,0.4-1.8c0.8-0.6,1.8,0,1.9,0.9
	c0.1,2,0,4,0,6v2c0,0.1,0.1,0.2,0.1,0.2c1.1,3.1,0.8,9.5,1.6,9.8c1.3,0.5,2.2,1.4,3,2.4h23.9l11.1-4.5c0,0,5.5-0.6,12.9-0.9
	c1-1.2,2.4-2.6,4.5-3.4c7.3-2.9,25.2,0.3,29.4,6.9c1.2,0.6,2.2,1.3,3,2.2c0.6,0.6,1.1,1.5,1.5,2.6c0.1,0,0.1,0,0.2,0
	C-110.6,294.6-108,298.9-108,303.7z"/>
<path id="XMLID_12_" class="st1" d="M-145,314.7c0,0,1.7,4.3,6.3,6.1c7.3,2.7,25.2-1.1,29.2-7.8L-145,314.7z"/>
<path id="XMLID_11_" class="st1" d="M-144.9,285.2c0,0,1.5-4.4,6.1-6.2c7.3-2.9,25.2,0.3,29.4,6.9L-144.9,285.2z"/>
<path id="XMLID_10_" class="st2" d="M-106.4,311c-9.1,8.2-48.9,4.7-48.9,4.7l-11.3-4.1l-37.5,0.2l-0.2-24h37.1l11.1-4.5
	c0,0,41.3-4.5,49.8,4.7C-102.6,292.3-102.1,307.2-106.4,311z"/>
<path id="XMLID_9_" class="st3" d="M-110.6,304.6c0,3.3-2.5,6.1-5.8,6.4c-12.3,1.1-40.2,2.6-47.2-5c-2.1-2.3-2.3-10.4,0-12.4
	c7.6-6.8,34.7-6.1,47-5.5c3.4,0.2,6,3,6,6.4V304.6z"/>
<path id="XMLID_8_" class="st4" d="M-104.7,308.4L-104.7,308.4c-0.7,0-1.3-0.6-1.3-1.3c0,0,2.3-4.5,2.3-7.3c0-3-2.3-7.9-2.3-7.9
	c0-0.7,0.6-1.3,1.3-1.3h0c0.7,0,3.3,4.3,3.3,9.2C-101.4,304.3-104,308.4-104.7,308.4z"/>
<path id="XMLID_7_" class="st1" d="M-187.5,306.9c-5.6,0-11.1,0-16.7,0c-3.8,0-7.5,0-11.3,0c-1.8,0-3.8,0.2-5.6-0.1
	c-2.8-0.4-5-2.7-5.3-5.5c-0.3-2.8,1.5-5.4,4.1-6.4c1.9-0.6,4.2-0.3,6.2-0.3c7.6,0,15.1,0,22.7,0c2,0,4,0,6,0
	c5.6,0.1,8.4,7.3,3.9,10.9C-184.7,306.5-186.1,306.9-187.5,306.9z"/>
<path id="XMLID_6_" class="st4" d="M-197.7,280.1c-1,0-1.3-0.5-1.3-1.3c0-0.9,0-1.8,0-2.7c0-2.3,0-4.5,0-6.8c0-0.6-0.1-1.4,0.4-1.8
	c0.8-0.7,1.8,0,1.9,0.9c0.1,2,0,4,0,6c0,1.2,0,2.5,0,3.7C-196.8,278.9-196.6,280.1-197.7,280.1z"/>
<path id="XMLID_5_" class="st4" d="M-169.9,309.5c-6.2,0-12.3,0-18.5,0c-1.4,0-2.8,0-4.1,0c-1,0-2.1,0.1-2.6-0.9
	c-0.4-0.8-0.2-2.2-0.2-3c0-1.9,0-3.7,0-5.6s0-3.7,0-5.6c0-0.9-0.2-2.2,0.2-3c0.6-1,1.7-0.9,2.7-0.9c1.4,0,2.7,0,4.1,0
	c3.9,0,7.9,0,11.8,0c2.2,0,4.4-0.2,6.6,0c1.8,0.1,1.8,1.7,1.8,3c0,1.7,0,3.4,0,5.1c0,3.1,0.2,6.2,0,9.2
	C-168.2,308.6-168.9,309.5-169.9,309.5z"/>
<path id="XMLID_4_" class="st4" d="M-197.7,331.8c-1,0-1.3-0.5-1.3-1.3c0-0.9,0-1.8,0-2.7c0-2.3,0-4.5,0-6.8c0-0.6-0.1-1.4,0.4-1.8
	c0.8-0.7,1.8,0,1.9,0.9c0.1,2,0,4,0,6c0,1.2,0,2.5,0,3.7C-196.8,330.5-196.6,331.8-197.7,331.8z"/>
<path id="XMLID_3_" class="st2" d="M-189.9,299h-20.3c0.1-4,1.6-7.5,3.9-10c1-1.1,2.2-1.8,3.5-2.4c1.2-0.6,1.7-10.8,3.1-10.8
	c0.4,0,2.4-0.7,3,0.8c1.1,3.1,0.8,9.3,1.6,9.6C-190.8,288.1-189.9,293-189.9,299z"/>
<path id="XMLID_2_" class="st2" d="M-189.9,299c0,6-0.9,12-5.3,13.8c-0.8,0.3-0.5,7.4-1.6,10.5c-0.5,1.5-2.6,0.8-3,0.8
	c-1.4,0-1.8-10.4-3.1-10.9c-1.4-0.6-2.6-2-3.6-3.2c-2.3-2.6-3.7-5.9-3.8-10.9H-189.9z"/>
<path id="XMLID_1_" class="st5" d="M-204,299.8v0.1c0,4-0.2,7.3-1.1,10.1c-2.3-2.6-4-5.9-4.1-10.1c0.1-4.3,1.5-7.9,3.9-10.5
	C-204.5,292.2-204,295.8-204,299.8z"/>
</svg>
