<?xml version="1.0" encoding="utf-8"?>
<!-- Generator: Adobe Illustrator 18.1.1, SVG Export Plug-In . SVG Version: 6.00 Build 0)  -->
<svg version="1.1" id="Layer_1" xmlns="http://www.w3.org/2000/svg" xmlns:xlink="http://www.w3.org/1999/xlink" x="0px" y="0px"
	 viewBox="0 0 49 157.1" enable-background="new 0 0 49 157.1" xml:space="preserve">
<g>
	<g opacity="0.23">
		<path d="M29.5,10L29.5,10C18.8,10,10,18.8,10,29.5v25.6c0,10.7,8.8,19.5,19.5,19.5h0c10.7,0,19.5-8.8,19.5-19.5V29.5
			C49,18.8,40.2,10,29.5,10z"/>
	</g>
	<g>
		<path fill="#A3A8C2" d="M19.5,157.1h-1V156h1V157.1z M19.5,153h-1v-3h1V153z M19.5,147h-1v-3h1V147z M19.5,141h-1v-3h1V141z
			 M19.5,135h-1v-3h1V135z M19.5,129h-1v-3h1V129z M19.5,123h-1v-3h1V123z M19.5,117h-1v-3h1V117z M19.5,111h-1v-3h1V111z M19.5,105
			h-1v-3h1V105z M19.5,99h-1v-3h1V99z M19.5,93h-1v-3h1V93z M19.5,87h-1v-3h1V87z M19.5,81h-1v-3h1V81z M19.5,75h-1v-3h1V75z
			 M19.5,69h-1v-3h1V69z M19.5,63h-1v-3h1V63z"/>
	</g>
	<g>
		<path fill="#FFFFFF" d="M19.5,0L19.5,0C8.8,0,0,8.8,0,19.5l0,25.6c0,10.7,8.8,19.5,19.5,19.5h0c10.7,0,19.5-8.8,19.5-19.5V19.5
			C39,8.8,30.2,0,19.5,0z"/>
	</g>
	<g>
		<path fill="#32ABDF" d="M19.5,34.1L19.5,34.1c-1.4,0-2.5-1.1-2.5-2.5v-14c0-1.4,1.1-2.5,2.5-2.5h0c1.4,0,2.5,1.1,2.5,2.5v14
			C22,33,20.9,34.1,19.5,34.1z"/>
	</g>
</g>
</svg>
