<?xml version="1.0" encoding="utf-8"?>
<!-- Generator: Adobe Illustrator 18.1.1, SVG Export Plug-In . SVG Version: 6.00 Build 0)  -->
<svg version="1.1" id="Layer_1" xmlns="http://www.w3.org/2000/svg" xmlns:xlink="http://www.w3.org/1999/xlink" x="0px" y="0px"
	 viewBox="0 0 131.5 102" enable-background="new 0 0 131.5 102" xml:space="preserve">
<path opacity="0.3" d="M91.7,91l22.5,0l0-2l-4.6,0l4.2,0c5.6,0,10.1-4.5,10.1-10.1l0-40.5c0-5.6-4.5-10.1-10.1-10.1l0.4,0l0-2
	l-22.5,0l0,2l-40.4,0l0.2-0.1l2.8-9.6l-7.5-2.2l-3.4,11.9l-10.3,0l0-2l-22.5,0l0,2l-0.5,0C4.6,28.2,0.1,32.7,0,38.3l0,40.5
	c0,5.6,4.5,10.1,10.1,10.1l0.5,0l0,2l22.5,0l0-2l10,0l3.7,13.1l7.5-2.1l-2.8-9.7L49.4,89l42.3,0L91.7,91z"/>
<g>
	<path fill="#17A5D6" d="M17.7,11.9L121.5,12c5.6,0,10.1,4.5,10.1,10.1l0,40.5c0,5.6-4.5,10.1-10.1,10.1L17.7,72.6
		c-5.6,0-10.1-4.5-10.1-10.1l0-40.5C7.7,16.4,12.2,11.9,17.7,11.9z"/>
	
		<rect x="73.5" y="16.9" transform="matrix(-1 -1.176508e-03 1.176508e-03 -1 181.8364 84.7497)" fill="#F2F4FF" width="35" height="50.9"/>
	
		<rect x="40.7" y="16.8" transform="matrix(-1 -1.176508e-03 1.176508e-03 -1 115.1787 84.6321)" fill="#FFFFFF" width="33.9" height="50.9"/>
	
		<rect x="49.8" y="16.4" transform="matrix(-1 -1.176508e-03 1.176508e-03 -1 149.0557 84.6919)" fill="#62B9DF" width="49.6" height="51.8"/>
	
		<rect x="99.4" y="10" transform="matrix(-1 -1.176508e-03 1.176508e-03 -1 221.2606 22.1526)" fill="#191E3B" width="22.5" height="2"/>
	
		<rect x="18.2" y="9.9" transform="matrix(-1 -1.176508e-03 1.176508e-03 -1 58.8907 21.866)" fill="#191E3B" width="22.5" height="2"/>
	
		<rect x="99.3" y="72.7" transform="matrix(-1 -1.176508e-03 1.176508e-03 -1 221.0394 147.4857)" fill="#191E3B" width="22.5" height="2"/>
	
		<rect x="18.1" y="72.6" transform="matrix(-1 -1.176508e-03 1.176508e-03 -1 58.6695 147.1991)" fill="#191E3B" width="22.5" height="2"/>
	<polygon fill="#62B9DF" points="61.9,83.5 59.1,73.9 49.4,68.1 50,70.3 54.4,85.7 	"/>
	<polygon fill="#62B9DF" points="62,2.2 59.2,11.8 49.4,17.5 50.1,15.4 54.5,0 	"/>
</g>
</svg>
