<?xml version="1.0" encoding="utf-8"?>
<!-- Generator: Adobe Illustrator 19.0.0, SVG Export Plug-In . SVG Version: 6.00 Build 0)  -->
<svg version="1.1" id="Layer_1" xmlns="http://www.w3.org/2000/svg" xmlns:xlink="http://www.w3.org/1999/xlink" x="0px" y="0px"
	 viewBox="0 0 131 102" style="enable-background:new 0 0 131 102;" xml:space="preserve">
<style type="text/css">
	.st0{opacity:0.3;enable-background:new    ;}
	.st1{fill:#151516;}
	.st2{fill:#B2443F;}
	.st3{fill:#9E3838;}
</style>
<path class="st0" d="M116.6,42.5c-0.3-0.9-0.7-1.8-1-2.5c-2.1-4.3-4.4-5.8-4.4-5.8l-4.4-0.1c0.1,0.3,0.2,0.7,0.2,1c0,0,0,0.1,0,0.1
	l-0.6-1.1l0.4,0c-0.4-1.2-1.5-2-2.9-2h-18c-0.8,0-1.6,0.3-2.2,0.9c-0.2,0.2-0.3,0.4-0.5,0.6l-41.7-1c-0.3-1.4-1.5-2.5-3-2.5h-18
	c-0.8,0-1.6,0.3-2.2,0.9c-0.4,0.4-0.7,1-0.8,1.6c-3.8,1.1-10.4,4-10.4,11.4v22c0,7,6,9.9,9.9,11.1c0.2,1.4,1.5,2.5,3,2.5h18
	c0.8,0,1.6-0.3,2.2-0.9c0.3-0.3,0.6-0.7,0.7-1.1l43-0.5h0c0.5,1,1.5,1.7,2.7,1.7h18c0.8,0,1.6-0.3,2.2-0.9c0.3-0.3,0.6-0.7,0.7-1.1
	h0l3.6,0c0,0,2.8-1.1,4.9-6.3c0.3-0.7,0.6-1.6,0.9-2.5c0.9-3.2,1.6-7.4,1.6-13.1C118.5,49.7,117.7,45.6,116.6,42.5z"/>
<path id="XMLID_44_" class="st1" d="M43.8,71.9c-6,0-12,0.3-18,0c-3.3-0.1-4.3-4.7-1.1-5.9c1-0.4,2.3-0.2,3.3-0.2
	c4.1,0,8.1,0,12.2,0c1.2,0,2.4-0.1,3.5,0C47.8,66,47.8,71.9,43.8,71.9z"/>
<path id="XMLID_45_" class="st1" d="M110.4,71.1c-6,0-12,0.3-18,0c-3.3-0.1-4.3-4.7-1.1-5.9c1-0.4,2.3-0.2,3.3-0.2
	c4.1,0,8.1,0,12.2,0c1.2,0,2.4-0.1,3.5,0C114.3,65.2,114.4,71.1,110.4,71.1z"/>
<path id="XMLID_43_" class="st1" d="M44.3,28.4c-6,0-12,0.3-18,0c-3.3-0.1-4.3-4.7-1.1-5.9c1-0.4,2.3-0.2,3.3-0.2
	c4.1,0,8.1,0,12.2,0c1.2,0,2.4-0.1,3.5,0C48.3,22.5,48.3,28.4,44.3,28.4z"/>
<path id="XMLID_42_" class="st1" d="M109.6,30.3c-6,0-12,0.3-18,0c-3.3-0.1-4.3-4.7-1.1-5.9c1-0.4,2.3-0.2,3.3-0.2
	c4.1,0,8.1,0,12.2,0c1.2,0,2.4-0.1,3.5,0C113.5,24.4,113.5,30.3,109.6,30.3z"/>
<path class="st2" d="M124.2,47.2c0,5.7-0.7,9.9-1.6,13.1c-0.3,0.9-0.6,1.8-0.9,2.5c-2.1,5.3-4.9,6.3-4.9,6.3l-4.2,0l-85.9,1l-0.8,0
	c0,0-0.4-0.1-1.1-0.2C21.8,69.2,13,66.7,13,58.3v-22c0-10.5,13-12,13-12l1.3,0l84.7,2l4.8,0.1c0,0,2.4,1.5,4.4,5.8
	c0.4,0.8,0.7,1.6,1,2.5C123.4,37.8,124.2,41.9,124.2,47.2z"/>
<path class="st3" d="M121.8,62.7c-2.1,5.3-4.9,6.3-4.9,6.3l-90,1l-1.9-0.2c31.7-13.6,86.6-11.6,86.6-11.6L121.8,62.7z"/>
<path class="st3" d="M121.3,32.2l-9,3.9c0,0-54.8,2-86.6-11.6l1.6-0.2l89.5,2.1C116.9,26.3,119.3,27.9,121.3,32.2z"/>
<path id="XMLID_41_" class="st1" d="M39.4,27.3c5.4,0.9,10.8,1.8,16.3,2.7c0.8,0.1,1.6,0.3,2.3,0.4c-1.9,2.7-2.5,6.5-2.9,9.6
	c-0.9,6.8-0.8,14.3,1.5,20.8c0.3,1,0.8,2,1.4,2.9c-3.7,0.6-7.3,1.2-11,1.9c-2.2,0.4-4.4,0.7-6.6,1.1c-0.6,0.1-1.3,0.4-1.9,0.1
	c-1-0.5-1.8-1.7-2.5-2.5c-1.5-1.9-2.6-4.1-3.4-6.3c-1.2-3.5-1.7-7.3-1.8-11c-0.1-3.9,0.4-7.8,1.8-11.4C34,32.4,36.2,28.8,39.4,27.3z
	"/>
<path id="XMLID_40_" class="st1" d="M70.8,56.2c-1.5,0-3.1,0.2-4.7,0c-2.2-0.2-2.4-2.2-2.4-3.9c0-3.9,0-7.8,0-11.8
	c0-1.6-0.1-3.3,1.6-4c0.8-0.3,1.7-0.2,2.6-0.2c0.9,0,1.9,0,2.8,0c2.1,0.1,2.8,1.6,2.8,3.4c0,1.8,0,3.6,0,5.3c0,2.3,0,4.5,0,6.8
	C73.5,53.7,73.4,56.2,70.8,56.2z"/>
<path class="st1" d="M84.4,27.7c0,0,5.5,5.2,3.8,5.1c-10.7-0.4-30.1-3.8-41.3-5.9c-0.7-0.1-0.6-1.2,0.1-1.2L84.4,27.7z"/>
<path class="st1" d="M88.9,27.7l20.8,0.3c0.4,0,0.6,0.4,0.4,0.7l-1.9,4.5c-0.1,0.2-0.3,0.3-0.5,0.3l-15.3-0.7
	c-0.2,0-0.3-0.1-0.4-0.2l-3.1-4C88.7,28.3,88.5,27.7,88.9,27.7z"/>
<path class="st1" d="M45.1,68.7c-0.8,0-0.9-1.1-0.1-1.2c11.2-2.1,30.6-5.5,41.3-5.9c1.7-0.1-3.8,5.1-3.8,5.1L45.1,68.7z"/>
<path class="st1" d="M87,65.8l3.1-4c0.1-0.1,0.2-0.2,0.4-0.2l15.3-0.7c0.2,0,0.4,0.1,0.5,0.3l1.9,4.5c0.1,0.3-0.1,0.7-0.4,0.7
	l-20.8,0.3C86.5,66.7,86.7,66.1,87,65.8z"/>
<path class="st1" d="M110.7,34.2l7-2.7c0.3-0.1,0.7,0,0.8,0.3c0.7,1.7,2.8,7.3,2.8,14.1c0,8.1-2.5,14.5-3.3,16.5
	c-0.1,0.3-0.5,0.5-0.8,0.3l-6.6-2.7c-0.4-0.1-0.5-0.6-0.3-0.9c0.8-1.3,2.4-4.9,2.5-13c0.1-6.7-1.5-9.8-2.4-11
	C110.2,34.8,110.3,34.3,110.7,34.2z"/>
</svg>
