<?xml version="1.0" encoding="utf-8"?>
<!-- Generator: Adobe Illustrator 18.1.1, SVG Export Plug-In . SVG Version: 6.00 Build 0)  -->
<svg version="1.1" id="Layer_1" xmlns="http://www.w3.org/2000/svg" xmlns:xlink="http://www.w3.org/1999/xlink" x="0px" y="0px"
	 viewBox="0 0 343.4 299.5" enable-background="new 0 0 343.4 299.5" xml:space="preserve">
<circle fill="#212535" cx="203.2" cy="159.3" r="140.2"/>
<g>
	<g opacity="0.15">
		<path d="M260.9,139.5c-8.3-0.9-15.6-1-21.9-0.4l-1.6-17.9c-0.3-2.9-2.8-5.2-5.7-5.2h-39l6.3-17.8h-4.6l-0.3-3.1l-2.7-30.3h-8.1
			l2.7,30.3l0.3,3.1h-3.4c-0.1-0.4-0.2-0.9-0.3-1.3c0.7-0.1,1-0.2,1-0.2S183.2,80,183,69.6c-0.2-10.4-6.3-18.4-6.3-18.4
			c0,0-0.1,0-0.1,0l-1.1-3.4c0,0,0,0-0.4,0c-0.6-3.5-0.4-8.1-0.4-8.1l0-3.1c0,0,0-1.3-0.3-3l3.3,1.3l0.5-1.3l-4.1-1.6l2.2-6.6
			l-14.5-5.8l-2.2,6.6l-2.9-1.2l-0.5,1.3l3.9,1.6c-0.2,0.4-0.4,0.8-0.7,1.3c-0.2,0.5-0.9,2.2-0.6,4.2c0.4,2.4-1.6,4.5-1.6,4.5
			l1.9,1.1c0,0,0.6,6.6,2.7,7.1c1.3,0.3,3.2,0.4,5,0c0.3,1.3,0.4,2.9,0.5,4.2c-0.2,0.1-0.4,0.3-0.4,0.3c-0.4,1.6-0.6,4.1-0.8,6.1
			c-3.4,2.9-13.2,11.6-13.2,11.6l-2.6,0.8l-0.6,0.7L129,71.3c0,0-0.2,0.8-0.2,1.8l-2.5,0.5l-6.9-0.6l-4.6,1.5c0,0,0,1,0.4,2.2
			l-0.1,0l-7.4-6.8l-2.5,2.7l7.2,6.6c0.2,1,0.8,2.3,1.9,3.3c0.6,0,1.1,0,1.5-0.1l3.8,3.5l-25.2,34l1.4,1L120.9,87l10.2,9.4l2.5-2.7
			l-12.2-11.2c0.9,0,1.9-0.2,3-0.6c1.5-0.6,2.4-0.9,2.9-1.1c0.3,1.2,0.5,1.5,0.5,1.5l33.1-0.9l2.9-2.1c0.3,3.4,0.7,9,0.9,12.9
			c-8.5,1.3-27.6,4.8-38.6,10.7c-0.4,1.6,0.1,7.2,0.1,7.2l3.7,32.3c1.2,0,2.3,0,3.4,0c-0.2,0.6-1,2.3-3,3.5
			c-2.4,1.5-8.7,2.1-10.3,2.4c-1.6,0.3,0.2,1.6,0.2,1.6s2.4,0.2,5.6,0.5c0.2,0.2,0.4,0.4,0.4,0.4s0.2,0,0.6,0.1l-6.5-0.4h-19.3
			c-0.3-0.2-0.6-0.5-1-0.7c-0.6-7.1-1.4-16.2-2-22.5c-1-11.6-18.8-11.1-18.8-11.1H56.9l2,22.7c-3.5,0.1-7.2,0.3-11.1,0.7
			c-26.1,3.1-22.7,3.4-22.7,3.4s6,3.3,23.3,2.6c0,0,4.5-0.8,11.1-0.8l1.1,12.7c-22.1,1-38.2,19.3-36.2,41.7
			c2,23,22.4,41.8,45.4,41.8c18,0,32.4-11.5,36.9-27.5h14l2.4,9.7h17c-3.2-2.4-6-5.8-8.5-9.7h58.7c-1.8,3.9-4,7.3-6.8,9.7h17
			l0.7-9.7h14.4c7.2,16,23.6,27.5,41.7,27.5c23,0,40.1-18.7,38.1-41.8c-2-23-22.4-41.8-45.4-41.8c-3.6,0-7.1,0.5-10.4,1.3
			c0.7-0.9,1.1-2.1,1-3.5l-0.9-9.9c11.8-1.5,21.9,0.2,21.9,0.2c28,3.5,31.9-6,31.9-6S283.8,141.9,260.9,139.5z M280,181.4l-19.4,7.6
			l3.4-20.4C270.4,171.3,276,175.8,280,181.4z M286.6,199c0.2,2.2,0.2,4.4-0.1,6.4l-11.9-1.1l-10.9-5.7l17.9-14.7
			C284.4,188.4,286.1,193.5,286.6,199z M252.9,192.1l0.4-0.8l0.3,0.5L252.9,192.1z M274.1,226.6c-4.1,2.9-9,4.8-14.4,5.3l-4.1-12.8
			l1.7-10.3l11.8,9.3L274.1,226.6z M273.3,221.4l3.7,2.9c-0.4,0.4-0.9,0.8-1.3,1.1L273.3,221.4z M220.3,199
			c-0.5-6.2,0.7-11.9,3.2-16.9l18.3,14.4l-10,4l-11.4-1C220.4,199.3,220.3,199.1,220.3,199z M224.5,180.3l20,10.5l1.3,4.2l-2.1,0.8
			l-19.4-15.3C224.4,180.3,224.5,180.3,224.5,180.3z M225.5,178.6c3-4.3,7.1-7.8,12-10l6.2,19.5L225.5,178.6z M246.5,196.8l0.4,1.3
			l-1.3-1L246.5,196.8z M243.6,198l3.3,2.6l-0.5,1.2l-10.2-0.9L243.6,198z M247.7,203.9l1,0.1l1.1,3.4l-5.8,4.8L247.7,203.9z
			 M257.6,195l-1.2-2.1l1.7-0.7L257.6,195z M259.6,202l0.6,1l-1.6-0.1L259.6,202z M256,205l0,0.3l-0.1-0.1L256,205z M247.7,194.2
			L247,192l2.7,1.4L247.7,194.2z M249,195.8l-0.5,1.1l-0.3-0.8L249,195.8z M251.5,204.2l1.1,0.9l-1.2,1l-0.6-1.9L251.5,204.2z
			 M254.3,206.4l1.3,1l-1.3,7.6l-2.2-6.8L254.3,206.4z M257.7,206.7l0.3-1.9l3.4,0.3l5,8.5L257.7,206.7z M259.9,198.7l0.3,0.2
			L260,199L259.9,198.7z M261.1,200.8l1.1-0.9l7.6,4l-7.2-0.6L261.1,200.8z M261.8,197.6l-2.3-1.2l0.8-5l17.4-6.9L261.8,197.6z
			 M258.5,189.9l-3.1,1.2l-1.2-2l7.1-16.1L258.5,189.9z M254.6,193.6l0.2,0.3l-0.5-0.2L254.6,193.6z M250.8,191.8l-4.6-2.4
			l-6.9-21.6c0,0,0.1,0,0.1,0l12.6,21.3L250.8,191.8z M220.7,201.4l7.1,0.6l-6.4,2.5C221,203.6,220.8,202.5,220.7,201.4z
			 M232.2,202.5l13.4,1.2l-5,11.4l-8.7,7.1c-4.6-4.3-8.1-9.6-10-15.6L232.2,202.5z M238.7,219.2l-2.8,6.3c-0.9-0.6-1.7-1.2-2.5-1.9
			L238.7,219.2z M237.7,226.6l4.5-10.3l8.3-6.8l3.1,9.6l-2.1,12.6C246.6,231,241.9,229.2,237.7,226.6z M255,223.4l2.8,8.7
			c-0.5,0-0.9,0-1.4,0c-1,0-1.9-0.1-2.9-0.1L255,223.4z M278.3,223l-7.7-6.1l-6.9-11.6l10.5,0.9l10.8,5.7
			C283.7,216.1,281.4,219.9,278.3,223z M279.2,206.7l7,0.6c-0.2,0.9-0.4,1.8-0.6,2.7L279.2,206.7z M252.9,187l-11.4-19.2h1.4l-0.1-1
			c2.4-0.6,5-0.9,7.7-0.9c3.8,0,7.4,0.6,10.9,1.8L252.9,187z M225.9,165.2H207c0.4-0.8,0.8-1.6,1.3-2.4h21.1
			C228.2,163.6,227,164.4,225.9,165.2z M100.8,159.9l1.4,0c0.1,0.1,0.2,0.2,0.3,0.4h-1.7C100.9,160.3,100.8,160.2,100.8,159.9z
			 M99.2,205.4l-11.9-1.1l-10.9-5.7l17.9-14.7c2.7,4.5,4.5,9.6,5,15.1C99.5,201.2,99.4,203.3,99.2,205.4z M86.8,226.6
			c-4.1,2.9-9,4.8-14.4,5.3l-4.1-12.8l1.7-10.3l11.8,9.3L86.8,226.6z M86,221.4l3.7,2.9c-0.4,0.4-0.9,0.8-1.3,1.1L86,221.4z
			 M52,167.8l12.6,21.3l-1.2,2.7l-4.6-2.4L52,167.8C52,167.9,52,167.8,52,167.8z M74.1,167.8L65.6,187l-11.7-19.8
			c2.4-0.7,4.8-1.2,7.4-1.3l0.2,1.9H74.1z M72.1,196.4l0.8-5l17.4-6.9l-15.9,13.1L72.1,196.4z M72.9,198.9l-0.2,0.1l-0.2-0.3
			L72.9,198.9z M68.6,205l0,0.3l-0.1-0.1L68.6,205z M61.7,195.8l-0.5,1.1l-0.3-0.8L61.7,195.8z M60.3,194.2l-0.7-2.2l2.7,1.4
			L60.3,194.2z M65.6,192.1l0.4-0.8l0.3,0.5L65.6,192.1z M67,193.7l0.3-0.1l0.2,0.3L67,193.7z M70.3,195l-1.2-2.1l1.7-0.7L70.3,195z
			 M72.3,202l0.6,1l-1.6-0.1L72.3,202z M71.2,189.9l-3.1,1.2l-1.2-2l7.1-16.1L71.2,189.9z M59.6,198.2l-1.3-1l0.9-0.3L59.6,198.2z
			 M59.6,200.6l-0.5,1.2l-10.2-0.9l7.4-2.9L59.6,200.6z M60.4,203.9l1,0.1l1.1,3.4l-5.8,4.8L60.4,203.9z M64.2,204.2l1.1,0.9l-1.2,1
			l-0.6-1.9L64.2,204.2z M67,206.4l1.3,1L67,215l-2.2-6.8L67,206.4z M70.4,206.7l0.3-1.9l3.4,0.3l5,8.5L70.4,206.7z M73.8,200.8
			l1.1-0.9l7.6,4l-7.2-0.6L73.8,200.8z M73.3,189l3.4-20.4c6.4,2.7,11.9,7.2,15.9,12.8L73.3,189z M50.2,168.6l6.2,19.5l-18.2-9.5
			C41.2,174.3,45.3,170.9,50.2,168.6z M37.2,180.3l20,10.5l1.3,4.2l-2.1,0.8l-19.4-15.3C37.1,180.3,37.1,180.3,37.2,180.3z
			 M54.4,196.5l-10,4l-11.4-1c0-0.2,0-0.3-0.1-0.5c-0.5-6.2,0.7-11.9,3.2-16.9L54.4,196.5z M33.3,201.4l7.1,0.6l-6.4,2.5
			C33.7,203.6,33.5,202.5,33.3,201.4z M44.9,202.5l13.4,1.2l-5,11.4l-8.7,7.1c-4.6-4.3-8.1-9.6-10-15.6L44.9,202.5z M51.4,219.2
			l-2.8,6.3c-0.9-0.6-1.7-1.2-2.5-1.9L51.4,219.2z M50.4,226.6l4.5-10.3l8.3-6.8l3.1,9.6l-2.1,12.6C59.2,231,54.5,229.3,50.4,226.6z
			 M67.6,223.4l2.8,8.7c-0.5,0-0.9,0-1.4,0c-1,0-1.9-0.1-2.9-0.1L67.6,223.4z M91,223l-7.7-6.1l-6.9-11.6l10.5,0.9l10.8,5.7
			C96.3,216.1,94,219.9,91,223z M91.9,206.7l7,0.6c-0.2,0.9-0.4,1.8-0.6,2.7L91.9,206.7z M84,162.9h20.7c0.6,0.8,1.1,1.5,1.7,2.4
			H87.8C86.5,164.4,85.3,163.6,84,162.9z M112.4,162.9h88c-0.4,0.8-0.7,1.6-1,2.4h-85.6C113.4,164.5,112.9,163.7,112.4,162.9z
			 M148.9,150.4l-2.6-6.9c0.5-0.1,1.1-0.2,1.6-0.2c-0.5-3-0.6-5.2-0.9-8.5c-0.1,0-0.2,0-0.2,0.1c-0.7-7.8-1.1-15.3-2-17.9
			c-1.3-3.9-1.3-3.9-1.3-3.9s6.4,0,12.1-0.7l0.3,3.6h-4l0.5,5.2l2.7,31.1l-6.4-0.4C149.1,151.3,148.9,150.4,148.9,150.4z M174,36.3
			L174,36.3l-0.6-0.1v0L174,36.3z M155.8,160.3L155.8,160.3l-45.1,0c-0.1-0.1-0.1-0.2-0.2-0.3L155.8,160.3z M107.3,210.3
			c0.7-3.6,0.9-7.4,0.6-11.3c-1.1-12.4-7.5-23.5-16.7-31.2h16.7c1.4,2.6,2.7,5.4,3.7,8.5l8.4,34H107.3z M129.8,210.3
			c-7.8-14.1-11.2-32.3-11.2-32.3s-0.6-4.4-3.4-10.2h83.4c-1.8,5.8-1.6,10.2-1.6,10.2s-0.3,18.2-5.6,32.3H129.8z M201.3,210.3
			l2.4-34c0.5-3.1,1.2-6,2.2-8.5H223c-7.9,7.7-12.4,18.8-11.3,31.2c0.3,3.9,1.2,7.7,2.6,11.3H201.3z"/>
		<polygon points="84.4,114.3 51.2,114.3 51.3,116 84.5,116 		"/>
		<polygon points="220.4,13.9 159.4,13.9 159.6,15.2 220.5,15.2 		"/>
		<polygon points="180.8,20.9 241.7,20.9 241.6,19.6 180.7,19.6 		"/>
		<polygon points="186.4,53.2 247.3,53.2 247.2,51.9 186.3,51.9 		"/>
		<polygon points="223.8,72.2 223.9,73.5 284.8,73.5 284.7,72.2 		"/>
		<polygon points="257,135.1 306.3,135.1 306.2,133.8 256.8,133.8 		"/>
		<polygon points="263.6,129.8 312.9,129.8 312.8,128.5 263.4,128.5 		"/>
	</g>
	<g>
		<g>
			<polygon fill="#4A4A4A" points="79.9,136.4 102.9,136.4 139.3,138.5 140,146.4 80.8,146 			"/>
			<path fill="#4A4A4A" d="M97.5,60.5l4.6-1.5l6.9,0.6l3.7-0.7l0.7,4.4c0,0,0,0-3.6,1.3c-3.6,1.3-7-0.1-7-0.1s-0.8,0.7-3.1,0.7
				C97.6,63.6,97.5,60.5,97.5,60.5z"/>
			<path fill="#4A4A4A" d="M212.4,102.1H142c-4.1,0-7,3.3-6.7,7.3l2.6,29.7c0.4,4.1,3.9,7.3,8,7.3h70.5c4.1,0,7-3.3,6.7-7.3
				l-2.6-29.7C220,105.4,216.5,102.1,212.4,102.1z"/>
			<polygon fill="#4A4A4A" points="210.8,107 144.4,107 147.5,141.5 213.8,141.5 			"/>
			<polygon fill="#4A4A4A" points="199.9,196.4 85.9,196.4 86.2,199.3 200.1,199.3 			"/>
			<polygon fill="#4A4A4A" points="225.3,149 43.8,149 43.5,146.4 225,146.4 			"/>
			<polygon fill="#4A4A4A" points="225.7,153.9 44.2,153.9 44,151.3 225.5,151.3 			"/>
			<path fill="#4A4A4A" d="M39.7,102.1h22.2c0,0,17.8-0.4,18.8,11.1c1,11.6,2.9,33.2,2.9,33.2h-40L39.7,102.1z"/>
			<g>
				<path fill="#B8B8B8" d="M84.8,191.8l-14.7-1.3l-10.9-5.7l20.2-16.7l-0.7-0.8l-0.4-0.9L56,175.1l3.9-23.5l-1-0.2l-0.9-0.5
					l-9.8,22.2l-13.4-22.6l-1.5,0.8l-1.6,0.4l7.2,22.6l-21.1-11l-0.7,1.6l-1,1.3l20.9,16.5l-10,4l-15.6-1.4l0,2l11.6,1l-9.3,3.7
					l0.9,1.8l12.9-5.1l13.4,1.2l-5,11.4L25.1,210l1.3,1.6l7.6-6.3l-4,9l1.8,0.9l5.7-12.8l8.3-6.8l3.1,9.6l-2.6,15.4l2,0.5l1.9-11.7
					l3.8,11.9l1.9-0.4l-5-15.7l1.7-10.3l11.8,9.3l6.5,11l1.7-0.9l-4.1-6.8l6.3,5l1.1-1.5L66,203l-6.9-11.6l10.5,0.9l13.5,7l0.8-1.7
					l-9.3-4.9l10.2,0.9L84.8,191.8z M73,170.6l-15.9,13.1l-2.3-1.2l0.8-5L73,170.6z M51.8,188.1l-0.8,0.7l-3.5-0.3l-2.5-2l-0.1-0.4
					l2.3-5.1l0.3-0.1l4.6,2.4l0.5,0.8L51.8,188.1z M50.2,180.1l-0.5-0.2l0.3-0.1L50.2,180.1z M51.8,179l1.7-0.7l-0.5,2.7L51.8,179z
					 M48.3,178.2l0.4-0.8l0.3,0.5L48.3,178.2z M44.4,181.9l-0.5,1.1l-0.3-0.8L44.4,181.9z M43,180.3l-0.7-2.2l2.7,1.4L43,180.3z
					 M42.3,184.3l-1.3-1l0.9-0.3L42.3,184.3z M46.9,190.3l1.1,0.9l-1.2,1l-0.6-1.9L46.9,190.3z M51.3,191.1l0,0.3l-0.1-0.1
					L51.3,191.1z M55,188.1l0.6,1L54,189L55,188.1z M55.2,184.8l0.3,0.2l-0.2,0.1L55.2,184.8z M56.7,159.2L53.9,176l-3.1,1.2l-1.2-2
					L56.7,159.2z M34.5,153.6l12.8,21.7l-1.2,2.7l-4.6-2.4L34.5,153.6z M19.1,166l20.8,10.9l1.3,4.2l-2.1,0.8L19.1,166z M31.6,187
					l7.4-2.9l3.3,2.6l-0.5,1.2L31.6,187z M39.4,198.3l3.7-8.3l1,0.1l1.1,3.4L39.4,198.3z M49.7,201.1l-2.2-6.8l2.2-1.8l1.3,1
					L49.7,201.1z M61.8,199.7l-8.7-6.9l0.3-1.9l3.4,0.3L61.8,199.7z M57.9,189.3l-1.4-2.4l1.1-0.9l7.6,4L57.9,189.3z"/>
				<g>
					<path fill="#737373" d="M52.5,226.8c-23,0-43.4-18.7-45.4-41.8s15.1-41.8,38.1-41.8s43.4,18.7,45.4,41.8S75.5,226.8,52.5,226.8
						z M45.7,149.2c-19.8,0-34.4,16.1-32.7,35.9c1.7,19.8,19.2,35.9,39,35.9s34.4-16.1,32.7-35.9C83,165.3,65.5,149.2,45.7,149.2z"
						/>
				</g>
				<g>
					<path fill="#B8B8B8" d="M52.3,224.1c-21.5,0-40.6-17.5-42.5-39.1S23.9,146,45.4,146c21.5,0,40.6,17.5,42.5,39.1
						C89.8,206.6,73.8,224.1,52.3,224.1z M45.9,151.9c-18.3,0-31.8,14.9-30.2,33.1c1.6,18.3,17.8,33.1,36,33.1s31.8-14.9,30.2-33.1
						C80.4,166.8,64.2,151.9,45.9,151.9z"/>
				</g>
				<g>
					<path fill="#4A4A4A" d="M53.4,185.1c0.2,2.5-1.6,4.6-4.2,4.6s-4.8-2-5-4.6c-0.2-2.5,1.6-4.6,4.2-4.6
						C51,180.5,53.2,182.5,53.4,185.1z"/>
				</g>
			</g>
			<g>
				<path fill="#B8B8B8" d="M272.1,191.8l-14.7-1.3l-10.9-5.7l20.2-16.7l-0.7-0.8l-0.4-0.9l-22.2,8.8l3.9-23.5l-1-0.2l-0.9-0.5
					l-9.8,22.2l-13.4-22.6l-1.5,0.8l-1.6,0.4l7.2,22.6l-21.1-11l-0.7,1.6l-1,1.3l20.9,16.5l-10,4l-15.6-1.4l0,2l11.6,1l-9.3,3.7
					l0.9,1.8l12.9-5.1l13.4,1.2l-5,11.4l-10.8,8.9l1.3,1.6l7.6-6.3l-4,9l1.8,0.9l5.7-12.8l8.3-6.8l3.1,9.6l-2.6,15.4l2,0.5l1.9-11.7
					l3.8,11.9l1.9-0.4l-5-15.7l1.7-10.3l11.8,9.3l6.5,11l1.7-0.9l-4.1-6.8l6.3,5l1.1-1.5l-10.1-8l-6.9-11.6l10.5,0.9l13.5,7l0.8-1.7
					l-9.3-4.9l10.2,0.9L272.1,191.8z M260.4,170.6l-15.9,13.1l-2.3-1.2l0.8-5L260.4,170.6z M239.2,188.1l-0.8,0.7l-3.5-0.3l-2.5-2
					l-0.1-0.4l2.3-5.1l0.3-0.1l4.6,2.4l0.5,0.8L239.2,188.1z M237.5,180.1l-0.5-0.2l0.3-0.1L237.5,180.1z M239.1,179l1.7-0.7
					l-0.5,2.7L239.1,179z M235.6,178.2l0.4-0.8l0.3,0.5L235.6,178.2z M231.7,181.9l-0.5,1.1l-0.3-0.8L231.7,181.9z M230.4,180.3
					l-0.7-2.2l2.7,1.4L230.4,180.3z M229.6,184.3l-1.3-1l0.9-0.3L229.6,184.3z M234.2,190.3l1.1,0.9l-1.2,1l-0.6-1.9L234.2,190.3z
					 M238.7,191.1l0,0.3l-0.1-0.1L238.7,191.1z M242.3,188.1l0.6,1l-1.6-0.1L242.3,188.1z M242.6,184.8l0.3,0.2l-0.2,0.1
					L242.6,184.8z M244,159.2l-2.8,16.8l-3.1,1.2l-1.2-2L244,159.2z M221.9,153.6l12.8,21.7l-1.2,2.7l-4.6-2.4L221.9,153.6z
					 M206.5,166l20.8,10.9l1.3,4.2l-2.1,0.8L206.5,166z M219,187l7.4-2.9l3.3,2.6l-0.5,1.2L219,187z M226.8,198.3l3.7-8.3l1,0.1
					l1.1,3.4L226.8,198.3z M237,201.1l-2.2-6.8l2.2-1.8l1.3,1L237,201.1z M249.2,199.7l-8.7-6.9l0.3-1.9l3.4,0.3L249.2,199.7z
					 M245.2,189.3l-1.4-2.4l1.1-0.9l7.6,4L245.2,189.3z"/>
				<g>
					<path fill="#737373" d="M239.8,226.8c-23,0-43.4-18.7-45.4-41.8c-2-23,15.1-41.8,38.1-41.8s43.4,18.7,45.4,41.8
						C280,208.1,262.9,226.8,239.8,226.8z M233,149.2c-19.8,0-34.4,16.1-32.7,35.9c1.7,19.8,19.2,35.9,39,35.9s34.4-16.1,32.7-35.9
						C270.3,165.3,252.8,149.2,233,149.2z"/>
				</g>
				<g>
					<path fill="#B8B8B8" d="M239.6,224.1c-21.5,0-40.6-17.5-42.5-39.1s14.1-39.1,35.6-39.1c21.5,0,40.6,17.5,42.5,39.1
						C277.1,206.6,261.1,224.1,239.6,224.1z M233.3,151.9c-18.3,0-31.8,14.9-30.2,33.1c1.6,18.3,17.8,33.1,36,33.1
						c18.3,0,31.8-14.9,30.2-33.1C267.7,166.8,251.6,151.9,233.3,151.9z"/>
				</g>
				<g>
					<path fill="#4A4A4A" d="M240.8,185.1c0.2,2.5-1.6,4.6-4.2,4.6s-4.8-2-5-4.6c-0.2-2.5,1.6-4.6,4.2-4.6
						C238.3,180.5,240.5,182.5,240.8,185.1z"/>
				</g>
			</g>
			<path fill="#757575" d="M94.7,164.1c-11.8-41.7-63.7-32.6-63.7-32.6l-0.5-6c64-7.2,70.7,38.5,70.7,38.5s6.4,33.9,21.4,44.9h-17
				l-11.5-46.6"/>
			<polygon fill="#4A4A4A" points="159.7,147.7 138.6,147.7 134.6,102.1 155.7,102.1 			"/>
			<path fill="#757575" d="M186.2,164.1c4.5-41.7,58-32.6,58-32.6l-0.5-6c-65.3-7.2-64,38.5-64,38.5s-0.5,33.9-13.6,44.9h17
				l3.3-46.6"/>
			<path fill="#757575" d="M243.6,125.6c22.8,2.5,32.5,0,32.5,0s-3.9,9.5-31.9,6"/>
			<path fill="#757575" d="M30.6,125.6c-26.1,3.1-22.7,3.4-22.7,3.4s6,3.3,23.3,2.6"/>
			<polygon fill="#757575" points="67.1,100.4 33.9,100.4 34,102.1 67.2,102.1 			"/>
			<polygon fill="#757575" points="181.8,84.3 137,84.3 138.6,102.1 175.5,102.1 			"/>
			<polygon fill="#4A4A4A" points="176.9,81.2 168.7,81.2 169,84.3 177.1,84.3 			"/>
			<polygon fill="#757575" points="174.2,50.8 166.1,50.8 168.7,81.2 176.9,81.2 			"/>
			<polygon fill="#757575" points="90.4,55.8 87.9,58.6 113.8,82.4 116.3,79.7 			"/>
			<polygon fill="#757575" points="103.8,72.8 102.5,71.7 77.2,105.9 78.6,107 			"/>
			<g>
				<path fill="#2B2B2B" d="M122.3,127l3.3,8.6c0,0,0.4,1.6-0.9,2c-1.3,0.3-21.9-1.8-21.9-1.8s-1.7-1.3-0.2-1.6
					c1.6-0.3,7.8-0.9,10.3-2.4c2.4-1.5,3.1-3.7,3.1-3.7L122.3,127z"/>
				<path fill="#2B2B2B" d="M108.8,88.8c14.5-7.7,42.9-11.3,42.9-11.3l0.6,0.4c0,0,2.7,11.5,1.8,13.4c-0.9,2-11.2,4.1-17.5,5.5
					c-6.3,1.4-16.4,1.4-16.4,1.4s0,0,1.3,3.9c0.9,2.8,3.1,16.7,3.9,24.9c-2.1,0.9-6.5,1.3-12.8,1.3l-3.7-32.3
					C108.8,96.1,108.4,90.4,108.8,88.8z"/>
			</g>
			<path fill="#2B2B2B" d="M149.9,41.9c-0.4,0.3-14.3,12.5-14.3,12.5l-2.6,0.8l-0.6,0.7l-20.7,1.6c0,0-0.9,3.6,1.5,6.1
				c2.4,2.4,15.1,1.6,15.1,1.6s17.8-4.6,17.8-5.1c-0.1-0.4,9.5-14.5,9.5-14.5L149.9,41.9z"/>
			<path fill="#3B3B3B" d="M128.3,127.9l3.3,8.6c0,0,0.4,1.6-0.9,2c-1.3,0.3-21.9-1.8-21.9-1.8s-1.7-1.3-0.2-1.6
				c1.6-0.3,7.8-0.9,10.3-2.4c2.4-1.5,3.1-3.7,3.1-3.7L128.3,127.9z"/>
			<path fill="#A6A6A6" d="M113.3,90.7c8.8-4.4,40.5-11.1,40.5-11.1l10.9,0.4c0,0,2.8,11.4,1.9,13.4c-0.9,2-17.6,3.1-23.9,4.4
				c-6.3,1.4-16.4,1.4-16.4,1.4s0,0,1.3,3.9c0.9,2.8,1.4,10.9,2.1,19.2c-2.1,0.9-5.8,2-12.2,1.9l-4-28.2
				C113.4,95.9,113.4,95.9,113.3,90.7z"/>
			<path fill="#A6A6A6" d="M130.5,129.4c-9,1.5-12.5,0.1-12.5,0.1l-1.2-7.4c5.7-0.1,10.2-0.4,12.8-1.3
				C130,124.2,130.1,126.4,130.5,129.4z"/>
			<path fill="#BABABA" d="M157.4,25.8c0,0-0.4,7.7,1.2,10.9c-3.9,1.5-8.5,1.9-8.5,1.9s0-8-1.6-8.5c-1.6-0.6-2.9-2.9-2.9-2.9
				l11.9-4.5L157.4,25.8z"/>
			<path fill="#BABABA" d="M142.2,15.1c0,0-1.1,1.9-0.7,4.3c0.4,2.4-1.6,4.5-1.6,4.5l1.9,1.1c0,0,0.6,6.6,2.7,7.1
				c2.1,0.5,5.6,0.4,8-1.3c2.4-1.7,4-10.4,4-10.4s-8.3-7.9-8.8-8.1C147.2,12.1,142.2,15.1,142.2,15.1z"/>
			<path fill="#2B2B2B" d="M153.5,22l3.3,0.4c0,0,0.1,2.5-1.4,3.1c-1.5,0.6-2,0.3-2,0.3L153.5,22z"/>
			<path fill="#A6A6A6" d="M149.6,36.6c0.1-0.3,4.6-2.6,8-2.7c0.6-0.1,0.6-0.1,0.6-0.1l1.3,4.1l-10.9,7.9
				C148.6,45.9,148.9,39.6,149.6,36.6z"/>
			<path fill="#3B3B3B" d="M159.4,37.3c0,0,6,8,6.3,18.4c0.2,10.4,0.7,27.1,0.7,27.1s-10,2.2-18.9-3.3c-0.2-5.4-1.2-16.9-1.2-16.9
				l-0.4-11.1C145.9,51.5,148.7,39.7,159.4,37.3z"/>
			<path fill="#A6A6A6" d="M94.9,63.7l4.6-1.5l6.9,0.6l3.7-0.7l0.7,4.4c0,0,0,0-3.6,1.3c-3.6,1.3-7-0.1-7-0.1s-0.8,0.7-3.1,0.7
				C94.9,66.7,94.9,63.7,94.9,63.7z"/>
			<path fill="#3B3B3B" d="M109.2,61.5l24.3-2.2c0,0,1.7-1.7,2.4-1.5c0.7,0.2,1.6,0.2,1.6,0.2l13.8-15.4c0,0,4.7-1.5,7.8,3.3
				c3.1,4.8-1.4,11.1-1.4,11.1l-14.2,10.4l-33.1,0.9C110.6,68.4,109.8,67.4,109.2,61.5z"/>
			<path fill="#2B2B2B" d="M144.2,22c0.3,0.5,0.9,0.8,1.4,0.6c0.5-0.2,0.7-0.8,0.4-1.4c-0.3-0.5-0.9-0.8-1.4-0.6
				C144.1,20.8,143.9,21.4,144.2,22z"/>
			<path fill="#2B2B2B" d="M142.1,15.3c0,0,4.2-3.2,8.4,1.3c0,0,2.8,1.5,3,5.4l3.2,0.4l0.1,0.8l0.7-0.5c0,0-0.3-9.1-4.6-9.9
				C152.8,12.8,146.1,6,142.1,15.3z"/>
			<polygon fill="#757575" points="139.4,11.1 138.9,12.4 160.4,21 160.9,19.7 			"/>
			<polygon fill="#757575" points="144.5,5.7 142,13.2 156.5,19 159,11.5 			"/>
		</g>
		<polygon fill="#B8B8B8" points="203.1,0 142.1,0 142.3,1.3 203.2,1.3 		"/>
		<polygon fill="#B8B8B8" points="224.3,5.7 163.4,5.7 163.5,7 224.4,7 		"/>
		<polygon fill="#B8B8B8" points="229.9,38 169,38 169.1,39.3 230,39.3 		"/>
		<polygon fill="#B8B8B8" points="267.4,58.3 206.5,58.3 206.6,59.6 267.5,59.6 		"/>
		<polygon fill="#B8B8B8" points="288.9,119.9 239.5,119.9 239.7,121.2 289,121.2 		"/>
		<polygon fill="#B8B8B8" points="295.5,114.6 246.2,114.6 246.3,115.9 295.6,115.9 		"/>
	</g>
</g>
</svg>
