<?xml version="1.0" encoding="utf-8"?>
<!-- Generator: Adobe Illustrator 18.1.1, SVG Export Plug-In . SVG Version: 6.00 Build 0)  -->
<svg version="1.1" id="Layer_1" xmlns="http://www.w3.org/2000/svg" xmlns:xlink="http://www.w3.org/1999/xlink" x="0px" y="0px"
	 viewBox="0 0 319.8 290.3" enable-background="new 0 0 319.8 290.3" xml:space="preserve">
<g>
	<circle fill="#212535" cx="161.1" cy="150" r="140.2"/>
</g>
<g opacity="0.23">
	<g>
		<polygon points="88.5,59 90.7,64.6 95.3,75.8 140.4,57.4 129,29.2 103.7,39.5 103.7,39.5 98.1,41.8 83.8,47.6 88.5,59 		"/>
	</g>
	<g>
		<path d="M22.8,227.5h297l-24.6-12.2v-0.5h-1.1l-18.9-9.4v-84.4c23.2-2.3,41.4-21.9,41.4-45.7c0-25.3-20.5-45.9-45.9-45.9
			s-45.9,20.5-45.9,45.9c0,23.8,18.1,43.3,41.3,45.7v79.9l-44.3-22c0.9-0.5,1.5-1.5,1.5-2.6v-7.4c0-1.1-0.6-2-1.5-2.6v-28.2
			c0-4.9-3.7-10.4-8.3-12.2l-2.8-1.1c-0.1-0.1-0.3-0.1-0.4-0.2c0-0.1,0-0.1,0-0.1l0-0.1h2.6c1.3,0,2.8-0.7,3.6-1.8l2-2.7h0.4
			c2.4,0,4.4-2,4.4-4.4V108c0-2.4-2-4.4-4.4-4.4h-3c-2.4,0-4.4,2-4.4,4.4v7.4c0,2.1,1.5,3.9,3.4,4.3l-0.8,1
			c-0.2,0.3-0.8,0.6-1.2,0.6h-2.9l-3-32.7c-0.6-6.5-6.4-11.8-13-11.8h-83.9c-4.8,0-9.3,2.9-11.5,7.1l-16-38.5l-0.9,0.3l16.4,39.4
			c-0.5,1.1-0.8,2.3-0.9,3.5l-3,32.7h-2.9c-0.3,0-1-0.3-1.2-0.6l-0.8-1c2-0.5,3.4-2.2,3.4-4.3V108c0-2.4-2-4.4-4.4-4.4h-3
			c-2.4,0-4.4,2-4.4,4.4v7.4c0,2.4,2,4.4,4.4,4.4h0.4l2,2.7c0.8,1,2.3,1.8,3.6,1.8h2.6l0,0.1c0,0.2,0,0.3,0,0.5l-3.1,1.2
			c-4.6,1.7-8.3,7.1-8.3,12v28.2c-0.9,0.5-1.5,1.5-1.5,2.6v7.4c0,1.6,1.3,3,3,3h1.5v10.4L22.8,227.5z"/>
	</g>
</g>
<g>
	<g>
		<g>
			
				<rect x="65.4" y="11" transform="matrix(0.9262 -0.377 0.377 0.9262 -3.2361 35.7678)" fill="#005293" width="48.8" height="30.4"/>
		</g>
		<g>
			<polygon fill="#FECB00" points="111.2,14.3 86,24.6 81.3,13.2 75.7,15.5 80.4,26.8 66.1,32.7 68.4,38.3 82.7,32.5 87.2,43.6 
				92.8,41.3 88.3,30.2 113.5,19.9 			"/>
		</g>
	</g>
	<g>
		<polygon fill="#231F20" points="81.2,69.5 80.3,69.8 59.3,19.4 60.3,19.1 		"/>
	</g>
	<g>
		<polygon fill="#BFC2D9" points="297.4,201.1 0.4,201.1 95.5,143.6 181.6,143.6 		"/>
	</g>
	<g>
		<g>
			<g>
				<rect x="243.7" y="80.8" fill="#BFC2D9" width="9.2" height="102"/>
			</g>
		</g>
		<g>
			<rect x="238.3" y="182.9" fill="#9FA4C9" width="20.9" height="5.5"/>
		</g>
		<g>
			<rect x="227.6" y="188.4" fill="#191E3B" width="45.2" height="6.6"/>
		</g>
		<g>
			<circle fill="#E53C6D" cx="248.3" cy="48.9" r="45.9"/>
			<path fill="#AD1C4C" d="M248.3,97.3c-26.7,0-48.4-21.7-48.4-48.4s21.7-48.4,48.4-48.4c26.7,0,48.4,21.7,48.4,48.4
				S275,97.3,248.3,97.3z M248.3,5.5C224.4,5.5,205,25,205,48.9c0,23.9,19.5,43.4,43.4,43.4s43.4-19.5,43.4-43.4
				C291.7,25,272.3,5.5,248.3,5.5z"/>
		</g>
		<g>
			<circle fill="#FAAF4C" cx="248.3" cy="48.9" r="32.1"/>
		</g>
	</g>
	<g>
		<polygon fill="#FFFFFF" points="146.3,156.9 143.9,143.2 138.8,143.2 136,156.9 		"/>
	</g>
	<g>
		<g>
			<polygon fill="#FFFFFF" points="149.7,176.9 147,160.9 135.2,160.9 131.9,176.9 			"/>
		</g>
		<g>
			<polygon fill="#FFFFFF" points="131.1,180.9 127.1,200.7 153.8,200.7 150.4,180.9 			"/>
		</g>
	</g>
	<g>
		<g>
			<path fill="#1A203D" d="M236.4,62.9c-1.9,0-3.6-0.2-5-0.7s-2.6-1.1-3.5-1.9c-2-1.8-3-4.2-3-7.4h6.3c0.1,1.5,0.5,2.6,1.3,3.5
				c0.8,0.9,2,1.4,3.7,1.4c1.4,0,2.4-0.3,3.2-1c0.7-0.7,1.1-1.6,1.1-2.7c0-1.2-0.4-2.1-1.2-2.7c-0.8-0.6-1.9-0.9-3.4-0.9h-1.6v-4.6
				h1.5c1.3,0,2.3-0.3,3.1-0.8c0.8-0.5,1.2-1.3,1.2-2.4c0-0.9-0.3-1.7-0.9-2.2c-0.6-0.6-1.5-0.9-2.6-0.9c-1.5,0-2.5,0.4-3.2,1.2
				c-0.7,0.8-1,1.8-1.1,3h-6.2c0-1.3,0.3-2.6,0.8-3.7c0.5-1.1,1.2-2.1,2.1-2.9c0.9-0.8,2-1.4,3.3-1.9c1.3-0.4,2.8-0.7,4.5-0.7
				c1.5,0,2.9,0.2,4.1,0.5c1.2,0.3,2.3,0.8,3.2,1.5s1.6,1.5,2.1,2.4c0.5,1,0.7,2,0.7,3.2c0,1.4-0.4,2.5-1.2,3.4
				c-0.8,0.9-1.8,1.5-3,2v0.1c1.5,0.4,2.7,1.2,3.6,2.3c0.9,1.1,1.3,2.5,1.3,4.4c0,1.5-0.3,2.7-0.9,3.8s-1.4,2-2.4,2.7
				c-1,0.7-2.1,1.2-3.4,1.6C239.2,62.7,237.8,62.9,236.4,62.9z"/>
		</g>
		<g>
			<path fill="#1A203D" d="M260.9,62.9c-1.8,0-3.4-0.3-4.9-1c-1.5-0.7-2.7-1.6-3.8-2.9c-1.1-1.2-1.9-2.7-2.5-4.5
				c-0.6-1.7-0.9-3.7-0.9-5.9c0-2.2,0.3-4.1,0.9-5.9c0.6-1.7,1.4-3.2,2.5-4.5c1.1-1.2,2.3-2.2,3.8-2.9s3.1-1,4.9-1
				c1.8,0,3.5,0.3,5,1c1.5,0.7,2.7,1.6,3.8,2.9c1,1.2,1.8,2.7,2.4,4.5c0.6,1.7,0.9,3.7,0.9,5.9c0,2.2-0.3,4.1-0.9,5.9
				c-0.6,1.7-1.4,3.2-2.5,4.5c-1.1,1.2-2.3,2.2-3.8,2.9C264.4,62.6,262.7,62.9,260.9,62.9z M261,57.7c0.9,0,1.7-0.2,2.4-0.7
				c0.6-0.4,1.2-1,1.6-1.8s0.7-1.7,0.9-2.8c0.2-1.1,0.3-2.3,0.3-3.7c0-1.3-0.1-2.5-0.3-3.6c-0.2-1.1-0.5-2-0.9-2.8s-1-1.4-1.6-1.9
				c-0.6-0.4-1.4-0.7-2.3-0.7c-0.9,0-1.7,0.2-2.4,0.7c-0.6,0.4-1.2,1.1-1.6,1.8c-0.4,0.8-0.7,1.7-0.9,2.9s-0.3,2.3-0.3,3.6
				c0,1.3,0.1,2.5,0.3,3.6s0.5,2,0.9,2.8c0.4,0.8,0.9,1.4,1.6,1.8C259.3,57.5,260.1,57.7,261,57.7z"/>
		</g>
	</g>
	<g>
		<polygon fill="#9294A6" points="167.6,152 191.3,159.9 206.1,176.7 202.4,187.1 221.6,195.8 221.6,195.8 206.1,186.1 215.2,176.7 
			194.6,158.3 		"/>
	</g>
	<g>
		<polygon fill="#9294A6" points="71,170.9 59.2,174.8 51.8,183.2 53.7,188.5 47.2,192.8 44,192.8 51.8,187.9 47.2,183.2 
			57.5,174.1 		"/>
	</g>
	<g>
		<g>
			<path fill="#23292E" d="M196.5,77.2h-3c-2.4,0-4.4,2-4.4,4.4v7.4c0,2.1,1.5,3.9,3.4,4.3l-0.8,1c-0.2,0.3-0.8,0.6-1.2,0.6h-5.9
				c-0.8,0-1.5,0.7-1.5,1.5s0.7,1.5,1.5,1.5h5.9c1.3,0,2.8-0.7,3.6-1.8l2-2.7h0.4c2.4,0,4.4-2,4.4-4.4v-7.4
				C200.9,79.2,198.9,77.2,196.5,77.2z"/>
		</g>
		<g>
			<path fill="#23292E" d="M74.9,95H69c-0.3,0-1-0.3-1.2-0.6l-0.8-1c2-0.5,3.4-2.2,3.4-4.3v-7.4c0-2.4-2-4.4-4.4-4.4h-3
				c-2.4,0-4.4,2-4.4,4.4v7.4c0,2.4,2,4.4,4.4,4.4h0.4l2,2.7c0.8,1,2.3,1.8,3.6,1.8h5.9c0.8,0,1.5-0.7,1.5-1.5S75.7,95,74.9,95z"/>
		</g>
		<g>
			<path fill="#2F363D" d="M88.2,175.1c0,4.1-3.3,7.4-7.4,7.4H70.4c-4.1,0-7.4-3.3-7.4-7.4v-38.6c0-4.1,3.3-7.4,7.4-7.4h10.4
				c4.1,0,7.4,3.3,7.4,7.4V175.1z"/>
		</g>
		<g>
			<path fill="#2F363D" d="M196.5,175.1c0,4.1-3.3,7.4-7.4,7.4h-10.4c-4.1,0-7.4-3.3-7.4-7.4v-43c0-4.1,3.3-7.4,7.4-7.4h10.4
				c4.1,0,7.4,3.3,7.4,7.4V175.1z"/>
		</g>
		<g>
			<path fill="#23292E" d="M159.2,164c-0.7,0.4-2,0.7-2.8,0.7h-53.4c-0.8,0-2.1-0.3-2.8-0.7l-10.8-6.2c-0.7-0.4-1.3-1.4-1.3-2.2
				v-5.7c0-0.8,0.7-1.5,1.5-1.5h80.1c0.8,0,1.5,0.7,1.5,1.5v5.7c0,0.8-0.6,1.8-1.3,2.2L159.2,164z"/>
		</g>
		<g>
			<path fill="#666B5A" d="M191.2,99.5l-2.8-1.1c-0.1-0.1-0.3-0.1-0.4-0.2c0-0.1,0-0.1,0-0.1l-3.3-35.7c-0.6-6.5-6.4-11.8-13-11.8
				H87.8c-6.5,0-12.4,5.3-13,11.8L71.5,98c0,0.2,0,0.3,0,0.5l-3.1,1.2c-4.6,1.7-8.3,7.1-8.3,12v30.8c0,4.9,4,8.9,8.9,8.9h121.6
				c4.9,0,8.9-4,8.9-8.9v-30.8C199.5,106.8,195.7,101.3,191.2,99.5z"/>
		</g>
		<g>
			<path fill="#808772" d="M96.2,130.4l2-22.3c0.2-2,1.1-3.9,2.3-5.3l-21.2-9.2c0,0,1.2,4.8,1.2,5c12.4,5.2,12,9.1,12,33.6l3.5,4.4
				C96,135.4,96,132.7,96.2,130.4z"/>
		</g>
		<g>
			<path fill="#505447" d="M163.3,130.4l-2-22.3c-0.2-2-1.1-3.9-2.3-5.3l21.2-9.2c0,0-1.2,4.8-1.2,5c-12.4,5.2-12,9.1-12,33.6
				l-3.5,4.4C163.5,135.4,163.5,132.7,163.3,130.4z"/>
		</g>
		<g>
			<path fill="#6CA19D" d="M179.7,84.7c0.3,3.3-2.2,5.9-5.5,5.9h-89c-3.3,0-5.7-2.7-5.5-5.9l1.8-22.3c0.3-3.3,3.1-5.9,6.4-5.9h83.5
				c3.3,0,6.1,2.7,6.4,5.9L179.7,84.7z"/>
		</g>
		<g>
			<path fill="#6C7361" d="M160.4,130.6c0.3,3.2-2.1,5.9-5.4,5.9h-50.4c-3.3,0-5.7-2.7-5.4-5.9l2-22.3c0.3-3.2,3.2-5.9,6.5-5.9h44.2
				c3.3,0,6.2,2.7,6.5,5.9L160.4,130.6z"/>
		</g>
		<g>
			<g>
				<defs>
					<circle id="SVGID_1_" cx="75.6" cy="115" r="8.2"/>
				</defs>
				<clipPath id="SVGID_2_">
					<use xlink:href="#SVGID_1_"  overflow="visible"/>
				</clipPath>
				<rect x="67.5" y="106.9" clip-path="url(#SVGID_2_)" fill="#F2F2F2" width="0" height="16.3"/>
				<rect x="67.5" y="106.9" clip-path="url(#SVGID_2_)" fill="#F2F2F2" width="2.3" height="16.3"/>
				<rect x="69.8" y="106.9" clip-path="url(#SVGID_2_)" fill="#F1F1F1" width="2.3" height="16.3"/>
				<rect x="72.1" y="106.9" clip-path="url(#SVGID_2_)" fill="#F0F0F0" width="2.3" height="16.3"/>
				<rect x="74.5" y="106.9" clip-path="url(#SVGID_2_)" fill="#EFEFEF" width="2.3" height="16.3"/>
				<rect x="76.8" y="106.9" clip-path="url(#SVGID_2_)" fill="#EDEDED" width="2.3" height="16.3"/>
				<rect x="79.1" y="106.9" clip-path="url(#SVGID_2_)" fill="#ECECEC" width="2.3" height="16.3"/>
				<rect x="81.5" y="106.9" clip-path="url(#SVGID_2_)" fill="#EBEBEB" width="2.3" height="16.3"/>
			</g>
		</g>
		<g>
			<g>
				<defs>
					<path id="SVGID_3_" d="M198,139.5H61.5c-1.6,0-3,1.3-3,3v7.4c0,1.6,1.3,3,3,3h39.4c1,1.8,2.9,3,5.1,3h47.5c2.2,0,4.1-1.2,5.1-3
						H198c1.6,0,3-1.3,3-3v-7.4C200.9,140.9,199.6,139.5,198,139.5z"/>
				</defs>
				<clipPath id="SVGID_4_">
					<use xlink:href="#SVGID_3_"  overflow="visible"/>
				</clipPath>
				<polygon clip-path="url(#SVGID_4_)" fill="#E6E6E6" points="67.4,139.5 58.6,139.8 58.6,139.5 				"/>
				<polygon clip-path="url(#SVGID_4_)" fill="#E5E5E5" points="133.5,139.5 58.6,141.6 58.6,139.8 67.4,139.5 				"/>
				<polygon clip-path="url(#SVGID_4_)" fill="#E4E4E4" points="199.7,139.5 58.6,143.4 58.6,141.6 133.5,139.5 				"/>
				<polygon clip-path="url(#SVGID_4_)" fill="#E3E3E3" points="200.9,141.3 58.6,145.2 58.6,143.4 199.7,139.5 200.9,139.5 				"/>
				<polygon clip-path="url(#SVGID_4_)" fill="#E2E2E2" points="200.9,143.1 58.6,147 58.6,145.2 200.9,141.3 				"/>
				<polygon clip-path="url(#SVGID_4_)" fill="#E1E1E1" points="200.9,144.9 58.6,148.8 58.6,147 200.9,143.1 				"/>
				<polygon clip-path="url(#SVGID_4_)" fill="#DFDFDF" points="200.9,146.7 58.6,150.6 58.6,148.8 200.9,144.9 				"/>
				<polygon clip-path="url(#SVGID_4_)" fill="#DEDEDE" points="200.9,148.5 58.6,152.4 58.6,150.6 200.9,146.7 				"/>
				<polygon clip-path="url(#SVGID_4_)" fill="#DDDDDD" points="200.9,150.4 58.6,154.3 58.6,152.4 200.9,148.5 				"/>
				<polygon clip-path="url(#SVGID_4_)" fill="#DCDCDC" points="200.9,152.2 67.2,155.8 58.6,155.8 58.6,154.3 200.9,150.4 				"/>
				<polygon clip-path="url(#SVGID_4_)" fill="#DBDBDB" points="200.9,154 133.3,155.8 67.2,155.8 200.9,152.2 				"/>
				<polygon clip-path="url(#SVGID_4_)" fill="#DBDBDB" points="133.3,155.8 200.9,154 200.9,155.8 				"/>
			</g>
		</g>
		<g>
			<path fill="#AEB8B7" d="M100.1,152.9c0,0.8-0.7,1.5-1.5,1.5h-8.9c-0.8,0-1.5-0.7-1.5-1.5v-13.3c0-0.8,0.7-1.5,1.5-1.5h8.9
				c0.8,0,1.5,0.7,1.5,1.5V152.9z"/>
		</g>
		<g>
			<path fill="#AEB8B7" d="M171.3,152.9c0,0.8-0.7,1.5-1.5,1.5h-8.9c-0.8,0-1.5-0.7-1.5-1.5v-13.3c0-0.8,0.7-1.5,1.5-1.5h8.9
				c0.8,0,1.5,0.7,1.5,1.5V152.9z"/>
		</g>
		<g>
			<circle fill="#F5773E" cx="71.2" cy="131.4" r="3.7"/>
		</g>
		<g>
			<g>
				<defs>
					<circle id="SVGID_5_" cx="183.9" cy="115" r="8.2"/>
				</defs>
				<clipPath id="SVGID_6_">
					<use xlink:href="#SVGID_5_"  overflow="visible"/>
				</clipPath>
				<rect x="189.7" y="106.9" clip-path="url(#SVGID_6_)" fill="#F2F2F2" width="2.3" height="16.3"/>
				<rect x="187.4" y="106.9" clip-path="url(#SVGID_6_)" fill="#F1F1F1" width="2.3" height="16.3"/>
				<rect x="185.1" y="106.9" clip-path="url(#SVGID_6_)" fill="#F0F0F0" width="2.3" height="16.3"/>
				<rect x="182.7" y="106.9" clip-path="url(#SVGID_6_)" fill="#EFEFEF" width="2.3" height="16.3"/>
				<rect x="180.4" y="106.9" clip-path="url(#SVGID_6_)" fill="#EDEDED" width="2.3" height="16.3"/>
				<rect x="178.1" y="106.9" clip-path="url(#SVGID_6_)" fill="#ECECEC" width="2.3" height="16.3"/>
				<rect x="175.7" y="106.9" clip-path="url(#SVGID_6_)" fill="#EBEBEB" width="2.3" height="16.3"/>
				<rect x="175.7" y="106.9" clip-path="url(#SVGID_6_)" fill="#EBEBEB" width="0" height="16.3"/>
			</g>
		</g>
		<g>
			<circle fill="#F5773E" cx="188.3" cy="131.4" r="3.7"/>
		</g>
		<g opacity="0.5">
			<g>
				<polygon fill="#FFFFFF" points="103.5,87.6 107,87.6 85.3,64.1 85.3,68 				"/>
			</g>
			<g>
				<polygon fill="#FFFFFF" points="86.8,59.4 113.2,87.6 119.4,87.6 93,59.4 89.9,59.4 				"/>
			</g>
		</g>
		<g opacity="0.5">
			<rect x="116.4" y="151.4" fill="#7A7A7A" width="5.9" height="4.4"/>
		</g>
		<g opacity="0.5">
			<rect x="137.2" y="151.4" fill="#7A7A7A" width="5.9" height="4.4"/>
		</g>
		<g opacity="0.5">
			<rect x="126.8" y="151.4" fill="#7A7A7A" width="5.9" height="4.4"/>
		</g>
		<g>
			<g>
				<path fill="#31332B" d="M119.4,130.6c0,0.8-0.7,1.5-1.5,1.5h-3c-0.8,0-1.5-0.7-1.5-1.5v-20.8c0-0.8,0.7-1.5,1.5-1.5h3
					c0.8,0,1.5,0.7,1.5,1.5V130.6z"/>
			</g>
			<g>
				<path fill="#31332B" d="M110.5,130.6c0,0.8-0.7,1.5-1.5,1.5h-3c-0.8,0-1.5-0.7-1.5-1.5v-20.8c0-0.8,0.7-1.5,1.5-1.5h3
					c0.8,0,1.5,0.7,1.5,1.5V130.6z"/>
			</g>
			<g>
				<path fill="#31332B" d="M155,130.6c0,0.8-0.7,1.5-1.5,1.5h-3c-0.8,0-1.5-0.7-1.5-1.5v-20.8c0-0.8,0.7-1.5,1.5-1.5h3
					c0.8,0,1.5,0.7,1.5,1.5V130.6z"/>
			</g>
			<g>
				<path fill="#31332B" d="M128.3,130.6c0,0.8-0.7,1.5-1.5,1.5h-3c-0.8,0-1.5-0.7-1.5-1.5v-20.8c0-0.8,0.7-1.5,1.5-1.5h3
					c0.8,0,1.5,0.7,1.5,1.5V130.6z"/>
			</g>
			<g>
				<path fill="#31332B" d="M137.2,130.6c0,0.8-0.7,1.5-1.5,1.5h-3c-0.8,0-1.5-0.7-1.5-1.5v-20.8c0-0.8,0.7-1.5,1.5-1.5h3
					c0.8,0,1.5,0.7,1.5,1.5V130.6z"/>
			</g>
			<g>
				<path fill="#31332B" d="M146.1,130.6c0,0.8-0.7,1.5-1.5,1.5h-3c-0.8,0-1.5-0.7-1.5-1.5v-20.8c0-0.8,0.7-1.5,1.5-1.5h3
					c0.8,0,1.5,0.7,1.5,1.5V130.6z"/>
			</g>
		</g>
	</g>
</g>
</svg>
