<?xml version="1.0" encoding="utf-8"?>
<!-- Generator: Adobe Illustrator 18.1.1, SVG Export Plug-In . SVG Version: 6.00 Build 0)  -->
<svg version="1.1" id="Layer_1" xmlns="http://www.w3.org/2000/svg" xmlns:xlink="http://www.w3.org/1999/xlink" x="0px" y="0px"
	 viewBox="0 0 298.2 280.1" enable-background="new 0 0 298.2 280.1" xml:space="preserve">
<circle fill="#212535" cx="140.3" cy="139.8" r="140.2"/>
<g opacity="0.23">
	<path d="M223.2,56.3H136c-5.3,0-9.5,4.3-9.5,9.5v0.7h-25.1v-8.4H99v-0.7c-8.8,0-17,3.1-23.3,8.2h-4.1v3.8
		c-6.1,6.6-9.8,15.5-9.8,25.2c0,13.8,7.5,25.8,18.6,32.2h-8.8v5c0,0,10.8,2.3,19.1,10.7c-0.4,1.7-0.6,3.5-0.6,5.3
		c0,7.4,3.4,14,8.8,18.3v7.2h-28v5c0,0,10.9,2.3,19.2,10.8c-0.7,2.2-1,4.5-1,6.8c0,7.6,3.6,14.4,9.3,18.7v-10.4
		c0.2,0.9,0.4,1.8,0.5,2.8v20.9h2.6v-8.6h25.1v-0.9c0,5.3,4.3,9.5,9.5,9.5h27h33.2h27c5.3,0,9.5-4.3,9.5-9.5V65.9
		C232.7,60.6,228.5,56.3,223.2,56.3z"/>
	<path d="M261.1,166.3c5.4-4.3,8.8-10.9,8.8-18.3c0-1.8-0.2-3.6-0.6-5.3c8.3-8.4,19.1-10.7,19.1-10.7v-5h-8.8
		c11.1-6.4,18.6-18.4,18.6-32.2c0-9.7-3.7-18.5-9.8-25.2v-3.8h-4.1c-6.4-5.1-14.5-8.2-23.3-8.2v0.7h-2.4v8.4h-25.1v153h25.1v8.6h2.6
		v-13.8c5.6-4.3,9.3-11.1,9.3-18.7c0-2.4-0.4-4.8-1.1-7c8.3-8.9,19.7-11.3,19.7-11.3v-5h-27.9V166.3z"/>
</g>
<g>
	<path fill="#F0F0F0" d="M200.9,201.4h-87.2c-5.3,0-9.5-4.3-9.5-9.5V39c0-5.3,4.3-9.5,9.5-9.5h87.2c5.3,0,9.5,4.3,9.5,9.5v152.8
		C210.4,197.1,206.2,201.4,200.9,201.4z"/>
	<rect x="116" y="40.7" fill="#151933" width="82.6" height="149.5"/>
	<rect x="140.7" y="187.5" fill="#151933" width="33.2" height="13.8"/>
	<circle fill="#0F1224" cx="159.2" cy="70.4" r="20.8"/>
	<circle fill="#E53C3C" cx="159.2" cy="70.4" r="17.5"/>
	<circle fill="#0F1224" cx="159.2" cy="114.8" r="20.8"/>
	<circle opacity="0.34" fill="#FC8D2B" cx="159.2" cy="114.8" r="17.5"/>
	<circle fill="#0F1224" cx="159.2" cy="161.7" r="23.1"/>
	<circle opacity="0.34" fill="#22AB76" cx="159.2" cy="161.7" r="19.4"/>
	<circle opacity="0.23" fill="#E53C3C" cx="159.2" cy="70.4" r="40.3"/>
	<circle opacity="0.23" fill="#E53C3C" cx="159.2" cy="70.4" r="29.1"/>
</g>
<rect x="76.8" y="32.4" fill="#151933" width="0.6" height="94.2"/>
<path fill="#D14343" d="M77,41.3c-5.6,4.3-9.3,11.1-9.3,18.7s3.6,14.4,9.3,18.7V41.3z"/>
<path fill="#151933" d="M77.6,39H49.2v5c0,0,28.4,6,28.4,34.2V39z"/>
<path opacity="0.34" fill="#FC8D2B" d="M77,102.5c-5.6,4.3-9.3,11.1-9.3,18.7c0,7.6,3.6,14.4,9.3,18.7V102.5z"/>
<path fill="#151933" d="M77.6,100.2H49.2v5c0,0,28.4,6,28.4,34.2V100.2z"/>
<path opacity="0.34" fill="#22AB76" d="M76,150.7c-5.6,4.3-9.3,11.1-9.3,18.7s3.6,14.4,9.3,18.7V150.7z"/>
<path fill="#151933" d="M76.9,146.7H48.6v5c0,0,28.4,6,28.4,34.2V146.7z"/>
<path opacity="0.23" fill="#E53C3C" d="M76.7,105.2c-20.6,0-37.2-16.7-37.2-37.2s16.7-37.2,37.2-37.2"/>
<path opacity="0.23" fill="#E53C3C" d="M76.7,94.8c-14.8,0-26.9-12-26.9-26.9s12-26.9,26.9-26.9"/>
<rect x="76.5" y="31.4" fill="#FFFFFF" width="2.6" height="170"/>
<rect x="79.1" y="39.8" fill="#151933" width="25.1" height="153"/>
<rect x="238" y="32.4" fill="#151933" width="0.6" height="94.2"/>
<path fill="#D14343" d="M238.4,41.3c5.6,4.3,9.3,11.1,9.3,18.7s-3.6,14.4-9.3,18.7V41.3z"/>
<path fill="#151933" d="M237.8,39h28.4v5c0,0-28.4,6-28.4,34.2V39z"/>
<path opacity="0.34" fill="#FC8D2B" d="M238.4,102.5c5.6,4.3,9.3,11.1,9.3,18.7c0,7.6-3.6,14.4-9.3,18.7V102.5z"/>
<path fill="#151933" d="M237.8,100.2h28.4v5c0,0-28.4,6-28.4,34.2V100.2z"/>
<path opacity="0.34" fill="#22AB76" d="M238.8,150.1c5.6,4.3,9.3,11.1,9.3,18.7s-3.6,14.4-9.3,18.7V150.1z"/>
<path fill="#151933" d="M238.3,145.5h28.4v5c0,0-28.4,6-28.4,34.2V145.5z"/>
<path opacity="0.23" fill="#E53C3C" d="M238.7,105.2c20.6,0,37.2-16.7,37.2-37.2s-16.7-37.2-37.2-37.2"/>
<path opacity="0.23" fill="#E53C3C" d="M238.7,94.8c14.8,0,26.9-12,26.9-26.9s-12-26.9-26.9-26.9"/>
<rect x="236.3" y="31.4" fill="#FFFFFF" width="2.6" height="170"/>
<rect x="211.1" y="39.8" fill="#151933" width="25.1" height="153"/>
</svg>
