<?xml version="1.0" encoding="utf-8"?>
<!-- Generator: Adobe Illustrator 18.1.1, SVG Export Plug-In . SVG Version: 6.00 Build 0)  -->
<svg version="1.1" id="Layer_1" xmlns="http://www.w3.org/2000/svg" xmlns:xlink="http://www.w3.org/1999/xlink" x="0px" y="0px"
	 viewBox="0 500 95 32" enable-background="new 0 500 95 32" xml:space="preserve">
<path fill="#FFFFFF" d="M57.9,509.5c-0.7,0.4-1.6,0.6-2.5,0.7c0.9-0.5,1.6-1.3,1.9-2.4c-0.8,0.5-1.8,0.8-2.7,1
	c-0.7-0.8-1.9-1.3-3.1-1.3c-2.4,0-4.3,1.9-4.3,4.3c0,0.4,0,0.7,0.1,1c-3.5-0.3-6.7-2-8.8-4.6c-0.3,0.7-0.6,1.4-0.6,2.2
	c0,1.5,0.7,2.8,1.9,3.5c-0.7,0-1.3-0.1-1.9-0.5c0,0,0,0,0,0.1c0,2.1,1.5,3.8,3.4,4.2c-0.4,0.1-0.7,0.1-1.1,0.1c-0.2,0-0.5,0-0.8-0.1
	c0.5,1.7,2.1,3,4,3c-1.4,1.2-3.3,1.9-5.3,1.9c-0.4,0-0.7,0-1-0.1c1.9,1.2,4.1,1.9,6.6,1.9c7.9,0,12.2-6.6,12.2-12.2
	c0-0.1,0-0.4,0-0.6C56.7,511.1,57.3,510.3,57.9,509.5z"/>
<rect y="500" fill="none" width="95" height="32"/>
</svg>
