<?xml version="1.0" encoding="utf-8"?>
<!-- Generator: Adobe Illustrator 18.1.1, SVG Export Plug-In . SVG Version: 6.00 Build 0)  -->
<svg version="1.1" id="Layer_1" xmlns="http://www.w3.org/2000/svg" xmlns:xlink="http://www.w3.org/1999/xlink" x="0px" y="0px"
	 viewBox="0 0 974.9 4230.9" enable-background="new 0 0 974.9 4230.9" xml:space="preserve">
<g opacity="0.15">
	<g>
		<path d="M73.6,4230.9L10,4167.3l340-340c74.8-74.8,105.2-130.4,101.4-186c-3.8-56.8-41.9-120.7-106.4-212
			c-40.9-57.9-65.7-97.9-83-133.8c-21-43.7-30.8-81.8-30.7-120.1c0.1-77.6,40.1-148.8,113.8-253c70.9-100.3,96-152.8,96.1-200.9
			c0-24.7-6.9-50.8-21.8-82.1c-14.9-31.3-38.1-68.6-75.1-121c-70.9-100.3-112.1-173.6-112.5-251.6c-0.5-78.7,40.3-151.8,110.8-251.5
			c38.6-54.6,61.6-91.3,76.9-122.6c15.4-31.5,22.6-57.5,22.8-82c0.3-47.5-25.1-100.5-97.1-202.3c-40.8-57.6-65.5-97.5-82.8-133.2
			c-21.1-43.7-31-81.9-31.1-120.3c-0.2-78.5,41.6-153,113.8-255.2c66.1-93.5,105-158.3,108.3-213.4c1.5-25.8-4.6-50.7-19.3-78.1
			c-16.4-30.5-43.9-64.9-84-105.1c-38.8-38.8-68.8-79.6-89.3-121.4c-21.6-44-32.8-89.4-33.3-134.9c-0.5-46.6,10.1-93.3,31.7-138.8
			c21.4-45.1,53.9-89.6,96.5-132.3C500.2,31.2,716.5,20.4,725.7,20l1.9,0h249.3v90H728.8c-6.3,0.4-52.5,3.6-111.3,20.1
			c-56.4,15.9-136.6,47.7-198.3,109.3c-68.4,68.4-102.7,137.8-101.9,206.4c0.8,65.4,33.1,130.5,96.3,193.7
			c95.7,95.7,134.4,171.1,129.5,252.2c-4.6,76.8-47.3,150.6-124.6,259.9c-72,101.8-97.5,155-97.3,203
			c0.1,47.5,25.6,100.3,97.3,201.8c74.1,104.8,114.1,176.5,113.6,254.9c-0.5,77.8-41.2,150-116.1,255.9
			c-36.1,51.1-58.7,87.6-73.2,118.4c-14.5,30.6-21.2,56.3-21,80.7c0.3,47.9,25.4,100.2,96,200.1c71.9,101.7,113.5,176,113.4,255.1
			c-0.1,78.3-41.3,152-112.6,252.8c-37.3,52.8-60.5,89.9-75.3,120.4c-15,30.9-22,56.6-22,80.8c-0.1,47.4,25.4,100.2,97.3,201.9
			c73.7,104.3,117.5,180,122.7,257.9c2.9,43.3-6.4,85.1-28.4,127.7c-20.5,39.8-53,81.6-99.2,127.9L73.6,4230.9z"/>
	</g>
</g>
<g>
	<g>
		<path fill="#4F5469" d="M63.6,4210.9L0,4147.3l340-340c74.8-74.8,105.2-130.4,101.4-186c-3.8-56.8-41.9-120.7-106.4-212
			c-40.9-57.9-65.7-97.9-83-133.8c-21-43.7-30.8-81.8-30.7-120.1c0.1-77.6,40.1-148.8,113.8-253c70.9-100.3,96-152.8,96.1-200.9
			c0-24.7-6.9-50.8-21.8-82.1c-14.9-31.3-38.1-68.6-75.1-121c-70.9-100.3-112.1-173.6-112.5-251.6c-0.5-78.6,40.3-151.8,110.8-251.5
			c38.6-54.6,61.6-91.3,76.9-122.6c15.4-31.5,22.6-57.5,22.8-82c0.3-47.5-25.1-100.5-97.1-202.3c-40.8-57.6-65.5-97.5-82.8-133.2
			c-21.1-43.7-31-81.9-31.1-120.3c-0.2-78.5,41.6-153,113.8-255.2c66.1-93.5,105-158.3,108.3-213.4c1.5-25.8-4.6-50.7-19.3-78.1
			c-16.4-30.5-43.9-64.9-84-105.1c-38.8-38.8-68.8-79.6-89.3-121.4c-21.6-44-32.8-89.4-33.3-134.9c-0.5-46.6,10.1-93.3,31.7-138.8
			c21.4-45.1,53.9-89.6,96.5-132.3C490.2,11.2,706.5,0.4,715.7,0l1.9,0h257.3v90H718.8c-6.3,0.4-52.5,3.6-111.3,20.1
			c-56.4,15.9-136.6,47.7-198.3,109.3c-68.4,68.4-102.7,137.8-101.9,206.4c0.8,65.4,33.1,130.5,96.3,193.7
			c95.7,95.7,134.4,171.1,129.5,252.2c-4.6,76.8-47.3,150.6-124.6,259.9c-72,101.8-97.5,155-97.3,203
			c0.1,47.5,25.6,100.3,97.3,201.8c74.1,104.8,114.1,176.5,113.6,254.9c-0.5,77.8-41.2,150-116.1,255.9
			c-36.1,51.1-58.7,87.6-73.2,118.4c-14.5,30.6-21.2,56.3-21,80.7c0.3,47.9,25.4,100.2,96,200.1c71.9,101.7,113.5,176,113.4,255.1
			c-0.1,78.3-41.3,152-112.6,252.8c-37.3,52.8-60.5,89.9-75.3,120.4c-15,30.9-22,56.6-22,80.8c-0.1,47.4,25.4,100.2,97.3,201.9
			c73.7,104.3,117.5,180,122.7,257.9c2.9,43.3-6.4,85.1-28.4,127.7c-20.5,39.8-53,81.6-99.2,127.9L63.6,4210.9z"/>
	</g>
</g>
<g>
	<g>
		<path fill="#4B4F63" d="M63.6,4210.9L0,4147.3l24.2-24.2l63.6,63.6L63.6,4210.9z M123.2,4151.4l-63.6-63.6l35.4-35.4l63.6,63.6
			L123.2,4151.4z M193.9,4080.7l-63.6-63.6l35.4-35.4l63.6,63.6L193.9,4080.7z M264.6,4010l-63.6-63.6l35.4-35.4l63.6,63.6
			L264.6,4010z M335.3,3939.3l-63.6-63.6l35.4-35.4l63.6,63.6L335.3,3939.3z M406.1,3868.4l-63.9-63.4
			c11.8-11.8,22.5-23.4,32.1-34.4l67.9,59C431.5,3842.1,419.3,3855.2,406.1,3868.4z M476,3786.9l-73.5-51.9
			c8.9-12.6,16.4-25,22.2-36.7l80.7,39.8C497.5,3754,487.7,3770.4,476,3786.9z M525.9,3681.5l-87.7-20.3c2.4-10.2,3.5-20.3,3.5-30.6
			c0-2.2-0.1-4.5-0.2-6.7l89.9-4.4c0.2,3.7,0.3,7.4,0.3,11.1C531.8,3647.6,529.8,3664.7,525.9,3681.5z M434.8,3585.2
			c-3.7-12.6-8.7-25.7-15.5-40.1l81.5-38.2c8.7,18.6,15.4,36,20.4,53.1L434.8,3585.2z M397.8,3504.5c-7.3-12.4-15.5-25.7-25.2-40.4
			l75.2-49.4c10.6,16.1,19.6,30.6,27.7,44.4L397.8,3504.5z M345.2,3423.8c-3.3-4.8-6.7-9.6-10.1-14.4c-6.8-9.6-12.9-18.4-18.7-26.9
			l74.3-50.9c5.5,8.1,11.4,16.5,17.9,25.8c3.6,5,7,10,10.5,14.9L345.2,3423.8z M287.9,3339.3c-10.5-16.6-19.2-31.7-26.8-46
			l79.5-42.2c6.6,12.4,14.3,25.5,23.6,40.3L287.9,3339.3z M237.9,3242.3c-7.5-20.2-12.3-39.2-14.7-58.2l89.3-11.5
			c1.6,12.2,4.8,24.7,9.9,38.5L237.9,3242.3z M312.9,3135.4l-89-13.6c2.9-18.7,8-37.6,15.8-57.6l83.9,32.6
			C318.3,3110.6,314.7,3123.3,312.9,3135.4z M342.5,3056.9l-79.1-43c7.7-14.2,16.6-29.1,27.1-45.6l75.9,48.3
			C357,3031.3,349.2,3044.5,342.5,3056.9z M393.2,2976.3l-74.1-51.1c5-7.2,10.3-14.9,16-22.9c4.5-6.3,8.7-12.4,12.7-18.2l74,51.2
			c-4.1,6-8.6,12.4-13.2,18.9C403.1,2962,398,2969.4,393.2,2976.3z M450.5,2892.4l-75.8-48.4c9.4-14.7,17.3-27.9,24.1-40.3
			l78.9,43.2C469.9,2861.1,461,2876,450.5,2892.4z M501.5,2796.8l-83.7-33.2c5.5-13.9,9.2-26.6,11.3-38.9l88.7,15.1
			C514.7,2758.4,509.4,2777,501.5,2796.8z M430.4,2687.2c-1.3-12.3-4.2-24.9-8.9-38.5l85.1-29.4c7,20.3,11.4,39.4,13.4,58.6
			L430.4,2687.2z M404,2608.7c-6.4-12.4-13.9-25.6-23-40.3l76.6-47.3c10.3,16.7,19,32,26.5,46.5L404,2608.7z M354.9,2528.1
			c-6.3-9.3-13.1-19-20.6-29.7c-2.6-3.7-5.1-7.3-7.6-10.8l73.8-51.5c2.4,3.4,4.8,6.9,7.3,10.4c7.9,11.1,14.9,21.3,21.6,31.1
			L354.9,2528.1z M297.8,2444.9c-10.6-16.3-19.6-31-27.5-44.9l78.2-44.5c7,12.4,15.1,25.5,24.7,40.3L297.8,2444.9z M245.6,2351
			c-8.4-19.4-14.4-37.6-18.3-55.6l87.9-19.2c2.7,12.3,6.9,25.1,13,39.2L245.6,2351z M311.9,2238.5l-89.9-4.7
			c1-19.7,4.6-39.3,11-59.9l86,26.5C314.9,2213.8,312.6,2226.2,311.9,2238.5z M335.2,2160.7l-80.8-39.7
			c7.3-14.8,15.8-30.2,26.1-47.2l77,46.6C348.5,2135.1,341.3,2148.3,335.2,2160.7z M383.3,2080.2l-74.7-50.3
			c7.3-10.8,15.1-22.1,23.9-34.6c1.7-2.4,3.4-4.8,5.1-7.2l73.7,51.7c-1.7,2.5-3.5,4.9-5.3,7.5C397.6,2059.2,390.1,2070,383.3,2080.2
			z M440.2,1997.5l-75.1-49.7c9.8-14.8,18.1-28,25.4-40.3l77.5,45.7C459.9,1966.9,450.8,1981.4,440.2,1997.5z M493.5,1905.3
			l-81.5-38.1c6.7-14.3,11.5-27.2,14.8-39.4l86.9,23.5C509,1868.6,502.4,1886.3,493.5,1905.3z M522.2,1790.4l-90-0.3v-0.2
			c0-12.1-1.7-24.4-5.2-37.4l87-23.2c5.5,20.7,8.2,40.5,8.2,60.6L522.2,1790.4z M412.3,1713.1c-5.8-12.4-12.8-25.5-21.5-40.2
			l77.5-45.7c10.2,17.2,18.5,32.9,25.5,48L412.3,1713.1z M365.4,1632.5c-8.1-12.2-17.1-25.3-27.6-40.2l73.6-51.8
			c11,15.6,20.4,29.4,29,42.3L365.4,1632.5z M308.9,1550.5c-10.8-16-20-30.3-28.2-43.8l76.9-46.8c7.5,12.3,16,25.5,25.9,40.3
			L308.9,1550.5z M254.5,1459.7c-9.2-18.6-16.3-35.9-21.6-52.7l85.9-27c3.9,12.3,9.2,25.3,16.4,39.7L254.5,1459.7z M221.6,1347.1
			c-0.2-4.2-0.4-8.6-0.4-12.8c0-16.3,1.7-32.3,5.3-49l88,19c-2.2,10.3-3.3,20.1-3.3,29.9c0,2.5,0.1,5.1,0.2,7.6L221.6,1347.1z
			 M327.5,1265.2l-82.7-35.5c6.6-15.5,14.7-31.5,24.7-49.1l78.3,44.4C339.5,1239.7,332.8,1252.8,327.5,1265.2z M372.4,1184.7
			l-75.5-49c8.5-13.1,17.9-27.1,28.8-42.7l73.8,51.4C389.3,1159.3,380.4,1172.4,372.4,1184.7z M428.4,1103.3l-74.1-51.1
			c10.3-14.9,19.1-28.1,27-40.4l75.7,48.7C448.5,1073.6,439.2,1087.6,428.4,1103.3z M484.2,1015.6l-78.4-44.2
			c8.3-14.7,14.9-27.9,20.3-40.4l82.6,35.7C502.1,982.2,494.1,998.2,484.2,1015.6z M527.3,911.8l-87.7-20.4c2.7-11.5,4-22.2,4-32.8
			c0-1.6,0-3.2-0.1-4.8l89.9-3.4c0.1,2.7,0.2,5.5,0.2,8.3C533.6,875.9,531.5,893.8,527.3,911.8z M436.7,817.2
			c-3.9-11.9-9.5-23.9-17-36.8l77.7-45.4c10.7,18.3,18.8,35.9,24.7,53.9L436.7,817.2z M394.8,744.1c-8.7-11.1-18.8-23-30-35.2
			l66.3-60.9c12.9,14,24.6,27.8,34.8,40.9L394.8,744.1z M330.7,673.6c-12.9-13.5-25-27.5-35.7-41.4l71.2-55
			c8.8,11.5,18.8,23,29.6,34.3L330.7,673.6z M263.7,586c-9.8-16.8-18.2-34.1-24.9-51.2l83.8-32.7c5,12.8,11.3,25.8,18.8,38.6
			L263.7,586z M222.6,478.9c-3.5-18.3-5.3-36.9-5.3-55.4c0-1.1,0-2.2,0-3.3l90,1c0,0.8,0,1.5,0,2.3c0,12.8,1.2,25.7,3.7,38.5
			L222.6,478.9z M311.9,380.5l-88-18.7c3.9-18.5,9.7-37.1,17.1-55.3l83.4,34C318.9,353.7,314.7,367.2,311.9,380.5z M343.7,301.8
			l-77.4-46c9.1-15.3,19.6-30.7,31.3-45.8l71.2,55.1C359.4,277.2,351,289.6,343.7,301.8z M398.5,230.5L333,168.7
			c4.1-4.3,8.3-8.7,12.6-12.9c8.6-8.6,17.8-17,27.3-25l58.1,68.8c-7.6,6.4-14.8,13.1-21.7,19.9C405.6,223.1,401.9,226.8,398.5,230.5
			z M466.7,172.7l-49.6-75.1c14.9-9.8,30.8-19.2,47.2-27.7l41.5,79.8C492.2,156.9,479,164.6,466.7,172.7z M547.4,130.6l-33.9-83.4
			c16.3-6.6,33.3-12.7,50.6-18.2L591,115C576,119.7,561.4,124.9,547.4,130.6z M635.9,102.8l-20.2-87.7c17.5-4,35.2-7.4,52.6-10
			l13.4,89C666.6,96.4,651.2,99.3,635.9,102.8z M974.9,90h-50V0h50V90z M874.9,90h-50V0h50V90z M774.9,90h-50V0h50V90z"/>
	</g>
</g>
<g>
	<path fill="#FFFFFF" d="M41.8,4171.1c-0.5,0-1-0.2-1.4-0.6c-0.8-0.8-0.8-2,0-2.8l14.1-14.1c0.8-0.8,2-0.8,2.8,0s0.8,2,0,2.8
		l-14.1,14.1C42.9,4170.9,42.4,4171.1,41.8,4171.1z M77.2,4135.7c-0.5,0-1-0.2-1.4-0.6c-0.8-0.8-0.8-2,0-2.8l14.1-14.1
		c0.8-0.8,2-0.8,2.8,0c0.8,0.8,0.8,2,0,2.8l-14.1,14.1C78.2,4135.5,77.7,4135.7,77.2,4135.7z M112.6,4100.4c-0.5,0-1-0.2-1.4-0.6
		c-0.8-0.8-0.8-2,0-2.8l14.1-14.1c0.8-0.8,2-0.8,2.8,0c0.8,0.8,0.8,2,0,2.8l-14.1,14.1C113.6,4100.2,113.1,4100.4,112.6,4100.4z
		 M147.9,4065c-0.5,0-1-0.2-1.4-0.6c-0.8-0.8-0.8-2,0-2.8l14.1-14.1c0.8-0.8,2-0.8,2.8,0s0.8,2,0,2.8l-14.1,14.1
		C148.9,4064.8,148.4,4065,147.9,4065z M183.3,4029.7c-0.5,0-1-0.2-1.4-0.6c-0.8-0.8-0.8-2,0-2.8l14.1-14.1c0.8-0.8,2-0.8,2.8,0
		s0.8,2,0,2.8l-14.1,14.1C184.3,4029.5,183.8,4029.7,183.3,4029.7z M218.6,3994.3c-0.5,0-1-0.2-1.4-0.6c-0.8-0.8-0.8-2,0-2.8
		l14.1-14.1c0.8-0.8,2-0.8,2.8,0s0.8,2,0,2.8l-14.1,14.1C219.6,3994.1,219.1,3994.3,218.6,3994.3z M254,3959c-0.5,0-1-0.2-1.4-0.6
		c-0.8-0.8-0.8-2,0-2.8l14.1-14.1c0.8-0.8,2-0.8,2.8,0c0.8,0.8,0.8,2,0,2.8l-14.1,14.1C255,3958.8,254.5,3959,254,3959z
		 M289.3,3923.6c-0.5,0-1-0.2-1.4-0.6c-0.8-0.8-0.8-2,0-2.8l14.1-14.1c0.8-0.8,2-0.8,2.8,0c0.8,0.8,0.8,2,0,2.8l-14.1,14.1
		C290.4,3923.4,289.8,3923.6,289.3,3923.6z M324.7,3888.3c-0.5,0-1-0.2-1.4-0.6c-0.8-0.8-0.8-2,0-2.8l14.1-14.1c0.8-0.8,2-0.8,2.8,0
		c0.8,0.8,0.8,2,0,2.8l-14.1,14.1C325.7,3888.1,325.2,3888.3,324.7,3888.3z M360,3852.9c-0.5,0-1-0.2-1.4-0.6c-0.8-0.8-0.8-2,0-2.8
		l11.8-11.8c0.8-0.8,1.6-1.6,2.3-2.3c0.8-0.8,2-0.8,2.8,0c0.8,0.8,0.8,2,0,2.8c-0.8,0.8-1.6,1.6-2.4,2.4l-11.8,11.8
		C361.1,3852.7,360.6,3852.9,360,3852.9z M394.9,3817.1c-0.5,0-1-0.2-1.4-0.5c-0.8-0.7-0.9-2-0.1-2.8c4.6-5,9.1-10,13.3-14.8
		c0.7-0.8,2-0.9,2.8-0.2c0.8,0.7,0.9,2,0.2,2.8c-4.2,4.9-8.7,9.9-13.4,14.9C396,3816.9,395.5,3817.1,394.9,3817.1z M427.3,3779.1
		c-0.4,0-0.9-0.1-1.2-0.4c-0.9-0.7-1-1.9-0.4-2.8c4.2-5.4,8.2-10.8,11.9-16c0.6-0.9,1.9-1.1,2.8-0.5c0.9,0.6,1.1,1.9,0.5,2.8
		c-3.7,5.3-7.8,10.7-12,16.1C428.5,3778.8,427.9,3779.1,427.3,3779.1z M455.5,3737.8c-0.3,0-0.7-0.1-1-0.3c-1-0.6-1.3-1.8-0.7-2.7
		c3.4-5.8,6.6-11.7,9.4-17.5c0.5-1,1.7-1.4,2.7-0.9c1,0.5,1.4,1.7,0.9,2.7c-2.9,5.8-6.1,11.8-9.6,17.7
		C456.9,3737.5,456.2,3737.8,455.5,3737.8z M476.6,3692.6c-0.2,0-0.4,0-0.6-0.1c-1-0.4-1.6-1.5-1.2-2.5c2.2-6.3,4-12.7,5.4-19
		c0.2-1.1,1.3-1.7,2.4-1.5c1.1,0.2,1.7,1.3,1.5,2.4c-1.5,6.4-3.4,12.9-5.6,19.4C478.2,3692.1,477.4,3692.6,476.6,3692.6z
		 M486.4,3643.7c0,0-0.1,0-0.1,0c-1.1-0.1-1.9-1-1.9-2.1c0.2-3.6,0.3-7.3,0.3-11c0-2.9-0.1-5.8-0.2-8.7c-0.1-1.1,0.8-2,1.9-2.1
		c1.1-0.1,2,0.8,2.1,1.9c0.1,3,0.2,6,0.2,8.9c0,3.7-0.1,7.5-0.3,11.3C488.3,3642.9,487.5,3643.7,486.4,3643.7z M482.8,3594
		c-0.9,0-1.8-0.7-2-1.6c-1.3-6.3-2.9-12.7-4.8-19.2c-0.3-1.1,0.3-2.2,1.4-2.5c1.1-0.3,2.2,0.3,2.5,1.4c1.9,6.6,3.5,13.2,4.8,19.6
		c0.2,1.1-0.5,2.1-1.6,2.4C483.1,3594,482.9,3594,482.8,3594z M468.1,3546.3c-0.8,0-1.5-0.5-1.9-1.2c-2.4-5.9-5.1-12-8-18.2
		c-0.5-1,0-2.2,1-2.7c1-0.5,2.2,0,2.7,1c2.9,6.2,5.6,12.4,8.1,18.4c0.4,1-0.1,2.2-1.1,2.6C468.6,3546.3,468.4,3546.3,468.1,3546.3z
		 M446.5,3501.3c-0.7,0-1.4-0.4-1.8-1c-3-5.6-6.3-11.4-9.8-17.4c-0.6-1-0.2-2.2,0.7-2.7c1-0.6,2.2-0.2,2.7,0.7
		c3.5,6,6.8,11.8,9.9,17.5c0.5,1,0.2,2.2-0.8,2.7C447.2,3501.2,446.8,3501.3,446.5,3501.3z M421.1,3458.3c-0.7,0-1.3-0.3-1.7-0.9
		c-3.4-5.4-7-11-10.8-16.8c-0.6-0.9-0.3-2.2,0.6-2.8c0.9-0.6,2.2-0.3,2.8,0.6c3.8,5.8,7.4,11.4,10.9,16.8c0.6,0.9,0.3,2.2-0.6,2.8
		C421.8,3458.2,421.4,3458.3,421.1,3458.3z M393.5,3416.5c-0.6,0-1.3-0.3-1.7-0.9c-3.6-5.2-7.4-10.7-11.4-16.4
		c-0.6-0.9-0.4-2.2,0.5-2.8c0.9-0.6,2.2-0.4,2.8,0.5c4,5.7,7.8,11.2,11.4,16.5c0.6,0.9,0.4,2.2-0.5,2.8
		C394.3,3416.4,393.9,3416.5,393.5,3416.5z M364.9,3375.5c-0.6,0-1.3-0.3-1.6-0.9c-4-5.7-7.8-11.2-11.4-16.5
		c-0.6-0.9-0.4-2.2,0.5-2.8c0.9-0.6,2.2-0.4,2.8,0.5c3.6,5.2,7.4,10.8,11.4,16.4c0.6,0.9,0.4,2.2-0.5,2.8
		C365.7,3375.4,365.3,3375.5,364.9,3375.5z M336.8,3334.2c-0.7,0-1.3-0.3-1.7-0.9c-3.8-5.8-7.4-11.5-10.8-16.9
		c-0.6-0.9-0.3-2.2,0.6-2.8c0.9-0.6,2.2-0.3,2.8,0.6c3.4,5.4,7,11,10.8,16.8c0.6,0.9,0.3,2.2-0.6,2.8
		C337.6,3334.1,337.2,3334.2,336.8,3334.2z M310.5,3291.7c-0.7,0-1.4-0.4-1.7-1c-3.5-6-6.7-11.9-9.7-17.5c-0.5-1-0.1-2.2,0.8-2.7
		c1-0.5,2.2-0.1,2.7,0.8c3,5.6,6.2,11.5,9.7,17.4c0.6,1,0.2,2.2-0.7,2.7C311.2,3291.6,310.9,3291.7,310.5,3291.7z M287.6,3247.3
		c-0.8,0-1.5-0.4-1.8-1.2c-2.8-6.3-5.4-12.6-7.6-18.6c-0.4-1,0.1-2.2,1.2-2.6c1-0.4,2.2,0.1,2.6,1.2c2.2,5.9,4.7,12.1,7.5,18.4
		c0.4,1,0,2.2-1,2.6C288.2,3247.2,287.9,3247.3,287.6,3247.3z M271.4,3200.1c-0.9,0-1.7-0.6-1.9-1.5c-1.6-6.7-2.8-13.3-3.6-19.9
		c-0.1-1.1,0.6-2.1,1.7-2.2c1.1-0.1,2.1,0.6,2.2,1.7c0.8,6.4,2,12.9,3.5,19.5c0.3,1.1-0.4,2.2-1.5,2.4
		C271.7,3200.1,271.5,3200.1,271.4,3200.1z M266.5,3150.5C266.4,3150.5,266.4,3150.5,266.5,3150.5c-1.2,0-2-1-2-2.1
		c0.3-6.6,0.9-13.4,2-20.1c0.2-1.1,1.2-1.9,2.3-1.7c1.1,0.2,1.8,1.2,1.7,2.3c-1,6.6-1.6,13.2-1.9,19.7
		C268.4,3149.7,267.5,3150.5,266.5,3150.5z M275.1,3101.5c-0.2,0-0.4,0-0.6-0.1c-1.1-0.3-1.7-1.4-1.3-2.5c1.9-6.2,4.1-12.6,6.6-19
		c0.4-1,1.6-1.5,2.6-1.1c1,0.4,1.5,1.6,1.1,2.6c-2.5,6.4-4.7,12.7-6.5,18.7C276.8,3100.9,276,3101.5,275.1,3101.5z M293.8,3055.1
		c-0.3,0-0.6-0.1-0.9-0.2c-1-0.5-1.4-1.7-0.9-2.7c2.8-5.7,5.9-11.7,9.2-17.8c0.5-1,1.7-1.3,2.7-0.8c1,0.5,1.3,1.7,0.8,2.7
		c-3.3,6-6.4,12-9.2,17.7C295.2,3054.7,294.5,3055.1,293.8,3055.1z M317.9,3011.4c-0.4,0-0.7-0.1-1-0.3c-0.9-0.6-1.2-1.8-0.7-2.7
		c3.3-5.5,6.9-11.2,10.6-17c0.6-0.9,1.8-1.2,2.8-0.6c0.9,0.6,1.2,1.8,0.6,2.8c-3.7,5.8-7.2,11.5-10.5,16.9
		C319.2,3011.1,318.6,3011.4,317.9,3011.4z M344.9,2969.3c-0.4,0-0.8-0.1-1.1-0.3c-0.9-0.6-1.2-1.9-0.5-2.8
		c3.5-5.3,7.3-10.8,11.3-16.6c0.6-0.9,1.9-1.1,2.8-0.5c0.9,0.6,1.1,1.9,0.5,2.8c-3.9,5.7-7.7,11.2-11.2,16.5
		C346.2,2969,345.5,2969.3,344.9,2969.3z M373.3,2928.2c-0.4,0-0.8-0.1-1.2-0.4c-0.9-0.6-1.1-1.9-0.5-2.8c4-5.6,7.8-11.2,11.4-16.4
		c0.6-0.9,1.9-1.1,2.8-0.5c0.9,0.6,1.1,1.9,0.5,2.8c-3.6,5.2-7.5,10.8-11.5,16.4C374.6,2927.9,374,2928.2,373.3,2928.2z M401.6,2887
		c-0.4,0-0.8-0.1-1.1-0.3c-0.9-0.6-1.2-1.9-0.6-2.8c3.8-5.7,7.5-11.4,10.9-16.7c0.6-0.9,1.8-1.2,2.8-0.6c0.9,0.6,1.2,1.8,0.6,2.8
		c-3.4,5.4-7.1,11-10.9,16.8C402.9,2886.7,402.3,2887,401.6,2887z M428.3,2844.7c-0.3,0-0.7-0.1-1-0.3c-1-0.6-1.3-1.8-0.7-2.7
		c3.5-5.9,6.8-11.8,9.9-17.3c0.5-1,1.7-1.3,2.7-0.8c1,0.5,1.3,1.7,0.8,2.7c-3.1,5.6-6.4,11.5-9.9,17.4
		C429.6,2844.4,428.9,2844.7,428.3,2844.7z M451.7,2800.6c-0.3,0-0.6-0.1-0.8-0.2c-1-0.5-1.4-1.7-1-2.7c2.9-6.2,5.5-12.3,7.9-18.2
		c0.4-1,1.6-1.5,2.6-1.1c1,0.4,1.5,1.6,1.1,2.6c-2.4,6-5.1,12.2-8,18.5C453.2,2800.2,452.5,2800.6,451.7,2800.6z M469.2,2753.8
		c-0.2,0-0.3,0-0.5-0.1c-1.1-0.3-1.7-1.4-1.4-2.5c1.8-6.5,3.2-13,4.3-19.3c0.2-1.1,1.2-1.8,2.3-1.6c1.1,0.2,1.8,1.2,1.6,2.3
		c-1.1,6.4-2.6,13.1-4.3,19.7C470.9,2753.2,470.1,2753.8,469.2,2753.8z M476.1,2704.5C476.1,2704.5,476.1,2704.5,476.1,2704.5
		c-1.1,0-2-0.9-2-2l0-1.2c0-6.1-0.3-12.4-1-18.6c-0.1-1.1,0.7-2.1,1.8-2.2c1.1-0.1,2.1,0.7,2.2,1.8c0.7,6.3,1,12.7,1,19l0,1.2
		C478.1,2703.6,477.2,2704.5,476.1,2704.5z M469.8,2655.1c-0.9,0-1.7-0.6-1.9-1.5c-1.6-6.2-3.5-12.6-5.7-19c-0.4-1,0.2-2.2,1.2-2.5
		c1-0.4,2.2,0.2,2.5,1.2c2.3,6.5,4.2,13,5.8,19.3c0.3,1.1-0.4,2.2-1.4,2.4C470.1,2655,470,2655.1,469.8,2655.1z M452.8,2608.1
		c-0.8,0-1.5-0.4-1.8-1.2c-2.6-5.8-5.5-11.8-8.7-17.9c-0.5-1-0.1-2.2,0.9-2.7c1-0.5,2.2-0.1,2.7,0.9c3.2,6.2,6.1,12.2,8.8,18.1
		c0.5,1,0,2.2-1,2.6C453.4,2608.1,453.1,2608.1,452.8,2608.1z M429.7,2563.9c-0.7,0-1.4-0.4-1.7-1c-3.2-5.5-6.6-11.2-10.3-17.1
		c-0.6-0.9-0.3-2.2,0.7-2.8c0.9-0.6,2.2-0.3,2.8,0.7c3.6,5.9,7.1,11.7,10.3,17.2c0.6,1,0.2,2.2-0.7,2.7
		C430.4,2563.8,430,2563.9,429.7,2563.9z M403.2,2521.4c-0.7,0-1.3-0.3-1.7-0.9c-3.5-5.3-7.2-10.9-11.1-16.6
		c-0.6-0.9-0.4-2.2,0.5-2.8c0.9-0.6,2.2-0.4,2.8,0.5c3.9,5.7,7.6,11.3,11.1,16.6c0.6,0.9,0.4,2.2-0.6,2.8
		C404,2521.3,403.6,2521.4,403.2,2521.4z M375.1,2480.1c-0.6,0-1.2-0.3-1.6-0.9c-1.3-1.9-2.7-3.8-4-5.7c-2.5-3.6-5-7.1-7.5-10.6
		c-0.6-0.9-0.4-2.2,0.5-2.8c0.9-0.6,2.2-0.4,2.8,0.5c2.4,3.5,4.9,7,7.4,10.6c1.4,1.9,2.7,3.8,4.1,5.8c0.6,0.9,0.4,2.2-0.5,2.8
		C375.9,2480,375.5,2480.1,375.1,2480.1z M346.6,2439.1c-0.6,0-1.3-0.3-1.7-0.9c-3.9-5.7-7.6-11.4-11.1-16.7
		c-0.6-0.9-0.3-2.2,0.6-2.8c0.9-0.6,2.2-0.3,2.8,0.6c3.5,5.3,7.2,10.9,11,16.6c0.6,0.9,0.4,2.2-0.5,2.8
		C347.4,2438.9,347,2439.1,346.6,2439.1z M319.6,2397c-0.7,0-1.3-0.3-1.7-1c-3.6-5.9-7-11.7-10.2-17.3c-0.5-1-0.2-2.2,0.8-2.7
		c1-0.5,2.2-0.2,2.7,0.8c3.1,5.5,6.5,11.3,10.1,17.2c0.6,0.9,0.3,2.2-0.7,2.7C320.3,2396.9,319.9,2397,319.6,2397z M295.3,2353.3
		c-0.7,0-1.4-0.4-1.8-1.1c-3.1-6.2-5.9-12.3-8.5-18.2c-0.4-1,0-2.2,1-2.6c1-0.4,2.2,0,2.6,1c2.5,5.8,5.3,11.9,8.4,18
		c0.5,1,0.1,2.2-0.9,2.7C295.9,2353.2,295.6,2353.3,295.3,2353.3z M276.4,2307.1c-0.9,0-1.6-0.5-1.9-1.4c-2.1-6.6-3.8-13.1-5.2-19.5
		c-0.2-1.1,0.4-2.1,1.5-2.4c1.1-0.2,2.1,0.4,2.4,1.5c1.4,6.2,3.1,12.7,5.1,19.1c0.3,1.1-0.3,2.2-1.3,2.5
		C276.8,2307.1,276.6,2307.1,276.4,2307.1z M267.1,2258.1c-1,0-1.9-0.8-2-1.9c-0.2-3.6-0.3-7.2-0.3-10.7c0-3.1,0.1-6.3,0.2-9.5
		c0.1-1.1,1-1.9,2.1-1.9c1.1,0.1,1.9,1,1.9,2.1c-0.2,3.1-0.2,6.2-0.2,9.3c0,3.5,0.1,7,0.3,10.5c0.1,1.1-0.8,2-1.9,2.1
		C267.2,2258.1,267.1,2258.1,267.1,2258.1z M271,2208.5c-0.1,0-0.3,0-0.4,0c-1.1-0.2-1.8-1.3-1.5-2.4c1.4-6.4,3.1-12.9,5.1-19.5
		c0.3-1.1,1.4-1.6,2.5-1.3c1.1,0.3,1.6,1.4,1.3,2.5c-2,6.5-3.7,12.9-5,19.2C272.7,2207.8,271.9,2208.5,271,2208.5z M286.4,2161
		c-0.3,0-0.5-0.1-0.8-0.2c-1-0.4-1.5-1.6-1.1-2.6c2.5-5.9,5.3-12,8.4-18.3c0.5-1,1.7-1.4,2.7-0.9c1,0.5,1.4,1.7,0.9,2.7
		c-3,6.2-5.8,12.2-8.3,18.1C287.9,2160.6,287.2,2161,286.4,2161z M308.8,2116.4c-0.3,0-0.7-0.1-1-0.3c-1-0.5-1.3-1.8-0.8-2.7
		c3.1-5.6,6.6-11.4,10.1-17.3c0.6-0.9,1.8-1.2,2.7-0.7c0.9,0.6,1.2,1.8,0.7,2.7c-3.6,5.9-7,11.7-10.1,17.2
		C310.2,2116,309.5,2116.4,308.8,2116.4z M334.9,2073.7c-0.4,0-0.8-0.1-1.1-0.3c-0.9-0.6-1.2-1.8-0.6-2.8c3.5-5.4,7.2-11,11.1-16.7
		c0.6-0.9,1.9-1.2,2.8-0.5c0.9,0.6,1.2,1.9,0.5,2.8c-3.8,5.7-7.6,11.3-11,16.6C336.2,2073.4,335.5,2073.7,334.9,2073.7z
		 M362.9,2032.3c-0.4,0-0.8-0.1-1.1-0.4c-0.9-0.6-1.1-1.9-0.5-2.8c2.1-3,4.2-6,6.4-9.1c1.7-2.5,3.5-4.9,5.1-7.3
		c0.6-0.9,1.9-1.1,2.8-0.5c0.9,0.6,1.1,1.9,0.5,2.8c-1.7,2.4-3.4,4.9-5.2,7.3c-2.2,3-4.3,6.1-6.4,9
		C364.2,2032,363.5,2032.3,362.9,2032.3z M391.5,1991.3c-0.4,0-0.8-0.1-1.1-0.3c-0.9-0.6-1.1-1.9-0.5-2.8
		c3.9-5.7,7.6-11.3,11.1-16.6c0.6-0.9,1.9-1.2,2.8-0.6c0.9,0.6,1.2,1.9,0.6,2.8c-3.5,5.3-7.3,10.9-11.2,16.6
		C392.8,1991,392.1,1991.3,391.5,1991.3z M418.9,1949.5c-0.4,0-0.7-0.1-1.1-0.3c-0.9-0.6-1.2-1.8-0.6-2.8c3.6-5.8,7.1-11.6,10.4-17
		c0.6-1,1.8-1.3,2.7-0.7c1,0.6,1.3,1.8,0.7,2.7c-3.2,5.5-6.7,11.3-10.4,17.1C420.2,1949.2,419.5,1949.5,418.9,1949.5z M443.9,1906.2
		c-0.3,0-0.6-0.1-0.9-0.2c-1-0.5-1.4-1.7-0.8-2.7c3.2-6.1,6.2-12.1,8.8-17.8c0.5-1,1.7-1.4,2.7-1c1,0.5,1.4,1.7,1,2.7
		c-2.7,5.8-5.7,11.8-8.9,18C445.3,1905.8,444.6,1906.2,443.9,1906.2z M464.3,1860.6c-0.2,0-0.5,0-0.7-0.1c-1-0.4-1.6-1.5-1.2-2.6
		c2.3-6.4,4.3-12.8,6-18.9c0.3-1.1,1.4-1.7,2.5-1.4c1.1,0.3,1.7,1.4,1.4,2.5c-1.7,6.2-3.7,12.7-6.1,19.2
		C465.8,1860.1,465.1,1860.6,464.3,1860.6z M476,1812.2c-0.1,0-0.2,0-0.2,0c-1.1-0.1-1.9-1.1-1.8-2.2c0.8-6.6,1.1-13.2,1.2-19.7
		c0-1.1,0.9-2,2-2c0,0,0,0,0,0c1.1,0,2,0.9,2,2c0,6.7-0.4,13.4-1.2,20.2C477.9,1811.4,477,1812.2,476,1812.2z M474.7,1762.4
		c-1,0-1.8-0.7-2-1.7c-1-6.3-2.5-12.8-4.2-19.3c-0.3-1.1,0.4-2.2,1.4-2.4c1.1-0.3,2.2,0.3,2.4,1.4c1.8,6.6,3.2,13.3,4.3,19.7
		c0.2,1.1-0.6,2.1-1.6,2.3C474.9,1762.4,474.8,1762.4,474.7,1762.4z M461,1714.4c-0.8,0-1.5-0.5-1.9-1.3c-2.3-5.9-5-12-7.9-18.2
		c-0.5-1,0-2.2,1-2.7c1-0.5,2.2,0,2.7,1c2.9,6.3,5.6,12.5,8,18.5c0.4,1-0.1,2.2-1.1,2.6C461.5,1714.4,461.2,1714.4,461,1714.4z
		 M439.5,1669.4c-0.7,0-1.4-0.4-1.8-1c-3-5.6-6.4-11.4-9.9-17.3c-0.6-1-0.2-2.2,0.7-2.7c0.9-0.6,2.2-0.2,2.7,0.7
		c3.5,6,6.9,11.8,9.9,17.4c0.5,1,0.2,2.2-0.8,2.7C440.1,1669.3,439.8,1669.4,439.5,1669.4z M413.9,1626.4c-0.7,0-1.3-0.3-1.7-0.9
		c-3.4-5.4-7.1-11-10.9-16.7c-0.6-0.9-0.4-2.2,0.6-2.8c0.9-0.6,2.2-0.4,2.8,0.6c3.8,5.8,7.5,11.4,10.9,16.8c0.6,0.9,0.3,2.2-0.6,2.8
		C414.6,1626.3,414.2,1626.4,413.9,1626.4z M386.1,1584.9c-0.6,0-1.3-0.3-1.6-0.9c-3.6-5.2-7.5-10.8-11.4-16.4
		c-0.6-0.9-0.4-2.2,0.5-2.8s2.2-0.4,2.8,0.5c4,5.6,7.8,11.2,11.4,16.4c0.6,0.9,0.4,2.2-0.5,2.8
		C386.9,1584.7,386.5,1584.9,386.1,1584.9z M357.5,1543.9c-0.6,0-1.3-0.3-1.6-0.9c-3.9-5.7-7.7-11.3-11.3-16.5
		c-0.6-0.9-0.4-2.2,0.5-2.8c0.9-0.6,2.2-0.4,2.8,0.5c3.5,5.3,7.3,10.8,11.3,16.5c0.6,0.9,0.4,2.2-0.5,2.8
		C358.3,1543.8,357.9,1543.9,357.5,1543.9z M329.7,1502.3c-0.7,0-1.3-0.3-1.7-0.9c-3.7-5.8-7.3-11.5-10.6-17
		c-0.6-0.9-0.3-2.2,0.7-2.7c0.9-0.6,2.2-0.3,2.7,0.7c3.3,5.4,6.9,11.1,10.6,16.9c0.6,0.9,0.3,2.2-0.6,2.8
		C330.5,1502.2,330.1,1502.3,329.7,1502.3z M304.1,1459.4c-0.7,0-1.4-0.4-1.8-1c-3.3-6.1-6.5-12.1-9.3-17.8c-0.5-1-0.1-2.2,0.9-2.7
		c1-0.5,2.2-0.1,2.7,0.9c2.8,5.7,5.9,11.6,9.2,17.6c0.5,1,0.2,2.2-0.8,2.7C304.8,1459.3,304.4,1459.4,304.1,1459.4z M282.6,1414.3
		c-0.8,0-1.5-0.5-1.9-1.3c-2.6-6.4-4.8-12.8-6.8-19c-0.3-1.1,0.3-2.2,1.3-2.5c1.1-0.3,2.2,0.3,2.5,1.3c1.9,6.1,4.1,12.3,6.7,18.7
		c0.4,1-0.1,2.2-1.1,2.6C283.1,1414.3,282.8,1414.3,282.6,1414.3z M268.8,1366.4c-1,0-1.8-0.7-2-1.7c-1.1-6.7-1.9-13.5-2.3-20.1
		c-0.1-1.1,0.8-2,1.9-2.1c1.1-0.1,2,0.8,2.1,1.9c0.4,6.5,1.1,13.1,2.2,19.6c0.2,1.1-0.6,2.1-1.6,2.3
		C269,1366.4,268.9,1366.4,268.8,1366.4z M267.4,1316.6c-0.1,0-0.1,0-0.2,0c-1.1-0.1-1.9-1.1-1.8-2.2c0.7-6.5,1.8-13.2,3.3-19.9
		c0.2-1.1,1.3-1.8,2.4-1.5c1.1,0.2,1.8,1.3,1.5,2.4c-1.4,6.5-2.5,13.1-3.2,19.5C269.2,1315.9,268.4,1316.6,267.4,1316.6z
		 M278.8,1268.1c-0.2,0-0.4,0-0.7-0.1c-1-0.4-1.6-1.5-1.2-2.6c2.1-6.1,4.6-12.4,7.4-18.7c0.4-1,1.6-1.5,2.6-1c1,0.4,1.5,1.6,1,2.6
		c-2.7,6.3-5.1,12.5-7.3,18.5C280.4,1267.6,279.7,1268.1,278.8,1268.1z M299,1222.4c-0.3,0-0.6-0.1-0.9-0.2c-1-0.5-1.4-1.7-0.9-2.7
		c2.9-5.7,6.2-11.6,9.6-17.6c0.5-1,1.8-1.3,2.7-0.8c1,0.5,1.3,1.8,0.8,2.7c-3.4,6-6.6,11.9-9.5,17.5
		C300.5,1222,299.8,1222.4,299,1222.4z M323.9,1179.1c-0.4,0-0.7-0.1-1.1-0.3c-0.9-0.6-1.2-1.8-0.6-2.8c3.4-5.4,7-11.1,10.7-16.9
		c0.6-0.9,1.8-1.2,2.8-0.6c0.9,0.6,1.2,1.8,0.6,2.8c-3.7,5.8-7.4,11.4-10.7,16.8C325.3,1178.8,324.6,1179.1,323.9,1179.1z
		 M351.3,1137.3c-0.4,0-0.8-0.1-1.1-0.3c-0.9-0.6-1.1-1.9-0.5-2.8c3.6-5.2,7.4-10.8,11.4-16.5c0.6-0.9,1.9-1.1,2.8-0.5
		c0.9,0.6,1.1,1.9,0.5,2.8c-4,5.7-7.8,11.2-11.3,16.4C352.6,1136.9,351.9,1137.3,351.3,1137.3z M379.9,1096.2
		c-0.4,0-0.8-0.1-1.1-0.4c-0.9-0.6-1.1-1.9-0.5-2.8c4-5.7,7.8-11.2,11.4-16.4c0.6-0.9,1.9-1.1,2.8-0.5c0.9,0.6,1.1,1.9,0.5,2.8
		c-3.6,5.2-7.4,10.7-11.4,16.4C381.1,1096,380.5,1096.2,379.9,1096.2z M408.1,1055c-0.4,0-0.8-0.1-1.1-0.3c-0.9-0.6-1.2-1.9-0.6-2.8
		c3.8-5.7,7.5-11.4,10.9-16.7c0.6-0.9,1.8-1.2,2.8-0.6c0.9,0.6,1.2,1.8,0.6,2.8c-3.4,5.4-7.1,11-11,16.8
		C409.4,1054.7,408.8,1055,408.1,1055z M434.9,1012.8c-0.4,0-0.7-0.1-1-0.3c-0.9-0.6-1.3-1.8-0.7-2.7c3.5-5.9,6.9-11.7,10-17.2
		c0.5-1,1.8-1.3,2.7-0.8c1,0.5,1.3,1.8,0.8,2.7c-3.1,5.6-6.5,11.4-10.1,17.3C436.3,1012.5,435.6,1012.8,434.9,1012.8z M459,969
		c-0.3,0-0.6-0.1-0.9-0.2c-1-0.5-1.4-1.7-0.9-2.7c3-6.1,5.8-12.2,8.4-18.1c0.4-1,1.6-1.5,2.6-1c1,0.4,1.5,1.6,1,2.6
		c-2.5,5.9-5.4,12-8.4,18.2C460.5,968.6,459.8,969,459,969z M478.1,922.9c-0.2,0-0.4,0-0.6-0.1c-1.1-0.3-1.6-1.5-1.3-2.5
		c2.1-6.5,3.9-12.9,5.3-19.1c0.2-1.1,1.3-1.7,2.4-1.5c1.1,0.2,1.7,1.3,1.5,2.4c-1.5,6.3-3.3,12.8-5.4,19.4
		C479.7,922.3,478.9,922.9,478.1,922.9z M488.1,874c-0.1,0-0.1,0-0.2,0c-1.1-0.1-1.9-1-1.8-2.1c0.3-4.4,0.5-8.9,0.5-13.3
		c0-2.1,0-4.3-0.1-6.4c0-1.1,0.8-2,1.9-2.1c1.1,0,2,0.8,2.1,1.9c0.1,2.2,0.1,4.4,0.1,6.6c0,4.5-0.2,9.1-0.5,13.6
		C490,873.2,489.1,874,488.1,874z M484.7,824.3c-0.9,0-1.8-0.6-2-1.6c-1.4-6.3-3.1-12.7-5.2-19.1c-0.3-1,0.2-2.2,1.3-2.5
		c1-0.3,2.2,0.2,2.5,1.3c2.1,6.5,3.9,13,5.3,19.5c0.2,1.1-0.5,2.1-1.5,2.4C485,824.3,484.8,824.3,484.7,824.3z M468,777.4
		c-0.7,0-1.5-0.4-1.8-1.1c-2.8-5.7-6-11.6-9.4-17.5c-0.6-1-0.2-2.2,0.7-2.7c1-0.6,2.2-0.2,2.7,0.7c3.5,5.9,6.7,11.9,9.5,17.7
		c0.5,1,0.1,2.2-0.9,2.7C468.6,777.3,468.3,777.4,468,777.4z M442.3,734.6c-0.6,0-1.2-0.3-1.6-0.8c-3.7-5.2-7.7-10.6-11.9-16
		c-0.7-0.9-0.5-2.1,0.4-2.8c0.9-0.7,2.1-0.5,2.8,0.4c4.2,5.4,8.2,10.9,12,16.1c0.6,0.9,0.4,2.1-0.5,2.8
		C443.1,734.5,442.7,734.6,442.3,734.6z M411.3,695.4c-0.6,0-1.1-0.2-1.5-0.7c-4.2-4.9-8.7-9.9-13.3-14.9c-0.7-0.8-0.7-2.1,0.1-2.8
		c0.8-0.7,2.1-0.7,2.8,0.1c4.6,5,9.1,10.1,13.4,14.9c0.7,0.8,0.6,2.1-0.2,2.8C412.2,695.2,411.7,695.4,411.3,695.4z M377.3,658.8
		c-0.5,0-1-0.2-1.4-0.6c-1.8-1.8-3.6-3.6-5.4-5.5c-2.9-2.9-5.8-5.9-8.6-8.8c-0.8-0.8-0.7-2.1,0.1-2.8c0.8-0.8,2.1-0.7,2.8,0.1
		c2.8,2.9,5.7,5.9,8.6,8.8c1.8,1.8,3.6,3.7,5.4,5.5c0.8,0.8,0.8,2.1,0,2.8C378.3,658.6,377.8,658.8,377.3,658.8z M343.2,622.2
		c-0.6,0-1.1-0.2-1.5-0.7c-4.4-5.2-8.6-10.4-12.6-15.6c-0.7-0.9-0.5-2.1,0.4-2.8c0.9-0.7,2.1-0.5,2.8,0.4c4,5.2,8.2,10.4,12.5,15.5
		c0.7,0.8,0.6,2.1-0.2,2.8C344.1,622.1,343.6,622.2,343.2,622.2z M313.1,582.3c-0.6,0-1.3-0.3-1.7-0.9c-3.7-5.6-7.3-11.4-10.6-17.1
		c-0.6-1-0.2-2.2,0.7-2.7c1-0.6,2.2-0.2,2.7,0.7c3.3,5.6,6.8,11.3,10.5,16.9c0.6,0.9,0.4,2.2-0.6,2.8
		C313.9,582.2,313.5,582.3,313.1,582.3z M288.6,538.8c-0.8,0-1.5-0.4-1.8-1.2c-2.9-6.1-5.5-12.3-7.9-18.5c-0.4-1,0.1-2.2,1.1-2.6
		c1-0.4,2.2,0.1,2.6,1.1c2.4,6.1,5,12.2,7.8,18.3c0.5,1,0,2.2-1,2.7C289.2,538.7,288.9,538.8,288.6,538.8z M271.3,491.9
		c-0.9,0-1.7-0.6-1.9-1.5c-1.8-6.5-3.3-13.1-4.5-19.6c-0.2-1.1,0.5-2.1,1.6-2.3c1.1-0.2,2.1,0.5,2.3,1.6c1.2,6.4,2.7,12.9,4.5,19.3
		c0.3,1.1-0.3,2.2-1.4,2.5C271.7,491.9,271.5,491.9,271.3,491.9z M263,442.7c-1,0-1.9-0.8-2-1.9c-0.4-5.8-0.6-11.6-0.6-17.4
		c0-0.9,0-1.9,0-2.8c0-1.1,0.9-2,2-2c0,0,0,0,0,0c1.1,0,2,0.9,2,2c0,0.9,0,1.8,0,2.7c0,5.7,0.2,11.4,0.6,17.1
		c0.1,1.1-0.8,2.1-1.9,2.1C263,442.7,263,442.7,263,442.7z M264.5,392.8c-0.1,0-0.2,0-0.3,0c-1.1-0.1-1.9-1.1-1.7-2.2
		c0.9-6.6,2-13.3,3.4-19.9c0.2-1.1,1.3-1.8,2.4-1.5c1.1,0.2,1.8,1.3,1.5,2.4c-1.4,6.5-2.5,13.1-3.4,19.6
		C266.4,392.1,265.5,392.8,264.5,392.8z M275.7,344.2c-0.2,0-0.4,0-0.6-0.1c-1-0.3-1.6-1.5-1.3-2.5c2.1-6.3,4.4-12.6,7-18.9
		c0.4-1,1.6-1.5,2.6-1.1c1,0.4,1.5,1.6,1.1,2.6c-2.5,6.2-4.8,12.4-6.9,18.6C277.4,343.7,276.6,344.2,275.7,344.2z M295.3,298.2
		c-0.3,0-0.6-0.1-0.9-0.2c-1-0.5-1.4-1.7-0.9-2.7c3-5.8,6.3-11.7,9.8-17.6c0.6-0.9,1.8-1.3,2.7-0.7c0.9,0.6,1.3,1.8,0.7,2.7
		c-3.4,5.7-6.7,11.6-9.7,17.4C296.7,297.8,296,298.2,295.3,298.2z M321.3,255.6c-0.4,0-0.8-0.1-1.1-0.4c-0.9-0.6-1.1-1.9-0.5-2.8
		c3.8-5.4,7.8-10.8,11.9-16.2c0.7-0.9,1.9-1,2.8-0.4c0.9,0.7,1,1.9,0.4,2.8c-4.1,5.3-8.1,10.7-11.8,16
		C322.6,255.3,322,255.6,321.3,255.6z M352.3,216.4c-0.5,0-0.9-0.2-1.3-0.5c-0.8-0.7-0.9-2-0.2-2.8c4.3-4.9,8.9-9.9,13.5-14.8
		c0.8-0.8,2-0.8,2.8-0.1c0.8,0.8,0.8,2,0.1,2.8c-4.6,4.9-9.1,9.8-13.4,14.7C353.4,216.2,352.8,216.4,352.3,216.4z M386.9,180.4
		c-0.5,0-1.1-0.2-1.5-0.6c-0.8-0.8-0.7-2.1,0.1-2.8c4.8-4.5,9.9-9,15-13.3c0.8-0.7,2.1-0.6,2.8,0.2c0.7,0.8,0.6,2.1-0.2,2.8
		c-5.1,4.3-10.1,8.7-14.9,13.2C387.9,180.2,387.4,180.4,386.9,180.4z M425.5,148.6c-0.6,0-1.2-0.3-1.6-0.8c-0.7-0.9-0.5-2.1,0.4-2.8
		c5.4-3.9,10.9-7.8,16.5-11.5c0.9-0.6,2.2-0.4,2.8,0.6c0.6,0.9,0.4,2.2-0.6,2.8c-5.5,3.7-11.1,7.5-16.4,11.4
		C426.3,148.5,425.9,148.6,425.5,148.6z M467.5,121.5c-0.7,0-1.4-0.4-1.7-1c-0.5-1-0.2-2.2,0.7-2.7c5.7-3.3,11.7-6.5,17.6-9.6
		c1-0.5,2.2-0.1,2.7,0.9c0.5,1,0.1,2.2-0.9,2.7c-5.9,3.1-11.8,6.3-17.5,9.5C468.2,121.4,467.8,121.5,467.5,121.5z M512.1,98.8
		c-0.8,0-1.5-0.4-1.8-1.2c-0.5-1,0-2.2,1-2.6c6-2.7,12.2-5.4,18.5-7.9c1-0.4,2.2,0.1,2.6,1.1c0.4,1-0.1,2.2-1.1,2.6
		c-6.2,2.5-12.3,5.2-18.3,7.8C512.6,98.8,512.3,98.8,512.1,98.8z M558.5,80.3c-0.8,0-1.6-0.5-1.9-1.3c-0.4-1,0.2-2.2,1.2-2.5
		c6.3-2.2,12.7-4.3,19.1-6.3c1.1-0.3,2.2,0.3,2.5,1.3c0.3,1.1-0.3,2.2-1.3,2.5c-6.3,2-12.7,4.1-18.9,6.3
		C559,80.3,558.8,80.3,558.5,80.3z M606.4,65.8c-0.9,0-1.7-0.6-1.9-1.5c-0.3-1.1,0.4-2.2,1.4-2.4c6.4-1.7,13-3.3,19.5-4.8
		c1.1-0.2,2.1,0.4,2.4,1.5c0.2,1.1-0.4,2.1-1.5,2.4c-6.5,1.5-13,3.1-19.4,4.8C606.7,65.7,606.6,65.8,606.4,65.8z M655.3,54.9
		c-0.9,0-1.8-0.7-2-1.6c-0.2-1.1,0.5-2.1,1.6-2.3c6.6-1.2,13.3-2.3,19.8-3.3c1.1-0.2,2.1,0.6,2.3,1.7c0.2,1.1-0.6,2.1-1.7,2.3
		c-6.5,1-13.1,2.1-19.7,3.3C655.5,54.9,655.4,54.9,655.3,54.9z M704.8,48c-1,0-1.9-0.8-2-1.8c-0.1-1.1,0.7-2.1,1.8-2.2
		c8.2-0.8,12.7-1,12.8-1l7.4,0c1.1,0,2,0.9,2,2s-0.9,2-2,2h-7.3c0,0-4.5,0.2-12.6,1C705,48,704.9,48,704.8,48z M974.9,47h-20
		c-1.1,0-2-0.9-2-2s0.9-2,2-2h20c1.1,0,2,0.9,2,2S976,47,974.9,47z M924.9,47h-20c-1.1,0-2-0.9-2-2s0.9-2,2-2h20c1.1,0,2,0.9,2,2
		S926,47,924.9,47z M874.9,47h-20c-1.1,0-2-0.9-2-2s0.9-2,2-2h20c1.1,0,2,0.9,2,2S876,47,874.9,47z M824.9,47h-20c-1.1,0-2-0.9-2-2
		s0.9-2,2-2h20c1.1,0,2,0.9,2,2S826,47,824.9,47z M774.9,47h-20c-1.1,0-2-0.9-2-2s0.9-2,2-2h20c1.1,0,2,0.9,2,2S776,47,774.9,47z"/>
</g>
</svg>
